<svg width="96" height="71" viewBox="0 0 96 71" fill="none" xmlns="http://www.w3.org/2000/svg">
<path d="M95.9999 68.6999V64.362C95.9999 63.555 95.3974 62.9497 94.6945 62.9497C78.3263 61.6383 68.3848 37.7295 68.2844 37.5277C68.2844 37.4268 68.184 37.4268 68.184 37.326C68.0836 37.2251 68.0836 37.1242 67.9832 37.0233C67.8828 36.9224 67.8828 36.9224 67.7823 36.9224C67.6819 36.8215 67.6819 36.8215 67.5815 36.7207C67.4811 36.7207 67.3807 36.6198 67.3807 36.6198C67.2803 36.6198 67.1798 36.6198 67.0794 36.5189H66.979H62.661V32.181H65.5731C66.3765 32.181 66.979 31.5757 66.979 30.7687C66.979 29.9616 66.3765 29.3564 65.5731 29.3564H62.661V27.944C62.661 27.137 62.0585 26.5317 61.2551 26.5317C60.4518 26.5317 59.8493 27.137 59.8493 27.944V29.2555H54.025V27.8431C54.025 27.0361 53.4225 26.4308 52.6192 26.4308C51.8158 26.4308 51.2133 27.0361 51.2133 27.8431V29.2555H45.389V27.8431C45.389 27.0361 44.7865 26.4308 43.9832 26.4308C43.1798 26.4308 42.1756 27.0361 42.1756 27.8431V29.2555H36.3514V27.8431C36.3514 27.0361 35.7489 26.4308 34.9455 26.4308C34.1422 26.4308 33.5397 27.0361 33.5397 27.8431V29.2555H27.7154V23.4044H30.6275C31.4309 23.4044 32.0334 22.7991 32.0334 21.992C32.0334 21.5885 31.8326 21.185 31.6317 20.9832L17.1715 0.605286C16.6694 -0.201762 15.3639 -0.201762 14.7614 0.605286L0.301175 21.0841C-8.0226e-05 21.4876 -0.100499 22.0929 0.200757 22.5973C0.401593 23.1017 0.903685 23.4044 1.5062 23.4044H4.41833V68.6999C4.41833 69.507 5.02084 70.1123 5.82419 70.1123H10.1422C10.9455 70.1123 11.548 69.507 11.548 68.6999V43.8832H20.2844V68.6999C20.2844 69.507 20.8869 70.1123 21.6903 70.1123H26.0083C26.8116 70.1123 27.4141 69.507 27.4141 68.6999V45.3964H40.4685V68.8008C40.4685 69.6078 41.071 70.2131 41.8744 70.2131C42.6777 70.2131 43.2803 69.6078 43.2803 68.8008H50.5104C50.5104 69.6078 51.1129 70.2131 51.9162 70.2131C52.7196 70.2131 53.3221 69.6078 53.3221 68.8008V45.3964H60.5522V68.8008C60.5522 69.6078 61.1547 70.2131 61.9581 70.2131H66.2761H93.8911C94.092 70.2131 94.2928 70.2131 94.3932 70.1123C94.4936 70.1123 94.4936 70.0114 94.5941 70.0114C94.6945 70.0114 94.7949 69.9105 94.7949 69.9105C94.8953 69.8096 94.9957 69.7087 95.0961 69.6078L95.1966 69.507C95.9999 69.1034 95.9999 69.0026 95.9999 68.6999ZM68.3848 54.6775C72.2008 61.033 78.8284 64.9673 84.4518 67.1867H68.3848V54.6775ZM93.0878 65.6735V66.8841C87.4643 65.5726 69.4895 60.125 68.3848 45.3964V44.3876C72.502 51.7519 80.9371 63.9585 93.0878 65.6735ZM59.6485 32.181V36.5189H53.8242V32.181H59.6485ZM50.9121 32.181V36.5189H45.0878V32.181H50.9121ZM42.1756 32.181V36.5189H36.3514V32.181H42.1756ZM33.4392 32.181V36.5189H27.615V32.181H33.4392ZM15.9664 3.93436L27.7154 20.4788H26.2091H5.82419H4.31791L15.9664 3.93436ZM24.7028 67.2876H23.297V42.4709C23.297 41.6638 22.6945 41.0585 21.8911 41.0585H10.1422C9.33883 41.0585 8.73632 41.6638 8.73632 42.4709V67.2876H7.23004V23.4044H24.7028V38.0321V43.8832V67.2876ZM43.6819 57.0986H50.9121V60.0242H43.6819V57.0986ZM50.9121 54.1731H43.6819V51.2475H50.9121V54.1731ZM43.6819 65.7744V62.8488H50.9121V65.7744H43.6819ZM50.9121 48.322H43.6819V45.3964H50.9121V48.322ZM62.5606 42.4709H27.615V39.5453H65.4727V67.2876H64.0669V43.8832C64.0669 43.0762 63.3639 42.4709 62.5606 42.4709Z" fill="#144D29"/>
</svg>
