<svg width="80" height="35" viewBox="0 0 80 35" fill="none" xmlns="http://www.w3.org/2000/svg">
<path d="M37.3102 34.8793C27.5937 34.8793 18.4487 34.2057 11.5423 32.9809C8.12886 32.3685 5.4457 31.6643 3.5405 30.8682C2.66728 30.4854 0 29.3525 0 27.301V13.3538C0 12.7261 0.539807 12.2056 1.19075 12.2056C1.84169 12.2056 2.3815 12.7261 2.3815 13.3538V27.301C2.3815 27.6684 4.0168 29.2913 11.9869 30.7151C18.7345 31.9092 27.7365 32.5829 37.3102 32.5829C46.8838 32.5829 55.8859 31.9245 62.6335 30.7151C70.6036 29.2913 72.2389 27.6531 72.2389 27.301V13.3538C72.2389 12.7261 72.7787 12.2056 73.4296 12.2056C74.0806 12.2056 74.6204 12.7261 74.6204 13.3538V27.301C74.6204 29.3678 71.9531 30.4854 71.064 30.8529C69.1588 31.649 66.4756 32.3685 63.0621 32.9656C56.1875 34.2057 47.0426 34.8793 37.3102 34.8793Z" fill="#144D29"/>
<path d="M37.3102 27.8981C27.5937 27.8981 18.4487 27.2245 11.5423 25.9997C8.12886 25.3873 5.4457 24.6831 3.5405 23.887C2.66728 23.5196 0 22.3866 0 20.3351C0 19.7074 0.539807 19.1869 1.19075 19.1869C1.84169 19.1869 2.3815 19.7074 2.3815 20.3351C2.3815 20.7026 4.0168 22.3254 11.9869 23.7492C18.7345 24.9434 27.7365 25.617 37.3102 25.617C46.8838 25.617 55.8859 24.9587 62.6335 23.7492C70.6036 22.3254 72.2389 20.6872 72.2389 20.3351C72.2389 19.7074 72.7787 19.1869 73.4296 19.1869C74.0806 19.1869 74.6204 19.7074 74.6204 20.3351C74.6204 22.4019 71.9531 23.5196 71.064 23.887C69.1588 24.6831 66.4756 25.4027 63.0621 25.9997C56.1875 27.2245 47.0426 27.8981 37.3102 27.8981Z" fill="#144D29"/>
<path d="M37.3102 20.9323C27.5937 20.9323 18.4487 20.2586 11.5423 19.0339C8.12886 18.4215 5.4457 17.7172 3.5405 16.9211C2.66728 16.5384 0 15.4208 0 13.3539C0 11.5321 1.95283 10.1236 6.14427 8.8988C6.77934 8.71508 7.43028 9.0672 7.6208 9.66428C7.81132 10.2767 7.44616 10.9197 6.82697 11.0881C2.57202 12.3282 2.3815 13.3386 2.3815 13.3386C2.3815 13.7061 4.0168 15.3289 11.9869 16.7527C18.7345 17.9775 27.7365 18.6358 37.3102 18.6358C46.8838 18.6358 55.8859 17.9775 62.6335 16.768C70.6036 15.3442 72.2389 13.7061 72.2389 13.3539C72.2389 13.3539 72.1436 12.7415 69.9844 11.8536C69.3811 11.6086 69.0953 10.935 69.3493 10.3532C69.6033 9.77145 70.3019 9.49588 70.9052 9.74083C73.3979 10.7666 74.6045 11.9454 74.6045 13.3539C74.6045 15.4208 71.9372 16.5384 71.0481 16.9058C69.1429 17.7019 66.4597 18.4215 63.0463 19.0186C56.1875 20.2586 47.0426 20.9323 37.3102 20.9323Z" fill="#144D29"/>
<path d="M78.7959 30.1792C78.2879 30.1792 77.8274 29.873 77.6687 29.3831L72.3182 13.7212C72.1118 13.1241 72.4452 12.4658 73.0803 12.2668C73.6995 12.0678 74.3822 12.3893 74.5886 13.0017L79.939 28.6789C80.1454 29.276 79.812 29.9343 79.177 30.1333C79.0499 30.1639 78.9229 30.1792 78.7959 30.1792Z" fill="#144D29"/>
<path d="M11.1781 11.0268C10.5271 11.0268 9.98734 10.5062 9.98734 9.87855C9.98734 9.29677 9.49516 8.83748 8.90772 8.83748C8.30441 8.83748 7.82811 9.31208 7.82811 9.87855C7.82811 10.5062 7.2883 11.0268 6.63736 11.0268C5.98642 11.0268 5.44661 10.5062 5.44661 9.87855C5.44661 8.04137 7.00252 6.54102 8.90772 6.54102C10.8129 6.54102 12.3688 8.04137 12.3688 9.87855C12.3688 10.5062 11.829 11.0268 11.1781 11.0268Z" fill="#144D29"/>
<path d="M17.5755 8.40874C16.9245 8.40874 16.3847 7.8882 16.3847 7.2605C16.3847 6.67873 15.8925 6.21944 15.3051 6.21944C14.7018 6.21944 14.2255 6.69404 14.2255 7.2605C14.2255 7.8882 13.6857 8.40874 13.0347 8.40874C12.3838 8.40874 11.844 7.8882 11.844 7.2605C11.844 5.42333 13.3999 3.92297 15.3051 3.92297C17.2103 3.92297 18.7662 5.42333 18.7662 7.2605C18.7662 7.8882 18.2423 8.40874 17.5755 8.40874Z" fill="#144D29"/>
<path d="M22.1321 8.04143C21.4811 8.04143 20.9413 7.52089 20.9413 6.89319C20.9413 6.31142 20.4492 5.85213 19.8617 5.85213C19.2584 5.85213 18.7821 6.32673 18.7821 6.89319C18.7821 7.52089 18.2423 8.04143 17.5914 8.04143C16.9404 8.04143 16.4006 7.52089 16.4006 6.89319C16.4006 5.05602 17.9565 3.55566 19.8617 3.55566C21.7669 3.55566 23.3228 5.05602 23.3228 6.89319C23.3228 7.52089 22.7989 8.04143 22.1321 8.04143Z" fill="#144D29"/>
<path d="M26.6728 6.93901C26.0219 6.93901 25.4821 6.41848 25.4821 5.79078C25.4821 5.20901 24.9899 4.74971 24.4024 4.74971C23.7991 4.74971 23.3228 5.22432 23.3228 5.79078C23.3228 6.41848 22.783 6.93901 22.1321 6.93901C21.4811 6.93901 20.9413 6.41848 20.9413 5.79078C20.9413 3.9536 22.4972 2.45325 24.4024 2.45325C26.3076 2.45325 27.8636 3.9536 27.8636 5.79078C27.8636 6.41848 27.3396 6.93901 26.6728 6.93901Z" fill="#144D29"/>
<path d="M31.0548 8.07207C30.4038 8.07207 29.864 7.55153 29.864 6.92383C29.864 6.34206 29.3718 5.88277 28.7844 5.88277C28.1811 5.88277 27.7048 6.35737 27.7048 6.92383C27.7048 7.55153 27.165 8.07207 26.514 8.07207C25.8631 8.07207 25.3233 7.55153 25.3233 6.92383C25.3233 5.08666 26.8792 3.5863 28.7844 3.5863C30.6896 3.5863 32.2455 5.08666 32.2455 6.92383C32.2455 7.56684 31.7216 8.07207 31.0548 8.07207Z" fill="#144D29"/>
<path d="M13.3523 14.5634C12.7013 14.5634 12.1615 14.0429 12.1615 13.4152C12.1615 12.8334 11.6694 12.3741 11.0819 12.3741C10.4786 12.3741 10.0023 12.8487 10.0023 13.4152C10.0023 14.0429 9.4625 14.5634 8.81155 14.5634C8.16061 14.5634 7.6208 14.0429 7.6208 13.4152C7.6208 11.578 9.17672 10.0776 11.0819 10.0776C12.9871 10.0776 14.543 11.578 14.543 13.4152C14.543 14.0429 14.0191 14.5634 13.3523 14.5634Z" fill="#144D29"/>
<path d="M17.4485 13.8285C16.7975 13.8285 16.2577 13.308 16.2577 12.6803C16.2577 12.175 15.829 11.7617 15.3051 11.7617C14.7812 11.7617 14.3525 12.175 14.3525 12.6803C14.3525 13.308 13.8127 13.8285 13.1618 13.8285C12.5108 13.8285 11.971 13.308 11.971 12.6803C11.971 10.9043 13.4634 9.46521 15.3051 9.46521C17.1468 9.46521 18.6392 10.9043 18.6392 12.6803C18.6392 13.308 18.1153 13.8285 17.4485 13.8285Z" fill="#144D29"/>
<path d="M25.0058 14.4255C24.3548 14.4255 23.815 13.905 23.815 13.2773C23.815 12.7721 23.3864 12.3587 22.8624 12.3587C22.3385 12.3587 21.9098 12.7721 21.9098 13.2773C21.9098 13.905 21.37 14.4255 20.7191 14.4255C20.0681 14.4255 19.5283 13.905 19.5283 13.2773C19.5283 11.5014 21.0207 10.0623 22.8624 10.0623C24.7041 10.0623 26.1965 11.5014 26.1965 13.2773C26.1965 13.9203 25.6567 14.4255 25.0058 14.4255Z" fill="#144D29"/>
<path d="M21.3229 16.9517C20.672 16.9517 20.1322 16.4312 20.1322 15.8035C20.1322 15.1298 19.5606 14.5787 18.862 14.5787C18.1635 14.5787 17.5919 15.1298 17.5919 15.8035C17.5919 16.4312 17.0521 16.9517 16.4012 16.9517C15.7502 16.9517 15.2104 16.4312 15.2104 15.8035C15.2104 13.8591 16.8457 12.2822 18.862 12.2822C20.8784 12.2822 22.5137 13.8591 22.5137 15.8035C22.5137 16.4465 21.9897 16.9517 21.3229 16.9517Z" fill="#144D29"/>
<path d="M21.1008 12.6649C20.4498 12.6649 19.91 12.1444 19.91 11.5167C19.91 11.1339 19.5925 10.8277 19.1956 10.8277C18.7987 10.8277 18.4811 11.1339 18.4811 11.5167C18.4811 12.1444 17.9413 12.6649 17.2904 12.6649C16.6394 12.6649 16.0996 12.1444 16.0996 11.5167C16.0996 9.87851 17.4809 8.53125 19.1956 8.53125C20.8944 8.53125 22.2915 9.8632 22.2915 11.5167C22.2915 12.1597 21.7676 12.6649 21.1008 12.6649Z" fill="#144D29"/>
<path d="M29.3083 14.6552C28.6574 14.6552 28.1176 14.1346 28.1176 13.5069C28.1176 13.0017 27.6889 12.5883 27.165 12.5883C26.6411 12.5883 26.2124 13.0017 26.2124 13.5069C26.2124 14.1346 25.6726 14.6552 25.0216 14.6552C24.3707 14.6552 23.8309 14.1346 23.8309 13.5069C23.8309 11.731 25.3233 10.2919 27.165 10.2919C29.0067 10.2919 30.4991 11.731 30.4991 13.5069C30.4991 14.1499 29.9593 14.6552 29.3083 14.6552Z" fill="#144D29"/>
<path d="M36.8656 15.2676C36.2147 15.2676 35.6749 14.7471 35.6749 14.1194C35.6749 13.6141 35.2462 13.2008 34.7223 13.2008C34.1984 13.2008 33.7697 13.6141 33.7697 14.1194C33.7697 14.7471 33.2299 15.2676 32.5789 15.2676C31.928 15.2676 31.3882 14.7471 31.3882 14.1194C31.3882 12.3434 32.8806 10.9043 34.7223 10.9043C36.564 10.9043 38.0564 12.3434 38.0564 14.1194C38.0564 14.7471 37.5166 15.2676 36.8656 15.2676Z" fill="#144D29"/>
<path d="M33.1828 17.7784C32.5318 17.7784 31.992 17.2578 31.992 16.6301C31.992 15.9565 31.4205 15.4054 30.7219 15.4054C30.0233 15.4054 29.4518 15.9565 29.4518 16.6301C29.4518 17.2578 28.912 17.7784 28.261 17.7784C27.6101 17.7784 27.0703 17.2578 27.0703 16.6301C27.0703 14.6858 28.7056 13.1089 30.7219 13.1089C32.7382 13.1089 34.3735 14.6858 34.3735 16.6301C34.3735 17.2731 33.8337 17.7784 33.1828 17.7784Z" fill="#144D29"/>
<path d="M32.9607 13.5069C32.3097 13.5069 31.7699 12.9864 31.7699 12.3587C31.7699 11.976 31.4524 11.6698 31.0555 11.6698C30.6585 11.6698 30.341 11.976 30.341 12.3587C30.341 12.9864 29.8012 13.5069 29.1503 13.5069C28.4993 13.5069 27.9595 12.9864 27.9595 12.3587C27.9595 10.7206 29.3408 9.37329 31.0555 9.37329C32.7543 9.37329 34.1514 10.7052 34.1514 12.3587C34.1514 12.9864 33.6116 13.5069 32.9607 13.5069Z" fill="#144D29"/>
<path d="M46.0582 12.4506C45.4073 12.4506 44.8675 11.93 44.8675 11.3023C44.8675 10.7971 44.4388 10.3837 43.9149 10.3837C43.3909 10.3837 42.9623 10.7971 42.9623 11.3023C42.9623 11.93 42.4225 12.4506 41.7715 12.4506C41.1206 12.4506 40.5808 11.93 40.5808 11.3023C40.5808 9.5264 42.0732 8.08728 43.9149 8.08728C45.7566 8.08728 47.249 9.5264 47.249 11.3023C47.249 11.93 46.725 12.4506 46.0582 12.4506Z" fill="#144D29"/>
<path d="M53.6155 13.0476C52.9646 13.0476 52.4248 12.5271 52.4248 11.8994C52.4248 11.3942 51.9961 10.9808 51.4722 10.9808C50.9482 10.9808 50.5196 11.3942 50.5196 11.8994C50.5196 12.5271 49.9798 13.0476 49.3288 13.0476C48.6779 13.0476 48.1381 12.5271 48.1381 11.8994C48.1381 10.1234 49.6305 8.68433 51.4722 8.68433C53.3139 8.68433 54.8063 10.1234 54.8063 11.8994C54.8063 12.5424 54.2665 13.0476 53.6155 13.0476Z" fill="#144D29"/>
<path d="M49.9327 15.5737C49.2817 15.5737 48.7419 15.0531 48.7419 14.4254C48.7419 13.7518 48.1704 13.2006 47.4718 13.2006C46.7732 13.2006 46.2017 13.7518 46.2017 14.4254C46.2017 15.0531 45.6619 15.5737 45.0109 15.5737C44.36 15.5737 43.8202 15.0531 43.8202 14.4254C43.8202 12.4811 45.4555 10.9042 47.4718 10.9042C49.4881 10.9042 51.1234 12.4811 51.1234 14.4254C51.1234 15.0531 50.5995 15.5737 49.9327 15.5737Z" fill="#144D29"/>
<path d="M49.7105 11.2871C49.0596 11.2871 48.5198 10.7665 48.5198 10.1388C48.5198 9.7561 48.2023 9.44991 47.8053 9.44991C47.4084 9.44991 47.0909 9.7561 47.0909 10.1388C47.0909 10.7665 46.5511 11.2871 45.9001 11.2871C45.2492 11.2871 44.7094 10.7665 44.7094 10.1388C44.7094 8.5007 46.0907 7.15344 47.8053 7.15344C49.5042 7.15344 50.9013 8.48539 50.9013 10.1388C50.9013 10.7819 50.3774 11.2871 49.7105 11.2871Z" fill="#144D29"/>
<path d="M57.9499 13.2773C57.2989 13.2773 56.7591 12.7568 56.7591 12.1291C56.7591 11.6239 56.3304 11.2105 55.8065 11.2105C55.2826 11.2105 54.8539 11.6239 54.8539 12.1291C54.8539 12.7568 54.3141 13.2773 53.6632 13.2773C53.0122 13.2773 52.4724 12.7568 52.4724 12.1291C52.4724 10.3532 53.9648 8.91406 55.8065 8.91406C57.6482 8.91406 59.1406 10.3532 59.1406 12.1291C59.1406 12.7721 58.6008 13.2773 57.9499 13.2773Z" fill="#144D29"/>
<path d="M65.4913 13.8898C64.8403 13.8898 64.3005 13.3692 64.3005 12.7415C64.3005 12.2363 63.8719 11.823 63.3479 11.823C62.824 11.823 62.3953 12.2363 62.3953 12.7415C62.3953 13.3692 61.8555 13.8898 61.2046 13.8898C60.5536 13.8898 60.0138 13.3692 60.0138 12.7415C60.0138 10.9656 61.5062 9.52649 63.3479 9.52649C65.1896 9.52649 66.682 10.9656 66.682 12.7415C66.682 13.3692 66.1581 13.8898 65.4913 13.8898Z" fill="#144D29"/>
<path d="M61.8243 16.4158C61.1734 16.4158 60.6335 15.8953 60.6335 15.2676C60.6335 14.594 60.062 14.0428 59.3634 14.0428C58.6648 14.0428 58.0933 14.594 58.0933 15.2676C58.0933 15.8953 57.5535 16.4158 56.9025 16.4158C56.2516 16.4158 55.7118 15.8953 55.7118 15.2676C55.7118 13.3232 57.3471 11.7463 59.3634 11.7463C61.3798 11.7463 63.0151 13.3232 63.0151 15.2676C63.0151 15.8953 62.4752 16.4158 61.8243 16.4158Z" fill="#144D29"/>
<path d="M61.6022 12.1291C60.9512 12.1291 60.4114 11.6086 60.4114 10.9809C60.4114 10.5981 60.0939 10.2919 59.697 10.2919C59.3001 10.2919 58.9825 10.5981 58.9825 10.9809C58.9825 11.6086 58.4427 12.1291 57.7918 12.1291C57.1408 12.1291 56.601 11.6086 56.601 10.9809C56.601 9.34274 57.9823 7.99548 59.697 7.99548C61.3958 7.99548 62.7929 9.32743 62.7929 10.9809C62.7929 11.6086 62.2531 12.1291 61.6022 12.1291Z" fill="#144D29"/>
<path d="M35.3891 8.04144C34.7382 8.04144 34.1984 7.5209 34.1984 6.8932C34.1984 6.37267 33.7697 5.95931 33.2299 5.95931C32.6901 5.95931 32.2614 6.37267 32.2614 6.8932C32.2614 7.5209 31.7216 8.04144 31.0706 8.04144C30.4197 8.04144 29.8799 7.5209 29.8799 6.8932C29.8799 5.11727 31.3882 3.66284 33.2299 3.66284C35.0716 3.66284 36.5799 5.11727 36.5799 6.8932C36.5799 7.5209 36.04 8.04144 35.3891 8.04144Z" fill="#144D29"/>
<path d="M49.5035 5.74505C49.4082 5.74505 49.3129 5.72974 49.2177 5.71443C48.5826 5.56134 48.1857 4.94895 48.3445 4.33656C48.4715 3.83133 48.1539 3.32611 47.63 3.20363C47.376 3.14239 47.122 3.18832 46.8997 3.3108C46.6774 3.44859 46.5186 3.64762 46.4551 3.89257C46.2964 4.50496 45.6613 4.88771 45.0262 4.73461C44.3912 4.58151 43.9943 3.96912 44.153 3.35673C44.3594 2.51469 44.8992 1.81044 45.6613 1.35115C46.4234 0.907167 47.3284 0.769379 48.2016 0.968406C49.9956 1.38177 51.107 3.14239 50.6783 4.8724C50.5354 5.39293 50.0433 5.74505 49.5035 5.74505Z" fill="#144D29"/>
<path d="M41.5016 6.05114C40.8507 6.05114 40.3109 5.53061 40.3109 4.90291C40.3109 4.55078 40.0092 4.2599 39.6441 4.2599C39.2789 4.2599 38.9772 4.55078 38.9772 4.90291C38.9772 5.53061 38.4374 6.05114 37.7865 6.05114C37.1355 6.05114 36.5957 5.53061 36.5957 4.90291C36.5799 3.26476 37.9452 1.94812 39.6441 1.94812C41.327 1.94812 42.6924 3.26476 42.6924 4.8876C42.6924 5.53061 42.1684 6.05114 41.5016 6.05114Z" fill="#144D29"/>
<path d="M40.0092 9.58772C39.3583 9.58772 38.8185 9.06719 38.8185 8.43949C38.8185 7.73524 38.231 7.16878 37.5007 7.16878C36.7704 7.16878 36.1829 7.73524 36.1829 8.43949C36.1829 9.06719 35.6431 9.58772 34.9922 9.58772C34.3412 9.58772 33.8014 9.06719 33.8014 8.43949C33.8014 6.47984 35.4685 4.87231 37.5007 4.87231C39.5329 4.87231 41.2 6.47984 41.2 8.43949C41.2 9.0825 40.6602 9.58772 40.0092 9.58772Z" fill="#144D29"/>
<path d="M41.3429 17.2579C40.6919 17.2579 40.1521 16.7374 40.1521 16.1097C40.1521 15.4054 39.5647 14.8389 38.8343 14.8389C38.104 14.8389 37.5166 15.4054 37.5166 16.1097C37.5166 16.7374 36.9768 17.2579 36.3258 17.2579C35.6749 17.2579 35.1351 16.7374 35.1351 16.1097C35.1351 14.15 36.8021 12.5425 38.8343 12.5425C40.8666 12.5425 42.5336 14.15 42.5336 16.1097C42.5336 16.7374 42.0097 17.2579 41.3429 17.2579Z" fill="#144D29"/>
<path d="M46.995 9.41925C46.344 9.41925 45.8042 8.89872 45.8042 8.27102C45.8042 7.91889 45.5025 7.62801 45.1374 7.62801C44.7722 7.62801 44.4706 7.91889 44.4706 8.27102C44.4706 8.89872 43.9308 9.41925 43.2798 9.41925C42.6289 9.41925 42.0891 8.89872 42.0891 8.27102C42.0891 6.64818 43.4545 5.33154 45.1374 5.33154C46.8203 5.33154 48.1857 6.64818 48.1857 8.27102C48.1857 8.89872 47.6618 9.41925 46.995 9.41925Z" fill="#144D29"/>
<path d="M53.0122 6.89325C52.3613 6.89325 51.8215 6.37272 51.8215 5.74502C51.8215 5.39289 51.5198 5.10201 51.1546 5.10201C50.7895 5.10201 50.4878 5.39289 50.4878 5.74502C50.4878 6.37272 49.948 6.89325 49.2971 6.89325C48.6461 6.89325 48.1063 6.37272 48.1063 5.74502C48.1063 4.12218 49.4717 2.80554 51.1546 2.80554C52.8376 2.80554 54.203 4.12218 54.203 5.74502C54.203 6.37272 53.679 6.89325 53.0122 6.89325Z" fill="#144D29"/>
<path d="M59.4105 7.81171C58.7596 7.81171 58.2198 7.29118 58.2198 6.66347C58.2198 6.31135 57.9181 6.02046 57.5529 6.02046C57.1878 6.02046 56.8861 6.31135 56.8861 6.66347C56.8861 7.29118 56.3463 7.81171 55.6954 7.81171C55.0444 7.81171 54.5046 7.29118 54.5046 6.66347C54.5046 5.04064 55.87 3.724 57.5529 3.724C59.2359 3.724 60.6013 5.04064 60.6013 6.66347C60.6013 7.29118 60.0773 7.81171 59.4105 7.81171Z" fill="#144D29"/>
<path d="M64.9356 10.2919C64.2847 10.2919 63.7448 9.7714 63.7448 9.1437C63.7448 8.79157 63.4432 8.50069 63.078 8.50069C62.7129 8.50069 62.4112 8.79157 62.4112 9.1437C62.4112 9.7714 61.8714 10.2919 61.2205 10.2919C60.5695 10.2919 60.0297 9.7714 60.0297 9.1437C60.0297 7.52086 61.3951 6.20422 63.078 6.20422C64.761 6.20422 66.1263 7.52086 66.1263 9.1437C66.1263 9.78671 65.5865 10.2919 64.9356 10.2919Z" fill="#144D29"/>
<path d="M68.0157 13.5835C66.3327 13.5835 64.9673 12.2669 64.9673 10.6441C64.9673 9.02123 66.3327 7.70459 68.0157 7.70459C69.6986 7.70459 71.064 9.02123 71.064 10.6441C71.064 12.2669 69.6986 13.5835 68.0157 13.5835ZM68.0157 9.98575C67.6505 9.98575 67.3488 10.2766 67.3488 10.6288C67.3488 10.9809 67.6505 11.2718 68.0157 11.2718C68.3808 11.2718 68.6825 10.9809 68.6825 10.6288C68.6825 10.2766 68.3808 9.98575 68.0157 9.98575Z" fill="#144D29"/>
</svg>
