<svg width="77" height="64" viewBox="0 0 77 64" fill="none" xmlns="http://www.w3.org/2000/svg">
<path d="M73.0583 0C70.8583 0 69.1167 1.83908 69.1167 3.95402H7.975C7.975 1.83908 6.14167 0 3.94167 0C1.74167 0 0 1.83908 0 3.95402V59.954C0 62.1609 1.74167 63.908 3.94167 63.908C6.14167 63.908 7.88333 62.069 7.88333 59.954V11.954H11.9167V41.4713C10.3583 42.023 9.25833 43.4943 9.25833 45.2414C9.25833 47.4483 11.0917 49.1954 13.2 49.1954H26.5833C28.7833 49.1954 30.525 47.3563 30.525 45.2414C30.525 43.4943 29.425 42.023 27.8667 41.4713V11.954H49.1333V41.4713C47.575 42.023 46.475 43.4943 46.475 45.2414C46.475 47.4483 48.2167 49.1954 50.4167 49.1954H63.7083C65.9083 49.1954 67.65 47.3563 67.65 45.2414C67.65 43.4943 66.55 42.023 64.9917 41.4713V11.954H68.9333V59.954C68.9333 62.1609 70.7667 63.908 72.875 63.908C75.075 63.908 76.8167 62.069 76.8167 59.954V3.95402C77 1.83908 75.2583 0 73.0583 0ZM5.31667 59.954C5.31667 60.6897 4.76667 61.2414 4.03333 61.2414C3.3 61.2414 2.75 60.6897 2.75 59.954V3.95402C2.75 3.21839 3.39167 2.66667 4.03333 2.66667C4.76667 2.66667 5.31667 3.21839 5.31667 3.95402V59.954ZM26.5833 46.6207H13.2917C12.5583 46.6207 12.0083 46.069 12.0083 45.3333C12.0083 45.0575 12.1 44.8736 12.1917 44.6897C12.4667 45.0575 12.8333 45.3333 13.2917 45.3333C14.025 45.3333 14.575 44.7816 14.575 44.046H25.2083C25.2083 44.7816 25.7583 45.3333 26.4917 45.3333C26.95 45.3333 27.4083 45.0575 27.5917 44.6897C27.6833 44.8736 27.775 45.1494 27.775 45.3333C27.8667 46.069 27.3167 46.6207 26.5833 46.6207ZM25.2083 41.2874H14.575V11.954H25.2083V41.2874ZM63.8 46.6207H50.5083C49.775 46.6207 49.225 46.069 49.225 45.3333C49.225 45.0575 49.3167 44.8736 49.4083 44.6897C49.6833 45.0575 50.05 45.3333 50.5083 45.3333C51.2417 45.3333 51.7917 44.7816 51.7917 44.046H62.425C62.425 44.7816 62.975 45.3333 63.7083 45.3333C64.1667 45.3333 64.625 45.0575 64.8083 44.6897C64.9 44.8736 64.9917 45.1494 64.9917 45.3333C65.0833 46.069 64.5333 46.6207 63.8 46.6207ZM62.425 41.2874H51.7917V11.954H62.425V41.2874ZM7.975 9.28736V6.62069H69.1167V9.28736H7.975ZM74.3417 59.954C74.3417 60.6897 73.7 61.2414 73.0583 61.2414C72.325 61.2414 71.775 60.6897 71.775 59.954V3.95402C71.775 3.21839 72.325 2.66667 73.0583 2.66667C73.7917 2.66667 74.3417 3.21839 74.3417 3.95402V59.954Z" fill="#144D29"/>
</svg>
