<svg width="88" height="32" viewBox="0 0 88 32" fill="none" xmlns="http://www.w3.org/2000/svg">
<path d="M86.5954 16.9159C85.7982 15.0221 83.4066 14.5237 81.2143 14.125C79.1217 13.7263 76.8297 13.3276 74.8367 12.0318C73.342 11.0351 71.4487 10.5367 69.655 10.437L71.1497 8.24414L72.3455 9.04155C72.5448 9.2409 72.8438 9.2409 73.1427 9.2409C73.641 9.2409 74.0396 9.04155 74.3385 8.54317C74.7371 7.84544 74.5378 6.94835 73.9399 6.54965L71.5483 4.95483L69.1567 3.36002C68.4592 2.96131 67.5623 3.16067 67.1637 3.75872C66.7651 4.45645 66.9644 5.35354 67.5623 5.75224L68.7581 6.54965L66.1672 10.2377C64.7722 10.2377 63.3771 10.3373 61.7827 10.437C59.989 10.5367 58.1953 10.6364 56.3019 10.6364L53.3125 3.65904L54.6079 3.06099C55.3055 2.76196 55.704 1.86488 55.4051 1.16715C55.1062 0.469414 54.2093 0.0707103 53.5118 0.369738L48.2303 2.66229C47.5328 2.96131 47.1342 3.8584 47.4331 4.55613C47.6324 5.05451 48.2303 5.45321 48.7286 5.45321C48.9279 5.45321 49.1272 5.45321 49.3265 5.35354L50.6219 4.75548L53.1132 10.6364C51.4191 10.5367 49.7251 10.437 48.2303 10.2377C46.5363 10.0383 45.1412 9.83895 43.8458 9.83895C40.9559 9.83895 39.3615 10.437 37.7671 11.0351C36.1728 11.6331 34.678 12.1315 31.6885 12.1315C30.3931 12.1315 28.8983 12.0318 27.1047 11.8325C25.7096 11.6331 24.2148 11.5334 22.7201 11.5334C11.5593 11.5334 3.78668 16.7166 3.38808 16.9159H1.39509C0.597897 16.9159 0 17.514 0 18.3114V29.8738C0 30.6712 0.597897 31.2693 1.39509 31.2693H86.5954C87.3926 31.2693 87.9905 30.6712 87.9905 29.8738V18.3114C88.0901 17.514 87.3926 16.9159 86.5954 16.9159ZM22.8197 14.424C24.1152 14.424 25.5103 14.5237 26.8057 14.6234C28.699 14.8228 30.2934 14.9224 31.6885 14.9224C35.1763 14.9224 37.0696 14.2247 38.7636 13.6266C40.2584 13.1283 41.5538 12.6299 43.8458 12.6299C44.9419 12.6299 46.2374 12.7296 47.8317 12.9289C50.2233 13.2279 52.7146 13.4273 55.5048 13.4273C57.7967 13.4273 59.8893 13.3276 61.982 13.2279C62.7792 13.2279 63.5764 13.1283 64.2739 13.1283L63.8753 13.7263C63.4767 14.424 63.676 15.3211 64.2739 15.7198C64.4732 15.9192 64.7722 15.9192 65.0711 15.9192C65.5694 15.9192 65.9679 15.7198 66.2669 15.2215L67.7616 13.0286C70.3525 13.1283 72.0466 13.527 73.2424 14.3244C75.5343 15.8195 78.1252 16.4176 80.2178 16.8163H10.0646C13.1537 15.6202 17.638 14.424 22.8197 14.424ZM85.2003 28.4784H2.88983V19.8066H85.2003V28.4784Z" fill="#144D29"/>
</svg>
