<svg width="78" height="62" viewBox="0 0 78 62" fill="none" xmlns="http://www.w3.org/2000/svg">
<mask id="path-1-outside-1" maskUnits="userSpaceOnUse" x="0" y="-0.536133" width="78" height="63" fill="black">
<rect fill="white" y="-0.536133" width="78" height="63"/>
<path d="M76.4778 23.3857C76.3078 23.1562 76.0892 22.963 75.8341 22.8301C75.5791 22.6852 75.2755 22.6007 74.9597 22.6007H74.3525V13.0841C74.3525 12.4199 74.0853 11.8161 73.6481 11.3813C73.2109 10.9465 72.6037 10.6809 71.9358 10.6809H61.868V7.43219C61.868 6.97327 61.4915 6.59889 61.03 6.59889C60.5686 6.59889 60.1921 6.97327 60.1921 7.43219V10.6688H47.1732V8.74856C47.3311 8.68818 47.4768 8.62779 47.6104 8.54326C47.7926 8.42249 47.9626 8.26549 48.0962 8.06018C48.2298 7.85488 48.3148 7.58919 48.3148 7.31142V2.05801C48.3148 1.78024 48.2298 1.51455 48.0962 1.30924C47.8897 0.995247 47.6104 0.802018 47.319 0.669173C47.0275 0.536328 46.6874 0.463867 46.3353 0.463867C45.8616 0.463867 45.4366 0.584635 45.0601 0.826172C44.8779 0.94694 44.7079 1.10394 44.5743 1.30924C44.4407 1.51455 44.3557 1.78024 44.3557 2.05801V7.31142C44.3557 7.58919 44.4407 7.85488 44.5743 8.06018C44.7808 8.37418 45.0601 8.56741 45.3516 8.70025C45.4001 8.72441 45.4487 8.73649 45.4973 8.76064V10.6809H32.5027V7.43219C32.5027 6.97327 32.1262 6.59889 31.6647 6.59889C31.2033 6.59889 30.8268 6.97327 30.8268 7.43219V10.6688H17.8201V8.74856C17.9779 8.68818 18.1237 8.62779 18.2573 8.54326C18.4394 8.42249 18.6095 8.26549 18.743 8.06018C18.8766 7.85488 18.9616 7.58919 18.9616 7.31142V2.05801C18.9616 1.78024 18.8766 1.51455 18.743 1.30924C18.5366 0.995247 18.2573 0.802018 17.9658 0.669173C17.6622 0.536328 17.3343 0.463867 16.9821 0.463867C16.5085 0.463867 16.0834 0.584635 15.7069 0.826172C15.5248 0.94694 15.3547 1.10394 15.2212 1.30924C15.0876 1.51455 15.0026 1.78024 15.0026 2.05801V7.31142C15.0026 7.58919 15.0876 7.85488 15.2212 8.06018C15.4276 8.37418 15.7069 8.56741 15.9984 8.70025C16.047 8.72441 16.0956 8.73649 16.1441 8.76064V10.6809H6.07638C5.40844 10.6809 4.80121 10.9465 4.36401 11.3813C3.92681 11.8161 3.65964 12.4199 3.65964 13.0841V22.6007H3.05241C2.73666 22.6007 2.43305 22.6852 2.17801 22.8301C1.78939 23.0475 1.49792 23.3736 1.30361 23.748C1.1093 24.1223 1 24.5571 1 25.016V36.8996C1 37.5035 1.18217 38.0711 1.52221 38.5179C1.69223 38.7474 1.91083 38.9406 2.16587 39.0734C2.4209 39.2184 2.72451 39.3029 3.04027 39.3029H3.64749V48.8194C3.64749 49.4837 3.91467 50.0875 4.35187 50.5223C4.78907 50.957 5.39629 51.2227 6.06424 51.2227H16.132V54.4593C16.132 54.9182 16.5085 55.2926 16.97 55.2926C17.4314 55.2926 17.8079 54.9182 17.8079 54.4593V51.2227H30.8146V53.1429C30.6568 53.2033 30.511 53.2637 30.3774 53.3603C30.1953 53.4811 30.0252 53.6381 29.8917 53.8434C29.7581 54.0487 29.6731 54.3144 29.6731 54.5922V59.8456C29.6731 60.1233 29.7581 60.389 29.8917 60.5943C30.0981 60.9083 30.3774 61.1016 30.6689 61.2344C30.9725 61.3672 31.3004 61.4397 31.6526 61.4397C32.1262 61.4397 32.5513 61.3189 32.9278 61.0774C33.1099 60.9566 33.28 60.7996 33.4136 60.5943C33.5471 60.389 33.6322 60.1233 33.6322 59.8456V54.568C33.6322 54.2902 33.5471 54.0245 33.4136 53.8192C33.2071 53.5052 32.9278 53.312 32.6363 53.1792C32.5877 53.155 32.5391 53.1429 32.4906 53.1188V51.1986H45.4973V54.4352C45.4973 54.8941 45.8738 55.2685 46.3353 55.2685C46.7967 55.2685 47.1732 54.8941 47.1732 54.4352V51.1986H60.1799V53.1188C60.0221 53.1792 59.8763 53.2395 59.7427 53.3362C59.5606 53.4569 59.3905 53.6139 59.257 53.8192C59.1234 54.0245 59.0384 54.2902 59.0384 54.568V59.8214C59.0384 60.0992 59.1234 60.3649 59.257 60.5702C59.4634 60.8842 59.7427 61.0774 60.0342 61.2102C60.3378 61.3431 60.6657 61.4156 61.0179 61.4156C61.4915 61.4156 61.9166 61.2948 62.2931 61.0532C62.4752 60.9325 62.6453 60.7755 62.7788 60.5702C62.9124 60.3649 62.9974 60.0992 62.9974 59.8214V54.568C62.9974 54.2902 62.9124 54.0245 62.7788 53.8192C62.5724 53.5052 62.2931 53.312 62.0016 53.1792C61.953 53.155 61.9044 53.1429 61.8559 53.1188V51.1986H71.9236C72.5916 51.1986 73.1988 50.9329 73.636 50.4981C74.0732 50.0633 74.3404 49.4595 74.3404 48.7953V39.2788H74.9476C75.2633 39.2788 75.567 39.1942 75.822 39.0493C76.2106 38.8319 76.5021 38.5058 76.6964 38.1315C76.8907 37.7571 77 37.3223 77 36.8634V24.9798C77 24.388 76.8178 23.8325 76.4778 23.3857ZM46.651 7.1665C46.6389 7.17858 46.6267 7.17858 46.6024 7.19065C46.5417 7.21481 46.4445 7.22688 46.3353 7.22688C46.2017 7.22688 46.0924 7.19065 46.0195 7.1665V2.19085C46.0316 2.17877 46.0438 2.17877 46.0681 2.1667C46.1288 2.14254 46.2259 2.13047 46.3353 2.13047C46.4688 2.13047 46.5903 2.1667 46.651 2.19085V7.1665ZM17.2979 7.1665C17.2857 7.17858 17.2736 7.17858 17.2493 7.19065C17.1886 7.21481 17.0914 7.22688 16.9821 7.22688C16.8485 7.22688 16.7271 7.19065 16.6663 7.1665V2.19085C16.6785 2.17877 16.6906 2.17877 16.7149 2.1667C16.7756 2.14254 16.8728 2.13047 16.9821 2.13047C17.1157 2.13047 17.2371 2.1667 17.2979 2.19085V7.1665ZM31.349 54.7129C31.3611 54.7008 31.3733 54.7008 31.3976 54.6888C31.4583 54.6646 31.5555 54.6525 31.6647 54.6525C31.7983 54.6525 31.9198 54.6888 31.9805 54.7129V59.6886C31.9684 59.7006 31.9562 59.7006 31.9319 59.7127C31.8712 59.7369 31.774 59.749 31.6647 59.749C31.5312 59.749 31.4097 59.7127 31.349 59.6886V54.7129ZM60.7021 54.7129C60.7143 54.7008 60.7264 54.7008 60.7507 54.6888C60.8114 54.6646 60.9086 54.6525 61.0179 54.6525C61.1515 54.6525 61.2729 54.6888 61.3337 54.7129V59.6886C61.3215 59.7006 61.3094 59.7006 61.2851 59.7127C61.2244 59.7369 61.1272 59.749 61.0179 59.749C60.8843 59.749 60.775 59.7127 60.7021 59.6886V54.7129ZM75.3241 36.8875C75.3241 37.1532 75.2391 37.3706 75.1419 37.4914C75.0933 37.5518 75.0447 37.588 75.0205 37.6001C74.984 37.6122 74.9719 37.6242 74.9597 37.6242H72.3487V24.2552H74.9597C74.9719 24.2552 74.9962 24.2552 75.0205 24.2793C75.069 24.3035 75.1419 24.376 75.2148 24.4967C75.2755 24.6175 75.3241 24.7987 75.3241 24.9919V36.8875ZM2.78523 37.3827C2.72451 37.2619 2.67593 37.0808 2.67593 36.8875V25.004C2.67593 24.7383 2.76095 24.5209 2.8581 24.4001C2.90668 24.3397 2.95526 24.3035 2.97955 24.2914C3.01598 24.2793 3.02812 24.2673 3.04027 24.2673H5.65133V37.6363H3.04027C3.02812 37.6363 3.00383 37.6363 2.97955 37.6122C2.93097 37.5759 2.8581 37.5155 2.78523 37.3827ZM6.07638 49.544C5.86993 49.544 5.68776 49.4595 5.55417 49.3267C5.42058 49.1938 5.33557 49.0127 5.33557 48.8074V39.2908H6.50144C6.72004 39.2908 6.93864 39.2063 7.09652 39.0493C7.25439 38.8923 7.33941 38.6749 7.33941 38.4575V23.4219C7.33941 23.2045 7.25439 22.9871 7.09652 22.8301C6.93864 22.6731 6.72004 22.5886 6.50144 22.5886H5.33557V13.0721C5.33557 12.8668 5.42058 12.6856 5.55417 12.5528C5.68776 12.4199 5.86993 12.3354 6.07638 12.3354H16.1441V27.8541C15.5976 27.999 15.0997 28.2889 14.7111 28.6753C14.1282 29.255 13.7638 30.0521 13.7638 30.9337C13.7638 31.8153 14.1282 32.6124 14.7111 33.192C15.0997 33.5785 15.5976 33.8683 16.1441 34.0133V49.532H6.07638V49.544ZM16.9821 29.412C17.4072 29.412 17.7836 29.5811 18.0751 29.8588C18.3544 30.1366 18.5245 30.511 18.5245 30.9457C18.5245 31.3684 18.3544 31.7428 18.0751 32.0327C17.7958 32.3104 17.4193 32.4795 16.9821 32.4795C16.557 32.4795 16.1806 32.3104 15.8891 32.0327C15.6098 31.7549 15.4398 31.3805 15.4398 30.9457C15.4398 30.5231 15.6098 30.1487 15.8891 29.8588C16.1806 29.5811 16.557 29.412 16.9821 29.412ZM17.8201 49.544V34.0253C18.3666 33.8804 18.8645 33.5906 19.2531 33.2041C19.8361 32.6244 20.2004 31.8274 20.2004 30.9457C20.2004 30.0641 19.8361 29.255 19.2531 28.6874C18.8645 28.3009 18.3666 28.0111 17.8201 27.8662V12.3354H30.8268V20.8978C30.2803 21.0428 29.7824 21.3326 29.3937 21.7191C28.8108 22.2987 28.4465 23.0958 28.4465 23.9774C28.4465 24.859 28.8108 25.6682 29.3937 26.2358C29.7824 26.6222 30.2803 26.9121 30.8268 27.057V34.8103C30.2803 34.9552 29.7824 35.2451 29.3937 35.6316C28.8108 36.2112 28.4465 37.0083 28.4465 37.8899C28.4465 38.7715 28.8108 39.5686 29.3937 40.1483C29.7824 40.5347 30.2803 40.8246 30.8268 40.9695V49.532H17.8201V49.544ZM31.6647 36.3682C32.0898 36.3682 32.4663 36.5373 32.7578 36.8151C33.0371 37.0928 33.2071 37.4672 33.2071 37.902C33.2071 38.3247 33.0371 38.6991 32.7578 38.9889C32.4784 39.2667 32.1019 39.4358 31.6647 39.4358C31.2397 39.4358 30.8632 39.2667 30.5717 38.9889C30.2924 38.7111 30.1224 38.3368 30.1224 37.902C30.1224 37.4793 30.2924 37.1049 30.5717 36.8151C30.8511 36.5373 31.2397 36.3682 31.6647 36.3682ZM31.6647 22.4437C32.0898 22.4437 32.4663 22.6127 32.7578 22.8905C33.0371 23.1683 33.2071 23.5427 33.2071 23.9774C33.2071 24.4001 33.0371 24.7745 32.7578 25.0643C32.4784 25.3421 32.1019 25.5112 31.6647 25.5112C31.2397 25.5112 30.8632 25.3421 30.5717 25.0643C30.2924 24.7866 30.1224 24.4122 30.1224 23.9774C30.1224 23.5547 30.2924 23.1804 30.5717 22.8905C30.8511 22.6248 31.2397 22.4557 31.6647 22.4437ZM32.5027 49.544V40.9816C33.0492 40.8367 33.5471 40.5468 33.9358 40.1604C34.5187 39.5807 34.883 38.7836 34.883 37.902C34.883 37.0204 34.5187 36.2112 33.9358 35.6436C33.5471 35.2572 33.0492 34.9673 32.5027 34.8224V27.0691C33.0492 26.9242 33.5471 26.6343 33.9358 26.2479C34.5187 25.6682 34.883 24.8711 34.883 23.9895C34.883 23.1079 34.5187 22.2987 33.9358 21.7311C33.5471 21.3447 33.0492 21.0548 32.5027 20.9099V12.3354H45.5094V20.8978C44.9629 21.0428 44.465 21.3326 44.0764 21.7191C43.4935 22.2987 43.1291 23.0958 43.1291 23.9774C43.1291 24.859 43.4935 25.6561 44.0764 26.2358C44.465 26.6222 44.9629 26.9121 45.5094 27.057V34.8103C44.9629 34.9552 44.465 35.2451 44.0764 35.6316C43.4935 36.2112 43.1291 37.0083 43.1291 37.8899C43.1291 38.7715 43.4935 39.5807 44.0764 40.1483C44.465 40.5347 44.9629 40.8246 45.5094 40.9695V49.532H32.5027V49.544ZM46.3353 36.3682C46.7603 36.3682 47.1368 36.5373 47.4282 36.8151C47.7076 37.0928 47.8776 37.4672 47.8776 37.902C47.8776 38.3247 47.7076 38.6991 47.4282 38.9889C47.1489 39.2667 46.7724 39.4358 46.3353 39.4358C45.9102 39.4358 45.5337 39.2667 45.2422 38.9889C44.9629 38.7111 44.7929 38.3368 44.7929 37.902C44.7929 37.4793 44.9629 37.1049 45.2422 36.8151C45.5337 36.5373 45.9102 36.3682 46.3353 36.3682ZM46.3353 22.4437C46.7603 22.4437 47.1368 22.6127 47.4282 22.8905C47.7076 23.1683 47.8776 23.5427 47.8776 23.9774C47.8776 24.4001 47.7076 24.7745 47.4282 25.0643C47.1489 25.3421 46.7724 25.5112 46.3353 25.5112C45.9102 25.5112 45.5337 25.3421 45.2422 25.0643C44.9629 24.7866 44.7929 24.4122 44.7929 23.9774C44.7929 23.5547 44.9629 23.1804 45.2422 22.8905C45.5337 22.6248 45.9102 22.4557 46.3353 22.4437ZM47.1732 49.544V40.9816C47.7197 40.8367 48.2176 40.5468 48.6063 40.1604C49.1892 39.5807 49.5535 38.7836 49.5535 37.902C49.5535 37.0204 49.1892 36.2112 48.6063 35.6436C48.2176 35.2572 47.7197 34.9673 47.1732 34.8224V27.0691C47.7197 26.9242 48.2176 26.6343 48.6063 26.2479C49.1892 25.6682 49.5535 24.8711 49.5535 23.9895C49.5535 23.1079 49.1892 22.2987 48.6063 21.7311C48.2176 21.3447 47.7197 21.0548 47.1732 20.9099V12.3354H60.1799V27.8541C59.6334 27.999 59.1355 28.2889 58.7469 28.6753C58.164 29.255 57.7996 30.0521 57.7996 30.9337C57.7996 31.8153 58.164 32.6124 58.7469 33.192C59.1355 33.5785 59.6334 33.8683 60.1799 34.0133V49.532H47.1732V49.544ZM61.0179 29.412C61.443 29.412 61.8194 29.5811 62.1109 29.8588C62.3902 30.1366 62.5602 30.511 62.5602 30.9457C62.5602 31.3684 62.3902 31.7428 62.1109 32.0327C61.8316 32.3104 61.4551 32.4795 61.0179 32.4795C60.5928 32.4795 60.2164 32.3104 59.9249 32.0327C59.6456 31.7549 59.4756 31.3805 59.4756 30.9457C59.4756 30.5231 59.6456 30.1487 59.9249 29.8588C60.2164 29.5811 60.5928 29.412 61.0179 29.412ZM72.6766 48.8074C72.6766 49.0127 72.5916 49.1938 72.458 49.3267C72.3244 49.4595 72.1422 49.544 71.9358 49.544H61.868V34.0253C62.4145 33.8804 62.9124 33.5906 63.3011 33.2041C63.884 32.6244 64.2483 31.8274 64.2483 30.9457C64.2483 30.0641 63.884 29.255 63.3011 28.6874C62.9124 28.3009 62.4145 28.0111 61.868 27.8662V12.3354H71.9236C72.1301 12.3354 72.3122 12.4199 72.4458 12.5528C72.5794 12.6856 72.6644 12.8668 72.6644 13.0721V22.5886H71.4986C71.28 22.5886 71.0614 22.6731 70.9035 22.8301C70.7456 22.9871 70.6606 23.2045 70.6606 23.4219V38.4575C70.6606 38.6749 70.7456 38.8923 70.9035 39.0493C71.0614 39.2063 71.28 39.2908 71.4986 39.2908H72.6644V48.8074H72.6766Z"/>
</mask>
<path d="M76.4778 23.3857C76.3078 23.1562 76.0892 22.963 75.8341 22.8301C75.5791 22.6852 75.2755 22.6007 74.9597 22.6007H74.3525V13.0841C74.3525 12.4199 74.0853 11.8161 73.6481 11.3813C73.2109 10.9465 72.6037 10.6809 71.9358 10.6809H61.868V7.43219C61.868 6.97327 61.4915 6.59889 61.03 6.59889C60.5686 6.59889 60.1921 6.97327 60.1921 7.43219V10.6688H47.1732V8.74856C47.3311 8.68818 47.4768 8.62779 47.6104 8.54326C47.7926 8.42249 47.9626 8.26549 48.0962 8.06018C48.2298 7.85488 48.3148 7.58919 48.3148 7.31142V2.05801C48.3148 1.78024 48.2298 1.51455 48.0962 1.30924C47.8897 0.995247 47.6104 0.802018 47.319 0.669173C47.0275 0.536328 46.6874 0.463867 46.3353 0.463867C45.8616 0.463867 45.4366 0.584635 45.0601 0.826172C44.8779 0.94694 44.7079 1.10394 44.5743 1.30924C44.4407 1.51455 44.3557 1.78024 44.3557 2.05801V7.31142C44.3557 7.58919 44.4407 7.85488 44.5743 8.06018C44.7808 8.37418 45.0601 8.56741 45.3516 8.70025C45.4001 8.72441 45.4487 8.73649 45.4973 8.76064V10.6809H32.5027V7.43219C32.5027 6.97327 32.1262 6.59889 31.6647 6.59889C31.2033 6.59889 30.8268 6.97327 30.8268 7.43219V10.6688H17.8201V8.74856C17.9779 8.68818 18.1237 8.62779 18.2573 8.54326C18.4394 8.42249 18.6095 8.26549 18.743 8.06018C18.8766 7.85488 18.9616 7.58919 18.9616 7.31142V2.05801C18.9616 1.78024 18.8766 1.51455 18.743 1.30924C18.5366 0.995247 18.2573 0.802018 17.9658 0.669173C17.6622 0.536328 17.3343 0.463867 16.9821 0.463867C16.5085 0.463867 16.0834 0.584635 15.7069 0.826172C15.5248 0.94694 15.3547 1.10394 15.2212 1.30924C15.0876 1.51455 15.0026 1.78024 15.0026 2.05801V7.31142C15.0026 7.58919 15.0876 7.85488 15.2212 8.06018C15.4276 8.37418 15.7069 8.56741 15.9984 8.70025C16.047 8.72441 16.0956 8.73649 16.1441 8.76064V10.6809H6.07638C5.40844 10.6809 4.80121 10.9465 4.36401 11.3813C3.92681 11.8161 3.65964 12.4199 3.65964 13.0841V22.6007H3.05241C2.73666 22.6007 2.43305 22.6852 2.17801 22.8301C1.78939 23.0475 1.49792 23.3736 1.30361 23.748C1.1093 24.1223 1 24.5571 1 25.016V36.8996C1 37.5035 1.18217 38.0711 1.52221 38.5179C1.69223 38.7474 1.91083 38.9406 2.16587 39.0734C2.4209 39.2184 2.72451 39.3029 3.04027 39.3029H3.64749V48.8194C3.64749 49.4837 3.91467 50.0875 4.35187 50.5223C4.78907 50.957 5.39629 51.2227 6.06424 51.2227H16.132V54.4593C16.132 54.9182 16.5085 55.2926 16.97 55.2926C17.4314 55.2926 17.8079 54.9182 17.8079 54.4593V51.2227H30.8146V53.1429C30.6568 53.2033 30.511 53.2637 30.3774 53.3603C30.1953 53.4811 30.0252 53.6381 29.8917 53.8434C29.7581 54.0487 29.6731 54.3144 29.6731 54.5922V59.8456C29.6731 60.1233 29.7581 60.389 29.8917 60.5943C30.0981 60.9083 30.3774 61.1016 30.6689 61.2344C30.9725 61.3672 31.3004 61.4397 31.6526 61.4397C32.1262 61.4397 32.5513 61.3189 32.9278 61.0774C33.1099 60.9566 33.28 60.7996 33.4136 60.5943C33.5471 60.389 33.6322 60.1233 33.6322 59.8456V54.568C33.6322 54.2902 33.5471 54.0245 33.4136 53.8192C33.2071 53.5052 32.9278 53.312 32.6363 53.1792C32.5877 53.155 32.5391 53.1429 32.4906 53.1188V51.1986H45.4973V54.4352C45.4973 54.8941 45.8738 55.2685 46.3353 55.2685C46.7967 55.2685 47.1732 54.8941 47.1732 54.4352V51.1986H60.1799V53.1188C60.0221 53.1792 59.8763 53.2395 59.7427 53.3362C59.5606 53.4569 59.3905 53.6139 59.257 53.8192C59.1234 54.0245 59.0384 54.2902 59.0384 54.568V59.8214C59.0384 60.0992 59.1234 60.3649 59.257 60.5702C59.4634 60.8842 59.7427 61.0774 60.0342 61.2102C60.3378 61.3431 60.6657 61.4156 61.0179 61.4156C61.4915 61.4156 61.9166 61.2948 62.2931 61.0532C62.4752 60.9325 62.6453 60.7755 62.7788 60.5702C62.9124 60.3649 62.9974 60.0992 62.9974 59.8214V54.568C62.9974 54.2902 62.9124 54.0245 62.7788 53.8192C62.5724 53.5052 62.2931 53.312 62.0016 53.1792C61.953 53.155 61.9044 53.1429 61.8559 53.1188V51.1986H71.9236C72.5916 51.1986 73.1988 50.9329 73.636 50.4981C74.0732 50.0633 74.3404 49.4595 74.3404 48.7953V39.2788H74.9476C75.2633 39.2788 75.567 39.1942 75.822 39.0493C76.2106 38.8319 76.5021 38.5058 76.6964 38.1315C76.8907 37.7571 77 37.3223 77 36.8634V24.9798C77 24.388 76.8178 23.8325 76.4778 23.3857ZM46.651 7.1665C46.6389 7.17858 46.6267 7.17858 46.6024 7.19065C46.5417 7.21481 46.4445 7.22688 46.3353 7.22688C46.2017 7.22688 46.0924 7.19065 46.0195 7.1665V2.19085C46.0316 2.17877 46.0438 2.17877 46.0681 2.1667C46.1288 2.14254 46.2259 2.13047 46.3353 2.13047C46.4688 2.13047 46.5903 2.1667 46.651 2.19085V7.1665ZM17.2979 7.1665C17.2857 7.17858 17.2736 7.17858 17.2493 7.19065C17.1886 7.21481 17.0914 7.22688 16.9821 7.22688C16.8485 7.22688 16.7271 7.19065 16.6663 7.1665V2.19085C16.6785 2.17877 16.6906 2.17877 16.7149 2.1667C16.7756 2.14254 16.8728 2.13047 16.9821 2.13047C17.1157 2.13047 17.2371 2.1667 17.2979 2.19085V7.1665ZM31.349 54.7129C31.3611 54.7008 31.3733 54.7008 31.3976 54.6888C31.4583 54.6646 31.5555 54.6525 31.6647 54.6525C31.7983 54.6525 31.9198 54.6888 31.9805 54.7129V59.6886C31.9684 59.7006 31.9562 59.7006 31.9319 59.7127C31.8712 59.7369 31.774 59.749 31.6647 59.749C31.5312 59.749 31.4097 59.7127 31.349 59.6886V54.7129ZM60.7021 54.7129C60.7143 54.7008 60.7264 54.7008 60.7507 54.6888C60.8114 54.6646 60.9086 54.6525 61.0179 54.6525C61.1515 54.6525 61.2729 54.6888 61.3337 54.7129V59.6886C61.3215 59.7006 61.3094 59.7006 61.2851 59.7127C61.2244 59.7369 61.1272 59.749 61.0179 59.749C60.8843 59.749 60.775 59.7127 60.7021 59.6886V54.7129ZM75.3241 36.8875C75.3241 37.1532 75.2391 37.3706 75.1419 37.4914C75.0933 37.5518 75.0447 37.588 75.0205 37.6001C74.984 37.6122 74.9719 37.6242 74.9597 37.6242H72.3487V24.2552H74.9597C74.9719 24.2552 74.9962 24.2552 75.0205 24.2793C75.069 24.3035 75.1419 24.376 75.2148 24.4967C75.2755 24.6175 75.3241 24.7987 75.3241 24.9919V36.8875ZM2.78523 37.3827C2.72451 37.2619 2.67593 37.0808 2.67593 36.8875V25.004C2.67593 24.7383 2.76095 24.5209 2.8581 24.4001C2.90668 24.3397 2.95526 24.3035 2.97955 24.2914C3.01598 24.2793 3.02812 24.2673 3.04027 24.2673H5.65133V37.6363H3.04027C3.02812 37.6363 3.00383 37.6363 2.97955 37.6122C2.93097 37.5759 2.8581 37.5155 2.78523 37.3827ZM6.07638 49.544C5.86993 49.544 5.68776 49.4595 5.55417 49.3267C5.42058 49.1938 5.33557 49.0127 5.33557 48.8074V39.2908H6.50144C6.72004 39.2908 6.93864 39.2063 7.09652 39.0493C7.25439 38.8923 7.33941 38.6749 7.33941 38.4575V23.4219C7.33941 23.2045 7.25439 22.9871 7.09652 22.8301C6.93864 22.6731 6.72004 22.5886 6.50144 22.5886H5.33557V13.0721C5.33557 12.8668 5.42058 12.6856 5.55417 12.5528C5.68776 12.4199 5.86993 12.3354 6.07638 12.3354H16.1441V27.8541C15.5976 27.999 15.0997 28.2889 14.7111 28.6753C14.1282 29.255 13.7638 30.0521 13.7638 30.9337C13.7638 31.8153 14.1282 32.6124 14.7111 33.192C15.0997 33.5785 15.5976 33.8683 16.1441 34.0133V49.532H6.07638V49.544ZM16.9821 29.412C17.4072 29.412 17.7836 29.5811 18.0751 29.8588C18.3544 30.1366 18.5245 30.511 18.5245 30.9457C18.5245 31.3684 18.3544 31.7428 18.0751 32.0327C17.7958 32.3104 17.4193 32.4795 16.9821 32.4795C16.557 32.4795 16.1806 32.3104 15.8891 32.0327C15.6098 31.7549 15.4398 31.3805 15.4398 30.9457C15.4398 30.5231 15.6098 30.1487 15.8891 29.8588C16.1806 29.5811 16.557 29.412 16.9821 29.412ZM17.8201 49.544V34.0253C18.3666 33.8804 18.8645 33.5906 19.2531 33.2041C19.8361 32.6244 20.2004 31.8274 20.2004 30.9457C20.2004 30.0641 19.8361 29.255 19.2531 28.6874C18.8645 28.3009 18.3666 28.0111 17.8201 27.8662V12.3354H30.8268V20.8978C30.2803 21.0428 29.7824 21.3326 29.3937 21.7191C28.8108 22.2987 28.4465 23.0958 28.4465 23.9774C28.4465 24.859 28.8108 25.6682 29.3937 26.2358C29.7824 26.6222 30.2803 26.9121 30.8268 27.057V34.8103C30.2803 34.9552 29.7824 35.2451 29.3937 35.6316C28.8108 36.2112 28.4465 37.0083 28.4465 37.8899C28.4465 38.7715 28.8108 39.5686 29.3937 40.1483C29.7824 40.5347 30.2803 40.8246 30.8268 40.9695V49.532H17.8201V49.544ZM31.6647 36.3682C32.0898 36.3682 32.4663 36.5373 32.7578 36.8151C33.0371 37.0928 33.2071 37.4672 33.2071 37.902C33.2071 38.3247 33.0371 38.6991 32.7578 38.9889C32.4784 39.2667 32.1019 39.4358 31.6647 39.4358C31.2397 39.4358 30.8632 39.2667 30.5717 38.9889C30.2924 38.7111 30.1224 38.3368 30.1224 37.902C30.1224 37.4793 30.2924 37.1049 30.5717 36.8151C30.8511 36.5373 31.2397 36.3682 31.6647 36.3682ZM31.6647 22.4437C32.0898 22.4437 32.4663 22.6127 32.7578 22.8905C33.0371 23.1683 33.2071 23.5427 33.2071 23.9774C33.2071 24.4001 33.0371 24.7745 32.7578 25.0643C32.4784 25.3421 32.1019 25.5112 31.6647 25.5112C31.2397 25.5112 30.8632 25.3421 30.5717 25.0643C30.2924 24.7866 30.1224 24.4122 30.1224 23.9774C30.1224 23.5547 30.2924 23.1804 30.5717 22.8905C30.8511 22.6248 31.2397 22.4557 31.6647 22.4437ZM32.5027 49.544V40.9816C33.0492 40.8367 33.5471 40.5468 33.9358 40.1604C34.5187 39.5807 34.883 38.7836 34.883 37.902C34.883 37.0204 34.5187 36.2112 33.9358 35.6436C33.5471 35.2572 33.0492 34.9673 32.5027 34.8224V27.0691C33.0492 26.9242 33.5471 26.6343 33.9358 26.2479C34.5187 25.6682 34.883 24.8711 34.883 23.9895C34.883 23.1079 34.5187 22.2987 33.9358 21.7311C33.5471 21.3447 33.0492 21.0548 32.5027 20.9099V12.3354H45.5094V20.8978C44.9629 21.0428 44.465 21.3326 44.0764 21.7191C43.4935 22.2987 43.1291 23.0958 43.1291 23.9774C43.1291 24.859 43.4935 25.6561 44.0764 26.2358C44.465 26.6222 44.9629 26.9121 45.5094 27.057V34.8103C44.9629 34.9552 44.465 35.2451 44.0764 35.6316C43.4935 36.2112 43.1291 37.0083 43.1291 37.8899C43.1291 38.7715 43.4935 39.5807 44.0764 40.1483C44.465 40.5347 44.9629 40.8246 45.5094 40.9695V49.532H32.5027V49.544ZM46.3353 36.3682C46.7603 36.3682 47.1368 36.5373 47.4282 36.8151C47.7076 37.0928 47.8776 37.4672 47.8776 37.902C47.8776 38.3247 47.7076 38.6991 47.4282 38.9889C47.1489 39.2667 46.7724 39.4358 46.3353 39.4358C45.9102 39.4358 45.5337 39.2667 45.2422 38.9889C44.9629 38.7111 44.7929 38.3368 44.7929 37.902C44.7929 37.4793 44.9629 37.1049 45.2422 36.8151C45.5337 36.5373 45.9102 36.3682 46.3353 36.3682ZM46.3353 22.4437C46.7603 22.4437 47.1368 22.6127 47.4282 22.8905C47.7076 23.1683 47.8776 23.5427 47.8776 23.9774C47.8776 24.4001 47.7076 24.7745 47.4282 25.0643C47.1489 25.3421 46.7724 25.5112 46.3353 25.5112C45.9102 25.5112 45.5337 25.3421 45.2422 25.0643C44.9629 24.7866 44.7929 24.4122 44.7929 23.9774C44.7929 23.5547 44.9629 23.1804 45.2422 22.8905C45.5337 22.6248 45.9102 22.4557 46.3353 22.4437ZM47.1732 49.544V40.9816C47.7197 40.8367 48.2176 40.5468 48.6063 40.1604C49.1892 39.5807 49.5535 38.7836 49.5535 37.902C49.5535 37.0204 49.1892 36.2112 48.6063 35.6436C48.2176 35.2572 47.7197 34.9673 47.1732 34.8224V27.0691C47.7197 26.9242 48.2176 26.6343 48.6063 26.2479C49.1892 25.6682 49.5535 24.8711 49.5535 23.9895C49.5535 23.1079 49.1892 22.2987 48.6063 21.7311C48.2176 21.3447 47.7197 21.0548 47.1732 20.9099V12.3354H60.1799V27.8541C59.6334 27.999 59.1355 28.2889 58.7469 28.6753C58.164 29.255 57.7996 30.0521 57.7996 30.9337C57.7996 31.8153 58.164 32.6124 58.7469 33.192C59.1355 33.5785 59.6334 33.8683 60.1799 34.0133V49.532H47.1732V49.544ZM61.0179 29.412C61.443 29.412 61.8194 29.5811 62.1109 29.8588C62.3902 30.1366 62.5602 30.511 62.5602 30.9457C62.5602 31.3684 62.3902 31.7428 62.1109 32.0327C61.8316 32.3104 61.4551 32.4795 61.0179 32.4795C60.5928 32.4795 60.2164 32.3104 59.9249 32.0327C59.6456 31.7549 59.4756 31.3805 59.4756 30.9457C59.4756 30.5231 59.6456 30.1487 59.9249 29.8588C60.2164 29.5811 60.5928 29.412 61.0179 29.412ZM72.6766 48.8074C72.6766 49.0127 72.5916 49.1938 72.458 49.3267C72.3244 49.4595 72.1422 49.544 71.9358 49.544H61.868V34.0253C62.4145 33.8804 62.9124 33.5906 63.3011 33.2041C63.884 32.6244 64.2483 31.8274 64.2483 30.9457C64.2483 30.0641 63.884 29.255 63.3011 28.6874C62.9124 28.3009 62.4145 28.0111 61.868 27.8662V12.3354H71.9236C72.1301 12.3354 72.3122 12.4199 72.4458 12.5528C72.5794 12.6856 72.6644 12.8668 72.6644 13.0721V22.5886H71.4986C71.28 22.5886 71.0614 22.6731 70.9035 22.8301C70.7456 22.9871 70.6606 23.2045 70.6606 23.4219V38.4575C70.6606 38.6749 70.7456 38.8923 70.9035 39.0493C71.0614 39.2063 71.28 39.2908 71.4986 39.2908H72.6644V48.8074H72.6766Z" fill="#144D29"/>
<path d="M76.4778 23.3857C76.3078 23.1562 76.0892 22.963 75.8341 22.8301C75.5791 22.6852 75.2755 22.6007 74.9597 22.6007H74.3525V13.0841C74.3525 12.4199 74.0853 11.8161 73.6481 11.3813C73.2109 10.9465 72.6037 10.6809 71.9358 10.6809H61.868V7.43219C61.868 6.97327 61.4915 6.59889 61.03 6.59889C60.5686 6.59889 60.1921 6.97327 60.1921 7.43219V10.6688H47.1732V8.74856C47.3311 8.68818 47.4768 8.62779 47.6104 8.54326C47.7926 8.42249 47.9626 8.26549 48.0962 8.06018C48.2298 7.85488 48.3148 7.58919 48.3148 7.31142V2.05801C48.3148 1.78024 48.2298 1.51455 48.0962 1.30924C47.8897 0.995247 47.6104 0.802018 47.319 0.669173C47.0275 0.536328 46.6874 0.463867 46.3353 0.463867C45.8616 0.463867 45.4366 0.584635 45.0601 0.826172C44.8779 0.94694 44.7079 1.10394 44.5743 1.30924C44.4407 1.51455 44.3557 1.78024 44.3557 2.05801V7.31142C44.3557 7.58919 44.4407 7.85488 44.5743 8.06018C44.7808 8.37418 45.0601 8.56741 45.3516 8.70025C45.4001 8.72441 45.4487 8.73649 45.4973 8.76064V10.6809H32.5027V7.43219C32.5027 6.97327 32.1262 6.59889 31.6647 6.59889C31.2033 6.59889 30.8268 6.97327 30.8268 7.43219V10.6688H17.8201V8.74856C17.9779 8.68818 18.1237 8.62779 18.2573 8.54326C18.4394 8.42249 18.6095 8.26549 18.743 8.06018C18.8766 7.85488 18.9616 7.58919 18.9616 7.31142V2.05801C18.9616 1.78024 18.8766 1.51455 18.743 1.30924C18.5366 0.995247 18.2573 0.802018 17.9658 0.669173C17.6622 0.536328 17.3343 0.463867 16.9821 0.463867C16.5085 0.463867 16.0834 0.584635 15.7069 0.826172C15.5248 0.94694 15.3547 1.10394 15.2212 1.30924C15.0876 1.51455 15.0026 1.78024 15.0026 2.05801V7.31142C15.0026 7.58919 15.0876 7.85488 15.2212 8.06018C15.4276 8.37418 15.7069 8.56741 15.9984 8.70025C16.047 8.72441 16.0956 8.73649 16.1441 8.76064V10.6809H6.07638C5.40844 10.6809 4.80121 10.9465 4.36401 11.3813C3.92681 11.8161 3.65964 12.4199 3.65964 13.0841V22.6007H3.05241C2.73666 22.6007 2.43305 22.6852 2.17801 22.8301C1.78939 23.0475 1.49792 23.3736 1.30361 23.748C1.1093 24.1223 1 24.5571 1 25.016V36.8996C1 37.5035 1.18217 38.0711 1.52221 38.5179C1.69223 38.7474 1.91083 38.9406 2.16587 39.0734C2.4209 39.2184 2.72451 39.3029 3.04027 39.3029H3.64749V48.8194C3.64749 49.4837 3.91467 50.0875 4.35187 50.5223C4.78907 50.957 5.39629 51.2227 6.06424 51.2227H16.132V54.4593C16.132 54.9182 16.5085 55.2926 16.97 55.2926C17.4314 55.2926 17.8079 54.9182 17.8079 54.4593V51.2227H30.8146V53.1429C30.6568 53.2033 30.511 53.2637 30.3774 53.3603C30.1953 53.4811 30.0252 53.6381 29.8917 53.8434C29.7581 54.0487 29.6731 54.3144 29.6731 54.5922V59.8456C29.6731 60.1233 29.7581 60.389 29.8917 60.5943C30.0981 60.9083 30.3774 61.1016 30.6689 61.2344C30.9725 61.3672 31.3004 61.4397 31.6526 61.4397C32.1262 61.4397 32.5513 61.3189 32.9278 61.0774C33.1099 60.9566 33.28 60.7996 33.4136 60.5943C33.5471 60.389 33.6322 60.1233 33.6322 59.8456V54.568C33.6322 54.2902 33.5471 54.0245 33.4136 53.8192C33.2071 53.5052 32.9278 53.312 32.6363 53.1792C32.5877 53.155 32.5391 53.1429 32.4906 53.1188V51.1986H45.4973V54.4352C45.4973 54.8941 45.8738 55.2685 46.3353 55.2685C46.7967 55.2685 47.1732 54.8941 47.1732 54.4352V51.1986H60.1799V53.1188C60.0221 53.1792 59.8763 53.2395 59.7427 53.3362C59.5606 53.4569 59.3905 53.6139 59.257 53.8192C59.1234 54.0245 59.0384 54.2902 59.0384 54.568V59.8214C59.0384 60.0992 59.1234 60.3649 59.257 60.5702C59.4634 60.8842 59.7427 61.0774 60.0342 61.2102C60.3378 61.3431 60.6657 61.4156 61.0179 61.4156C61.4915 61.4156 61.9166 61.2948 62.2931 61.0532C62.4752 60.9325 62.6453 60.7755 62.7788 60.5702C62.9124 60.3649 62.9974 60.0992 62.9974 59.8214V54.568C62.9974 54.2902 62.9124 54.0245 62.7788 53.8192C62.5724 53.5052 62.2931 53.312 62.0016 53.1792C61.953 53.155 61.9044 53.1429 61.8559 53.1188V51.1986H71.9236C72.5916 51.1986 73.1988 50.9329 73.636 50.4981C74.0732 50.0633 74.3404 49.4595 74.3404 48.7953V39.2788H74.9476C75.2633 39.2788 75.567 39.1942 75.822 39.0493C76.2106 38.8319 76.5021 38.5058 76.6964 38.1315C76.8907 37.7571 77 37.3223 77 36.8634V24.9798C77 24.388 76.8178 23.8325 76.4778 23.3857ZM46.651 7.1665C46.6389 7.17858 46.6267 7.17858 46.6024 7.19065C46.5417 7.21481 46.4445 7.22688 46.3353 7.22688C46.2017 7.22688 46.0924 7.19065 46.0195 7.1665V2.19085C46.0316 2.17877 46.0438 2.17877 46.0681 2.1667C46.1288 2.14254 46.2259 2.13047 46.3353 2.13047C46.4688 2.13047 46.5903 2.1667 46.651 2.19085V7.1665ZM17.2979 7.1665C17.2857 7.17858 17.2736 7.17858 17.2493 7.19065C17.1886 7.21481 17.0914 7.22688 16.9821 7.22688C16.8485 7.22688 16.7271 7.19065 16.6663 7.1665V2.19085C16.6785 2.17877 16.6906 2.17877 16.7149 2.1667C16.7756 2.14254 16.8728 2.13047 16.9821 2.13047C17.1157 2.13047 17.2371 2.1667 17.2979 2.19085V7.1665ZM31.349 54.7129C31.3611 54.7008 31.3733 54.7008 31.3976 54.6888C31.4583 54.6646 31.5555 54.6525 31.6647 54.6525C31.7983 54.6525 31.9198 54.6888 31.9805 54.7129V59.6886C31.9684 59.7006 31.9562 59.7006 31.9319 59.7127C31.8712 59.7369 31.774 59.749 31.6647 59.749C31.5312 59.749 31.4097 59.7127 31.349 59.6886V54.7129ZM60.7021 54.7129C60.7143 54.7008 60.7264 54.7008 60.7507 54.6888C60.8114 54.6646 60.9086 54.6525 61.0179 54.6525C61.1515 54.6525 61.2729 54.6888 61.3337 54.7129V59.6886C61.3215 59.7006 61.3094 59.7006 61.2851 59.7127C61.2244 59.7369 61.1272 59.749 61.0179 59.749C60.8843 59.749 60.775 59.7127 60.7021 59.6886V54.7129ZM75.3241 36.8875C75.3241 37.1532 75.2391 37.3706 75.1419 37.4914C75.0933 37.5518 75.0447 37.588 75.0205 37.6001C74.984 37.6122 74.9719 37.6242 74.9597 37.6242H72.3487V24.2552H74.9597C74.9719 24.2552 74.9962 24.2552 75.0205 24.2793C75.069 24.3035 75.1419 24.376 75.2148 24.4967C75.2755 24.6175 75.3241 24.7987 75.3241 24.9919V36.8875ZM2.78523 37.3827C2.72451 37.2619 2.67593 37.0808 2.67593 36.8875V25.004C2.67593 24.7383 2.76095 24.5209 2.8581 24.4001C2.90668 24.3397 2.95526 24.3035 2.97955 24.2914C3.01598 24.2793 3.02812 24.2673 3.04027 24.2673H5.65133V37.6363H3.04027C3.02812 37.6363 3.00383 37.6363 2.97955 37.6122C2.93097 37.5759 2.8581 37.5155 2.78523 37.3827ZM6.07638 49.544C5.86993 49.544 5.68776 49.4595 5.55417 49.3267C5.42058 49.1938 5.33557 49.0127 5.33557 48.8074V39.2908H6.50144C6.72004 39.2908 6.93864 39.2063 7.09652 39.0493C7.25439 38.8923 7.33941 38.6749 7.33941 38.4575V23.4219C7.33941 23.2045 7.25439 22.9871 7.09652 22.8301C6.93864 22.6731 6.72004 22.5886 6.50144 22.5886H5.33557V13.0721C5.33557 12.8668 5.42058 12.6856 5.55417 12.5528C5.68776 12.4199 5.86993 12.3354 6.07638 12.3354H16.1441V27.8541C15.5976 27.999 15.0997 28.2889 14.7111 28.6753C14.1282 29.255 13.7638 30.0521 13.7638 30.9337C13.7638 31.8153 14.1282 32.6124 14.7111 33.192C15.0997 33.5785 15.5976 33.8683 16.1441 34.0133V49.532H6.07638V49.544ZM16.9821 29.412C17.4072 29.412 17.7836 29.5811 18.0751 29.8588C18.3544 30.1366 18.5245 30.511 18.5245 30.9457C18.5245 31.3684 18.3544 31.7428 18.0751 32.0327C17.7958 32.3104 17.4193 32.4795 16.9821 32.4795C16.557 32.4795 16.1806 32.3104 15.8891 32.0327C15.6098 31.7549 15.4398 31.3805 15.4398 30.9457C15.4398 30.5231 15.6098 30.1487 15.8891 29.8588C16.1806 29.5811 16.557 29.412 16.9821 29.412ZM17.8201 49.544V34.0253C18.3666 33.8804 18.8645 33.5906 19.2531 33.2041C19.8361 32.6244 20.2004 31.8274 20.2004 30.9457C20.2004 30.0641 19.8361 29.255 19.2531 28.6874C18.8645 28.3009 18.3666 28.0111 17.8201 27.8662V12.3354H30.8268V20.8978C30.2803 21.0428 29.7824 21.3326 29.3937 21.7191C28.8108 22.2987 28.4465 23.0958 28.4465 23.9774C28.4465 24.859 28.8108 25.6682 29.3937 26.2358C29.7824 26.6222 30.2803 26.9121 30.8268 27.057V34.8103C30.2803 34.9552 29.7824 35.2451 29.3937 35.6316C28.8108 36.2112 28.4465 37.0083 28.4465 37.8899C28.4465 38.7715 28.8108 39.5686 29.3937 40.1483C29.7824 40.5347 30.2803 40.8246 30.8268 40.9695V49.532H17.8201V49.544ZM31.6647 36.3682C32.0898 36.3682 32.4663 36.5373 32.7578 36.8151C33.0371 37.0928 33.2071 37.4672 33.2071 37.902C33.2071 38.3247 33.0371 38.6991 32.7578 38.9889C32.4784 39.2667 32.1019 39.4358 31.6647 39.4358C31.2397 39.4358 30.8632 39.2667 30.5717 38.9889C30.2924 38.7111 30.1224 38.3368 30.1224 37.902C30.1224 37.4793 30.2924 37.1049 30.5717 36.8151C30.8511 36.5373 31.2397 36.3682 31.6647 36.3682ZM31.6647 22.4437C32.0898 22.4437 32.4663 22.6127 32.7578 22.8905C33.0371 23.1683 33.2071 23.5427 33.2071 23.9774C33.2071 24.4001 33.0371 24.7745 32.7578 25.0643C32.4784 25.3421 32.1019 25.5112 31.6647 25.5112C31.2397 25.5112 30.8632 25.3421 30.5717 25.0643C30.2924 24.7866 30.1224 24.4122 30.1224 23.9774C30.1224 23.5547 30.2924 23.1804 30.5717 22.8905C30.8511 22.6248 31.2397 22.4557 31.6647 22.4437ZM32.5027 49.544V40.9816C33.0492 40.8367 33.5471 40.5468 33.9358 40.1604C34.5187 39.5807 34.883 38.7836 34.883 37.902C34.883 37.0204 34.5187 36.2112 33.9358 35.6436C33.5471 35.2572 33.0492 34.9673 32.5027 34.8224V27.0691C33.0492 26.9242 33.5471 26.6343 33.9358 26.2479C34.5187 25.6682 34.883 24.8711 34.883 23.9895C34.883 23.1079 34.5187 22.2987 33.9358 21.7311C33.5471 21.3447 33.0492 21.0548 32.5027 20.9099V12.3354H45.5094V20.8978C44.9629 21.0428 44.465 21.3326 44.0764 21.7191C43.4935 22.2987 43.1291 23.0958 43.1291 23.9774C43.1291 24.859 43.4935 25.6561 44.0764 26.2358C44.465 26.6222 44.9629 26.9121 45.5094 27.057V34.8103C44.9629 34.9552 44.465 35.2451 44.0764 35.6316C43.4935 36.2112 43.1291 37.0083 43.1291 37.8899C43.1291 38.7715 43.4935 39.5807 44.0764 40.1483C44.465 40.5347 44.9629 40.8246 45.5094 40.9695V49.532H32.5027V49.544ZM46.3353 36.3682C46.7603 36.3682 47.1368 36.5373 47.4282 36.8151C47.7076 37.0928 47.8776 37.4672 47.8776 37.902C47.8776 38.3247 47.7076 38.6991 47.4282 38.9889C47.1489 39.2667 46.7724 39.4358 46.3353 39.4358C45.9102 39.4358 45.5337 39.2667 45.2422 38.9889C44.9629 38.7111 44.7929 38.3368 44.7929 37.902C44.7929 37.4793 44.9629 37.1049 45.2422 36.8151C45.5337 36.5373 45.9102 36.3682 46.3353 36.3682ZM46.3353 22.4437C46.7603 22.4437 47.1368 22.6127 47.4282 22.8905C47.7076 23.1683 47.8776 23.5427 47.8776 23.9774C47.8776 24.4001 47.7076 24.7745 47.4282 25.0643C47.1489 25.3421 46.7724 25.5112 46.3353 25.5112C45.9102 25.5112 45.5337 25.3421 45.2422 25.0643C44.9629 24.7866 44.7929 24.4122 44.7929 23.9774C44.7929 23.5547 44.9629 23.1804 45.2422 22.8905C45.5337 22.6248 45.9102 22.4557 46.3353 22.4437ZM47.1732 49.544V40.9816C47.7197 40.8367 48.2176 40.5468 48.6063 40.1604C49.1892 39.5807 49.5535 38.7836 49.5535 37.902C49.5535 37.0204 49.1892 36.2112 48.6063 35.6436C48.2176 35.2572 47.7197 34.9673 47.1732 34.8224V27.0691C47.7197 26.9242 48.2176 26.6343 48.6063 26.2479C49.1892 25.6682 49.5535 24.8711 49.5535 23.9895C49.5535 23.1079 49.1892 22.2987 48.6063 21.7311C48.2176 21.3447 47.7197 21.0548 47.1732 20.9099V12.3354H60.1799V27.8541C59.6334 27.999 59.1355 28.2889 58.7469 28.6753C58.164 29.255 57.7996 30.0521 57.7996 30.9337C57.7996 31.8153 58.164 32.6124 58.7469 33.192C59.1355 33.5785 59.6334 33.8683 60.1799 34.0133V49.532H47.1732V49.544ZM61.0179 29.412C61.443 29.412 61.8194 29.5811 62.1109 29.8588C62.3902 30.1366 62.5602 30.511 62.5602 30.9457C62.5602 31.3684 62.3902 31.7428 62.1109 32.0327C61.8316 32.3104 61.4551 32.4795 61.0179 32.4795C60.5928 32.4795 60.2164 32.3104 59.9249 32.0327C59.6456 31.7549 59.4756 31.3805 59.4756 30.9457C59.4756 30.5231 59.6456 30.1487 59.9249 29.8588C60.2164 29.5811 60.5928 29.412 61.0179 29.412ZM72.6766 48.8074C72.6766 49.0127 72.5916 49.1938 72.458 49.3267C72.3244 49.4595 72.1422 49.544 71.9358 49.544H61.868V34.0253C62.4145 33.8804 62.9124 33.5906 63.3011 33.2041C63.884 32.6244 64.2483 31.8274 64.2483 30.9457C64.2483 30.0641 63.884 29.255 63.3011 28.6874C62.9124 28.3009 62.4145 28.0111 61.868 27.8662V12.3354H71.9236C72.1301 12.3354 72.3122 12.4199 72.4458 12.5528C72.5794 12.6856 72.6644 12.8668 72.6644 13.0721V22.5886H71.4986C71.28 22.5886 71.0614 22.6731 70.9035 22.8301C70.7456 22.9871 70.6606 23.2045 70.6606 23.4219V38.4575C70.6606 38.6749 70.7456 38.8923 70.9035 39.0493C71.0614 39.2063 71.28 39.2908 71.4986 39.2908H72.6644V48.8074H72.6766Z" stroke="#144D29" stroke-width="0.6" mask="url(#path-1-outside-1)"/>
</svg>
