<svg width="66" height="76" viewBox="0 0 66 76" fill="none" xmlns="http://www.w3.org/2000/svg">
<mask id="path-1-outside-1" maskUnits="userSpaceOnUse" x="0" y="13.4435" width="66" height="62" fill="black">
<rect fill="white" y="13.4435" width="66" height="62"/>
<path d="M60.6729 50.4139C63.8088 46.3677 65.2953 41.082 64.9491 35.6632C64.9491 35.6529 64.9491 35.6427 64.9491 35.6324C64.9389 35.489 64.9287 35.3456 64.9185 35.2022C64.9084 35.1407 64.9084 35.0793 64.8982 35.0178C64.888 34.8949 64.8778 34.772 64.8575 34.649C64.8473 34.5568 64.8371 34.4646 64.8269 34.3725C64.8167 34.27 64.8066 34.1676 64.7862 34.0651C64.7658 33.8808 64.7353 33.6861 64.7047 33.5018C64.6946 33.4403 64.6844 33.3788 64.6742 33.3174C64.6538 33.174 64.6233 33.0305 64.6029 32.8871C64.5927 32.8154 64.5724 32.7335 64.5622 32.6618C64.5418 32.5286 64.5113 32.3954 64.4808 32.2623C64.4604 32.1906 64.4502 32.1086 64.4298 32.0369C64.3993 31.9037 64.3688 31.7603 64.3382 31.6272C64.3178 31.5657 64.3077 31.494 64.2873 31.4325C64.2364 31.2379 64.1855 31.0433 64.1346 30.8487C64.1346 30.8384 64.1346 30.8384 64.1346 30.8282C63.3608 27.9702 62.1187 25.3786 60.5304 23.1455C60.4286 23.0021 60.3268 22.8689 60.2249 22.7357C56.7633 18.0851 51.7948 15.0838 46.531 14.5306C46.3783 14.5101 46.2256 14.4999 46.0627 14.4896C45.7572 14.4691 45.4416 14.4487 45.126 14.4487C44.342 14.4282 43.5682 14.4691 42.7843 14.5613C42.4687 14.6023 42.1632 14.6433 41.8476 14.7047C41.3793 14.7867 40.9109 14.8994 40.4426 15.0223C38.1619 15.6472 36.1155 16.733 34.3439 18.1671C33.6109 17.6549 32.8371 17.1939 32.0124 16.7944C31.5746 16.5793 31.1368 16.3949 30.6888 16.2208C30.3936 16.1081 30.0881 16.0057 29.7929 15.9135C29.0395 15.6779 28.2759 15.4935 27.5122 15.3706C27.2068 15.3194 26.8912 15.2784 26.5857 15.2477C26.433 15.2272 26.2803 15.2169 26.1174 15.2067C20.8536 14.7867 15.4168 16.8354 11.1712 20.7792C11.049 20.8919 10.9268 21.0148 10.8046 21.1275C8.83964 23.0328 7.14954 25.3478 5.87687 28.0214C5.87687 28.0317 5.87687 28.0317 5.86669 28.0419C5.77506 28.2263 5.6936 28.4107 5.61215 28.5951C5.58161 28.6565 5.56125 28.718 5.5307 28.7794C5.46961 28.9126 5.41871 29.0355 5.3678 29.1687C5.33726 29.2404 5.30671 29.3121 5.27617 29.3838C5.22526 29.5067 5.17436 29.6297 5.12345 29.7526C5.09291 29.8243 5.07254 29.896 5.042 29.9677C4.99109 30.1009 4.94018 30.2443 4.88928 30.3775C4.86892 30.4389 4.84855 30.4901 4.82819 30.5516C4.7671 30.736 4.70601 30.9101 4.64493 31.0945C4.61438 31.1969 4.58384 31.2891 4.55329 31.3916C4.52275 31.4838 4.50239 31.5657 4.47184 31.6579C4.4413 31.7706 4.40057 31.8935 4.37003 32.0062C4.34967 32.0676 4.33948 32.1291 4.31912 32.1906C4.2784 32.3237 4.24785 32.4671 4.20713 32.6003C4.20713 32.6106 4.19695 32.6208 4.19695 32.631C2.87337 37.8963 3.38244 43.3663 5.73433 47.9145C7.63824 51.6124 7.66879 55.9967 5.79542 59.6639L1 69.1188L10.825 73.8718L13.574 67.7051C15.9768 62.3068 20.65 58.1683 26.3821 56.3347C29.3144 55.3923 32.0328 53.7738 34.3541 51.6124C35.7184 52.9236 37.2456 54.0504 38.9052 54.9416C44.2199 57.7893 48.0582 62.7267 49.4531 68.4632L51.0414 75.0293L61.5587 72.1509L58.5145 61.9585C57.3131 58.0147 58.1276 53.7021 60.6729 50.4139ZM40.9618 16.8559C41.0942 16.8149 41.2265 16.7842 41.3589 16.7535C41.3996 16.7432 41.4505 16.733 41.4913 16.7227C41.5829 16.7022 41.6745 16.6818 41.756 16.6613C41.8069 16.651 41.8578 16.6408 41.9189 16.6305C42.0003 16.6101 42.0818 16.5998 42.1632 16.5793C42.2243 16.5691 42.2752 16.5588 42.3363 16.5486C42.4178 16.5383 42.489 16.5179 42.5705 16.5076C42.6316 16.4974 42.6926 16.4871 42.7436 16.4769C42.8148 16.4666 42.8963 16.4564 42.9675 16.4462C43.0286 16.4359 43.0897 16.4359 43.1508 16.4257C43.2221 16.4154 43.3035 16.4052 43.3748 16.4052C43.4359 16.3949 43.497 16.3949 43.5581 16.3847C43.6293 16.3744 43.7108 16.3744 43.7821 16.3642C43.8431 16.3642 43.9042 16.354 43.9551 16.354C44.0366 16.354 44.1079 16.3437 44.1893 16.3437C44.2504 16.3437 44.3013 16.3335 44.3624 16.3335C44.454 16.3335 44.5355 16.3335 44.6271 16.3335C44.678 16.3335 44.7187 16.3335 44.7696 16.3335C44.902 16.3335 45.0344 16.3335 45.1667 16.3335C45.2176 16.3335 45.2685 16.3335 45.3194 16.3437C45.4009 16.3437 45.4823 16.354 45.574 16.354C45.6351 16.354 45.6962 16.3642 45.7471 16.3642C45.8183 16.3642 45.8998 16.3744 45.9711 16.3744C46.0321 16.3744 46.0932 16.3847 46.1543 16.3949C46.2256 16.4052 46.2969 16.4052 46.3681 16.4154C46.4292 16.4257 46.4903 16.4257 46.5616 16.4359C46.6328 16.4462 46.7041 16.4564 46.7754 16.4666C46.8365 16.4769 46.8975 16.4871 46.9688 16.4974C47.0401 16.5076 47.1114 16.5179 47.1724 16.5281C47.2335 16.5383 47.2946 16.5486 47.3557 16.5588C47.427 16.5691 47.4982 16.5793 47.5695 16.5998C47.6306 16.6101 47.6917 16.6203 47.7528 16.6305C47.8241 16.6408 47.8953 16.6613 47.9666 16.6715C48.0277 16.6818 48.0888 16.692 48.1397 16.7125C48.2211 16.733 48.2924 16.7535 48.3738 16.7637C48.4248 16.7739 48.4757 16.7842 48.5367 16.8047C48.6487 16.8354 48.7607 16.8661 48.8626 16.8969C48.9033 16.9071 48.9542 16.9174 48.9949 16.9378C49.0967 16.9686 49.1985 16.9993 49.3004 17.03C49.3513 17.0403 49.4022 17.0608 49.4531 17.0813C49.5345 17.1017 49.616 17.1325 49.6872 17.153C49.7382 17.1734 49.7992 17.1939 49.8501 17.2042C49.9214 17.2247 50.0029 17.2554 50.0741 17.2861C50.125 17.3066 50.1861 17.3271 50.237 17.3476C50.3083 17.3783 50.3796 17.3988 50.4508 17.4295C50.5018 17.45 50.5628 17.4705 50.6137 17.491C50.685 17.5217 50.7563 17.5525 50.8276 17.5832C50.8785 17.6037 50.9395 17.6242 50.9905 17.6549C51.0617 17.6856 51.133 17.7164 51.2043 17.7471C51.2552 17.7676 51.3061 17.7983 51.357 17.8188C51.4283 17.8495 51.5097 17.8905 51.581 17.9212C51.6319 17.9417 51.6828 17.9622 51.7235 17.9929C51.805 18.0339 51.8864 18.0749 51.9679 18.1159C52.0086 18.1363 52.0493 18.1568 52.09 18.1773C52.1919 18.2285 52.2937 18.2798 52.3955 18.3412C52.4158 18.3515 52.4362 18.3617 52.4566 18.372C52.5787 18.4334 52.7009 18.5051 52.8231 18.5768C52.9555 18.6485 53.0878 18.7305 53.21 18.8124C53.2507 18.8329 53.2813 18.8636 53.322 18.8841C53.4136 18.9456 53.5052 18.9968 53.5969 19.0583C53.6478 19.089 53.6987 19.13 53.7496 19.1607C53.8209 19.2119 53.9023 19.2631 53.9736 19.3144C54.0245 19.3553 54.0856 19.3861 54.1365 19.427C54.2078 19.4783 54.279 19.5295 54.3503 19.5807C54.4114 19.6217 54.4623 19.6626 54.5234 19.7036C54.5947 19.7548 54.6557 19.8061 54.727 19.8573C54.7881 19.8982 54.839 19.9495 54.9001 19.9904C54.9612 20.0417 55.0325 20.0929 55.0935 20.1441C55.1546 20.1851 55.2055 20.2363 55.2666 20.2773C55.3277 20.3285 55.399 20.3797 55.4601 20.4309C55.5212 20.4821 55.5721 20.5231 55.6332 20.5743C55.6942 20.6255 55.7553 20.687 55.8164 20.7382C55.8673 20.7894 55.9284 20.8407 55.9793 20.8816C56.0404 20.9329 56.1015 20.9943 56.1626 21.0558C56.2135 21.107 56.2746 21.1582 56.3255 21.2094C56.3866 21.2709 56.4477 21.3324 56.5189 21.3938C56.5698 21.445 56.6207 21.486 56.6716 21.5372C56.7429 21.6089 56.8142 21.6806 56.8855 21.7523C56.9567 21.824 57.028 21.906 57.0993 21.9777C57.1705 22.0494 57.2418 22.1314 57.3131 22.2031C57.364 22.2543 57.4149 22.3157 57.4658 22.367C57.5269 22.4284 57.5778 22.4899 57.6389 22.5616C57.6898 22.623 57.7407 22.6743 57.7916 22.7357C57.8425 22.7972 57.9036 22.8586 57.9545 22.9201C58.0054 22.9816 58.0563 23.043 58.1072 23.1045C58.1581 23.166 58.209 23.2274 58.2599 23.2991C58.3109 23.3606 58.3618 23.422 58.4127 23.4835C58.4636 23.545 58.5145 23.6167 58.5654 23.6781C58.6163 23.7396 58.6672 23.8113 58.7079 23.8728C58.7588 23.9342 58.8097 24.0059 58.8505 24.0674C58.9014 24.1289 58.9421 24.2006 58.993 24.262C59.0439 24.3337 59.0846 24.3952 59.1355 24.4669C59.1763 24.5284 59.2272 24.6001 59.2679 24.6615C59.3188 24.7332 59.3595 24.8049 59.4104 24.8766C59.4512 24.9381 59.5021 25.0098 59.5428 25.0713C59.5937 25.143 59.6344 25.2249 59.6853 25.2966C59.7261 25.3581 59.7668 25.4298 59.8075 25.4913C59.8584 25.5732 59.9093 25.6654 59.9602 25.7473C59.9908 25.8088 60.0315 25.86 60.062 25.9215C60.1435 26.0649 60.2249 26.2083 60.3064 26.3517C60.3369 26.4029 60.3675 26.4644 60.398 26.5156C60.4489 26.6078 60.4998 26.7 60.5508 26.8024C60.5813 26.8639 60.6118 26.9254 60.6526 26.9971C60.6933 27.079 60.7442 27.1712 60.7849 27.2532C60.8155 27.3249 60.846 27.3863 60.8867 27.458C60.9275 27.54 60.9682 27.6322 61.0089 27.7141C61.0395 27.7858 61.07 27.8575 61.1005 27.919C61.1413 28.0009 61.182 28.0931 61.2125 28.1751C61.2431 28.2468 61.2736 28.3185 61.3042 28.3902C61.3449 28.4824 61.3754 28.5643 61.4162 28.6565C61.4467 28.7282 61.4773 28.7999 61.4976 28.8716C61.5383 28.9638 61.5689 29.056 61.5994 29.1482C61.63 29.2199 61.6503 29.2916 61.6809 29.3531C61.7114 29.4453 61.7521 29.5477 61.7827 29.6399C61.8031 29.7116 61.8336 29.7731 61.854 29.8448C61.8845 29.9472 61.9252 30.0497 61.9558 30.1521C61.9761 30.2136 61.9965 30.275 62.0169 30.3467C62.0576 30.4594 62.0881 30.5823 62.1289 30.695C62.1492 30.7462 62.1594 30.7974 62.1798 30.8487C62.2307 31.0228 62.2816 31.1867 62.3223 31.3608C62.3223 31.3711 62.3223 31.3711 62.3223 31.3813C62.3732 31.5555 62.4139 31.7399 62.4547 31.914C62.4648 31.9755 62.4852 32.0369 62.4954 32.0984C62.5259 32.2213 62.5565 32.3442 62.5768 32.4671C62.5972 32.5389 62.6074 32.6106 62.6176 32.6823C62.6379 32.7949 62.6685 32.9179 62.6888 33.0305C62.699 33.1022 62.7194 33.174 62.7296 33.2457C62.7499 33.3686 62.7703 33.5018 62.7906 33.6247C62.811 33.7169 62.8212 33.8193 62.8314 33.9115C62.8517 34.0447 62.8721 34.1778 62.8925 34.311C62.9026 34.4134 62.923 34.5261 62.9332 34.6285C62.9434 34.7003 62.9535 34.772 62.9535 34.8334C62.9637 34.9563 62.9739 35.0793 62.9943 35.1919C62.9943 35.2329 63.0045 35.2841 63.0045 35.3251C63.1877 37.4763 63.0554 39.5762 62.6379 41.5635L37.1031 48.5496L34.6494 49.2257C34.5476 49.1232 34.4559 49.0106 34.3643 48.8979C32.5317 46.7775 31.0554 44.2166 30.1187 41.3074C30.0678 41.1435 30.0169 40.9693 29.966 40.7952C29.966 40.785 29.966 40.785 29.9558 40.7747C29.9049 40.6006 29.854 40.4162 29.8031 40.242C27.777 32.7335 29.7929 25.2044 34.4254 20.6563C34.8835 20.2056 35.3621 19.7856 35.8711 19.4066C37.3882 18.2388 39.0885 17.3681 40.9618 16.8559ZM11.8431 66.9164L9.88832 71.3006L3.5657 68.248L7.51607 60.5244C8.8091 57.9942 9.31817 55.1567 9.03309 52.3807C10.3261 53.6612 11.8228 54.747 13.5129 55.5665C15.6408 56.5908 17.8807 57.1235 20.1511 57.2054C16.5266 59.5717 13.6147 62.9316 11.8431 66.9164ZM26.3109 54.3372C22.3707 55.7304 18.1352 55.6689 14.3478 53.8455C9.41998 51.469 6.35539 46.6033 5.60197 41.0103L29.7725 52.6983C28.6526 53.3641 27.4919 53.9173 26.3109 54.3372ZM5.42889 38.8182C5.37798 36.7899 5.63252 34.69 6.20267 32.6208C6.21285 32.5798 6.22304 32.5389 6.23322 32.4979C6.26376 32.3852 6.30449 32.2623 6.33503 32.1496C6.35539 32.0779 6.37576 32.0164 6.39612 31.9447C6.42666 31.8423 6.45721 31.7398 6.48775 31.6374C6.52848 31.5145 6.5692 31.3813 6.60993 31.2584C6.64047 31.1662 6.67101 31.074 6.71174 30.9818C6.75247 30.8589 6.80337 30.736 6.8441 30.6233C6.87464 30.5516 6.895 30.4901 6.92555 30.4184C6.96627 30.3057 7.01718 30.1931 7.05791 30.0804C7.08845 30.0087 7.10881 29.9472 7.13936 29.8755C7.19026 29.7628 7.24117 29.6399 7.29208 29.5272C7.31244 29.4658 7.34298 29.4146 7.36335 29.3531C7.43462 29.1892 7.51607 29.0151 7.59752 28.8512C7.59752 28.8512 7.59752 28.8409 7.6077 28.8409C7.68915 28.677 7.76042 28.5234 7.84187 28.3595C7.86223 28.3082 7.89278 28.2673 7.91314 28.2161C7.96405 28.1034 8.02514 28.0009 8.08622 27.8883C8.11677 27.8268 8.14731 27.7653 8.18804 27.7141C8.23894 27.6219 8.28985 27.5297 8.34076 27.4375C8.38148 27.3761 8.41203 27.3146 8.45275 27.2532C8.50366 27.161 8.55457 27.079 8.60547 26.9868C8.6462 26.9254 8.68692 26.8639 8.71747 26.7922C8.76837 26.7102 8.81928 26.6283 8.87019 26.5463C8.91091 26.4849 8.95164 26.4132 8.99236 26.3517C9.04327 26.2698 9.09418 26.1878 9.14508 26.1161C9.18581 26.0547 9.22654 25.9932 9.27744 25.9215C9.32835 25.8395 9.37926 25.7678 9.44034 25.6859C9.48107 25.6244 9.53198 25.563 9.5727 25.5015C9.62361 25.4195 9.6847 25.3478 9.7356 25.2761C9.77633 25.2147 9.82724 25.1532 9.86796 25.0918C9.92905 25.0098 9.97996 24.9381 10.041 24.8562C10.0818 24.7947 10.1327 24.7435 10.1734 24.682C10.2345 24.6001 10.3058 24.5181 10.377 24.4362C10.4178 24.3849 10.4483 24.344 10.489 24.2928C10.5908 24.1698 10.6927 24.0367 10.8046 23.9137C10.8454 23.8625 10.8963 23.8113 10.937 23.7601C10.9981 23.6884 11.0694 23.6064 11.1304 23.5347C11.1814 23.4733 11.2323 23.422 11.2832 23.3708C11.3443 23.3094 11.4053 23.2377 11.4664 23.1762C11.5173 23.1147 11.5784 23.0635 11.6293 23.0021C11.6904 22.9406 11.7515 22.8791 11.8024 22.8177C11.8635 22.7562 11.9144 22.705 11.9755 22.6435C12.0366 22.5821 12.0977 22.5309 12.1486 22.4694C12.2097 22.4182 12.2606 22.3567 12.3217 22.3055C12.3828 22.244 12.4438 22.1928 12.5049 22.1416C12.566 22.0904 12.6271 22.0289 12.6882 21.9777C12.7493 21.9265 12.8104 21.865 12.8715 21.8138C12.9325 21.7626 12.9936 21.7114 13.0547 21.6601C13.1158 21.6089 13.1769 21.5577 13.238 21.5065C13.2991 21.4553 13.3602 21.4041 13.4213 21.3528C13.4823 21.3016 13.5536 21.2504 13.6147 21.1992C13.6758 21.148 13.7369 21.0967 13.798 21.0558C13.8692 21.0046 13.9303 20.9533 14.0016 20.9021C14.0627 20.8611 14.1136 20.8099 14.1747 20.769C14.2561 20.7075 14.3478 20.646 14.4292 20.5846C14.5107 20.5231 14.6023 20.4616 14.6837 20.4002C14.7652 20.3387 14.8466 20.2773 14.9383 20.226C14.9994 20.1851 15.0605 20.1441 15.1114 20.1134C15.1826 20.0621 15.2539 20.0212 15.3252 19.97C15.3863 19.929 15.4473 19.888 15.5084 19.8573C15.5797 19.8163 15.651 19.7651 15.7222 19.7241C15.7833 19.6831 15.8444 19.6524 15.9157 19.6114C15.987 19.5705 16.0582 19.5295 16.1295 19.4885C16.1906 19.4475 16.2619 19.4168 16.3229 19.3758C16.3942 19.3349 16.4655 19.2939 16.5367 19.2529C16.5978 19.2222 16.6691 19.1812 16.7302 19.1505C16.8015 19.1095 16.8727 19.0685 16.9542 19.0378C17.0153 19.0071 17.0865 18.9763 17.1476 18.9353C17.2189 18.8944 17.3004 18.8636 17.3716 18.8227C17.4327 18.7919 17.4938 18.7612 17.5651 18.7305C17.6465 18.6895 17.7178 18.6588 17.7992 18.6178C17.8603 18.5871 17.9214 18.5666 17.9825 18.5358C18.064 18.4949 18.1454 18.4641 18.237 18.4232C18.2981 18.4027 18.349 18.372 18.4101 18.3515C18.5119 18.3105 18.6137 18.2695 18.7156 18.2285C18.7563 18.2081 18.797 18.1978 18.8377 18.1773C18.9803 18.1261 19.1228 18.0749 19.2654 18.0237C19.3977 17.9724 19.5301 17.9315 19.6624 17.8905C19.6828 17.8803 19.7031 17.8803 19.7337 17.87C19.8457 17.8393 19.9475 17.7983 20.0595 17.7676C20.1002 17.7573 20.1511 17.7368 20.1919 17.7266C20.2835 17.7061 20.3649 17.6754 20.4566 17.6549C20.5075 17.6447 20.5584 17.6242 20.6093 17.6139C20.6907 17.5934 20.7722 17.573 20.8536 17.5525C20.9046 17.5422 20.9656 17.5217 21.0165 17.5115C21.098 17.491 21.1693 17.4705 21.2507 17.4603C21.3118 17.45 21.3627 17.4398 21.4238 17.4193C21.5053 17.3988 21.5765 17.3886 21.658 17.3681C21.7191 17.3578 21.77 17.3476 21.8311 17.3373C21.9023 17.3271 21.9838 17.3066 22.055 17.2964C22.1161 17.2861 22.167 17.2759 22.2281 17.2656C22.3096 17.2554 22.3808 17.2452 22.4623 17.2247C22.5234 17.2144 22.5743 17.2042 22.6354 17.2042C22.7168 17.1939 22.7983 17.1837 22.8797 17.1735C22.9306 17.1632 22.9815 17.1632 23.0325 17.153C23.1343 17.1427 23.2463 17.1325 23.3481 17.1222C23.3888 17.1222 23.4397 17.112 23.4804 17.112C23.5924 17.1017 23.7044 17.0915 23.8164 17.0813C23.8673 17.0813 23.9284 17.071 23.9793 17.071C24.0608 17.071 24.1422 17.0608 24.2135 17.0608C24.2746 17.0608 24.3357 17.0608 24.3968 17.0608C24.468 17.0608 24.5393 17.0608 24.6207 17.0608C24.6818 17.0608 24.7429 17.0608 24.804 17.0608C24.8753 17.0608 24.9465 17.0608 25.0178 17.0608C25.0789 17.0608 25.14 17.0608 25.2113 17.0608C25.2825 17.0608 25.3538 17.0608 25.4251 17.071C25.4862 17.071 25.5574 17.0813 25.6185 17.0813C25.6898 17.0813 25.7611 17.0915 25.8323 17.0915C25.8934 17.0915 25.9545 17.1017 26.0258 17.1017C26.097 17.112 26.1683 17.112 26.2396 17.1222C26.3007 17.1325 26.3618 17.1325 26.4228 17.1427C26.4941 17.153 26.5756 17.1632 26.6468 17.1735C26.7079 17.1837 26.769 17.1837 26.8199 17.1939C26.9014 17.2042 26.9828 17.2144 27.0643 17.2349C27.1152 17.2452 27.1661 17.2452 27.217 17.2554C27.3493 17.2759 27.4715 17.2964 27.6039 17.3271C27.6548 17.3373 27.6955 17.3476 27.7464 17.3578C27.8279 17.3783 27.9195 17.3886 28.001 17.4091C28.0519 17.4193 28.1129 17.4295 28.1639 17.45C28.2351 17.4705 28.3166 17.4808 28.3878 17.5012C28.4489 17.5115 28.4998 17.532 28.5609 17.5422C28.6322 17.5627 28.7035 17.5832 28.7849 17.6037C28.846 17.6242 28.8969 17.6344 28.958 17.6549C29.0293 17.6754 29.1005 17.6959 29.1718 17.7164C29.2329 17.7368 29.2838 17.7471 29.3449 17.7676C29.4162 17.7881 29.4874 17.8188 29.5587 17.8393C29.6198 17.8598 29.6707 17.8803 29.7318 17.9007C29.8031 17.9315 29.8845 17.952 29.9558 17.9827C30.0067 18.0032 30.0678 18.0237 30.1187 18.0442C30.2001 18.0749 30.2714 18.1056 30.3528 18.1363C30.4038 18.1568 30.4547 18.1773 30.5056 18.1978C30.587 18.2285 30.6786 18.2695 30.7601 18.3105C30.8008 18.331 30.8416 18.3515 30.8823 18.3617C31.0045 18.4232 31.1368 18.4744 31.259 18.5358C31.8495 18.8227 32.4197 19.1505 32.9593 19.509C28.001 24.5488 25.8527 32.6618 28.0315 40.744C28.0824 40.9386 28.1435 41.1332 28.1944 41.3279C28.2249 41.4201 28.2555 41.5122 28.286 41.6147C28.3166 41.7069 28.3471 41.8093 28.3777 41.9015C29.3958 45.0463 31.0045 47.894 33.0713 50.2603C32.6029 50.7008 32.1142 51.1105 31.6153 51.4895L5.42889 38.8182ZM39.3226 52.9851C38.2332 52.3602 37.1845 51.6022 36.2173 50.7417L62.0881 43.6634C60.3471 49.0208 56.4477 53.2412 51.1737 54.6855C47.1317 55.7918 42.9472 55.0748 39.3226 52.9851ZM52.4057 72.6733L51.2755 68.0022C50.2472 63.7511 47.9971 59.92 44.8511 56.9186C47.091 57.2567 49.4022 57.144 51.6726 56.5191C53.4849 56.0274 55.1546 55.2284 56.6513 54.2041C55.8775 56.8879 55.8571 59.7663 56.6716 62.4911L59.1559 70.8089L52.4057 72.6733Z"/>
</mask>
<path d="M60.6729 50.4139C63.8088 46.3677 65.2953 41.082 64.9491 35.6632C64.9491 35.6529 64.9491 35.6427 64.9491 35.6324C64.9389 35.489 64.9287 35.3456 64.9185 35.2022C64.9084 35.1407 64.9084 35.0793 64.8982 35.0178C64.888 34.8949 64.8778 34.772 64.8575 34.649C64.8473 34.5568 64.8371 34.4646 64.8269 34.3725C64.8167 34.27 64.8066 34.1676 64.7862 34.0651C64.7658 33.8808 64.7353 33.6861 64.7047 33.5018C64.6946 33.4403 64.6844 33.3788 64.6742 33.3174C64.6538 33.174 64.6233 33.0305 64.6029 32.8871C64.5927 32.8154 64.5724 32.7335 64.5622 32.6618C64.5418 32.5286 64.5113 32.3954 64.4808 32.2623C64.4604 32.1906 64.4502 32.1086 64.4298 32.0369C64.3993 31.9037 64.3688 31.7603 64.3382 31.6272C64.3178 31.5657 64.3077 31.494 64.2873 31.4325C64.2364 31.2379 64.1855 31.0433 64.1346 30.8487C64.1346 30.8384 64.1346 30.8384 64.1346 30.8282C63.3608 27.9702 62.1187 25.3786 60.5304 23.1455C60.4286 23.0021 60.3268 22.8689 60.2249 22.7357C56.7633 18.0851 51.7948 15.0838 46.531 14.5306C46.3783 14.5101 46.2256 14.4999 46.0627 14.4896C45.7572 14.4691 45.4416 14.4487 45.126 14.4487C44.342 14.4282 43.5682 14.4691 42.7843 14.5613C42.4687 14.6023 42.1632 14.6433 41.8476 14.7047C41.3793 14.7867 40.9109 14.8994 40.4426 15.0223C38.1619 15.6472 36.1155 16.733 34.3439 18.1671C33.6109 17.6549 32.8371 17.1939 32.0124 16.7944C31.5746 16.5793 31.1368 16.3949 30.6888 16.2208C30.3936 16.1081 30.0881 16.0057 29.7929 15.9135C29.0395 15.6779 28.2759 15.4935 27.5122 15.3706C27.2068 15.3194 26.8912 15.2784 26.5857 15.2477C26.433 15.2272 26.2803 15.2169 26.1174 15.2067C20.8536 14.7867 15.4168 16.8354 11.1712 20.7792C11.049 20.8919 10.9268 21.0148 10.8046 21.1275C8.83964 23.0328 7.14954 25.3478 5.87687 28.0214C5.87687 28.0317 5.87687 28.0317 5.86669 28.0419C5.77506 28.2263 5.6936 28.4107 5.61215 28.5951C5.58161 28.6565 5.56125 28.718 5.5307 28.7794C5.46961 28.9126 5.41871 29.0355 5.3678 29.1687C5.33726 29.2404 5.30671 29.3121 5.27617 29.3838C5.22526 29.5067 5.17436 29.6297 5.12345 29.7526C5.09291 29.8243 5.07254 29.896 5.042 29.9677C4.99109 30.1009 4.94018 30.2443 4.88928 30.3775C4.86892 30.4389 4.84855 30.4901 4.82819 30.5516C4.7671 30.736 4.70601 30.9101 4.64493 31.0945C4.61438 31.1969 4.58384 31.2891 4.55329 31.3916C4.52275 31.4838 4.50239 31.5657 4.47184 31.6579C4.4413 31.7706 4.40057 31.8935 4.37003 32.0062C4.34967 32.0676 4.33948 32.1291 4.31912 32.1906C4.2784 32.3237 4.24785 32.4671 4.20713 32.6003C4.20713 32.6106 4.19695 32.6208 4.19695 32.631C2.87337 37.8963 3.38244 43.3663 5.73433 47.9145C7.63824 51.6124 7.66879 55.9967 5.79542 59.6639L1 69.1188L10.825 73.8718L13.574 67.7051C15.9768 62.3068 20.65 58.1683 26.3821 56.3347C29.3144 55.3923 32.0328 53.7738 34.3541 51.6124C35.7184 52.9236 37.2456 54.0504 38.9052 54.9416C44.2199 57.7893 48.0582 62.7267 49.4531 68.4632L51.0414 75.0293L61.5587 72.1509L58.5145 61.9585C57.3131 58.0147 58.1276 53.7021 60.6729 50.4139ZM40.9618 16.8559C41.0942 16.8149 41.2265 16.7842 41.3589 16.7535C41.3996 16.7432 41.4505 16.733 41.4913 16.7227C41.5829 16.7022 41.6745 16.6818 41.756 16.6613C41.8069 16.651 41.8578 16.6408 41.9189 16.6305C42.0003 16.6101 42.0818 16.5998 42.1632 16.5793C42.2243 16.5691 42.2752 16.5588 42.3363 16.5486C42.4178 16.5383 42.489 16.5179 42.5705 16.5076C42.6316 16.4974 42.6926 16.4871 42.7436 16.4769C42.8148 16.4666 42.8963 16.4564 42.9675 16.4462C43.0286 16.4359 43.0897 16.4359 43.1508 16.4257C43.2221 16.4154 43.3035 16.4052 43.3748 16.4052C43.4359 16.3949 43.497 16.3949 43.5581 16.3847C43.6293 16.3744 43.7108 16.3744 43.7821 16.3642C43.8431 16.3642 43.9042 16.354 43.9551 16.354C44.0366 16.354 44.1079 16.3437 44.1893 16.3437C44.2504 16.3437 44.3013 16.3335 44.3624 16.3335C44.454 16.3335 44.5355 16.3335 44.6271 16.3335C44.678 16.3335 44.7187 16.3335 44.7696 16.3335C44.902 16.3335 45.0344 16.3335 45.1667 16.3335C45.2176 16.3335 45.2685 16.3335 45.3194 16.3437C45.4009 16.3437 45.4823 16.354 45.574 16.354C45.6351 16.354 45.6962 16.3642 45.7471 16.3642C45.8183 16.3642 45.8998 16.3744 45.9711 16.3744C46.0321 16.3744 46.0932 16.3847 46.1543 16.3949C46.2256 16.4052 46.2969 16.4052 46.3681 16.4154C46.4292 16.4257 46.4903 16.4257 46.5616 16.4359C46.6328 16.4462 46.7041 16.4564 46.7754 16.4666C46.8365 16.4769 46.8975 16.4871 46.9688 16.4974C47.0401 16.5076 47.1114 16.5179 47.1724 16.5281C47.2335 16.5383 47.2946 16.5486 47.3557 16.5588C47.427 16.5691 47.4982 16.5793 47.5695 16.5998C47.6306 16.6101 47.6917 16.6203 47.7528 16.6305C47.8241 16.6408 47.8953 16.6613 47.9666 16.6715C48.0277 16.6818 48.0888 16.692 48.1397 16.7125C48.2211 16.733 48.2924 16.7535 48.3738 16.7637C48.4248 16.7739 48.4757 16.7842 48.5367 16.8047C48.6487 16.8354 48.7607 16.8661 48.8626 16.8969C48.9033 16.9071 48.9542 16.9174 48.9949 16.9378C49.0967 16.9686 49.1985 16.9993 49.3004 17.03C49.3513 17.0403 49.4022 17.0608 49.4531 17.0813C49.5345 17.1017 49.616 17.1325 49.6872 17.153C49.7382 17.1734 49.7992 17.1939 49.8501 17.2042C49.9214 17.2247 50.0029 17.2554 50.0741 17.2861C50.125 17.3066 50.1861 17.3271 50.237 17.3476C50.3083 17.3783 50.3796 17.3988 50.4508 17.4295C50.5018 17.45 50.5628 17.4705 50.6137 17.491C50.685 17.5217 50.7563 17.5525 50.8276 17.5832C50.8785 17.6037 50.9395 17.6242 50.9905 17.6549C51.0617 17.6856 51.133 17.7164 51.2043 17.7471C51.2552 17.7676 51.3061 17.7983 51.357 17.8188C51.4283 17.8495 51.5097 17.8905 51.581 17.9212C51.6319 17.9417 51.6828 17.9622 51.7235 17.9929C51.805 18.0339 51.8864 18.0749 51.9679 18.1159C52.0086 18.1363 52.0493 18.1568 52.09 18.1773C52.1919 18.2285 52.2937 18.2798 52.3955 18.3412C52.4158 18.3515 52.4362 18.3617 52.4566 18.372C52.5787 18.4334 52.7009 18.5051 52.8231 18.5768C52.9555 18.6485 53.0878 18.7305 53.21 18.8124C53.2507 18.8329 53.2813 18.8636 53.322 18.8841C53.4136 18.9456 53.5052 18.9968 53.5969 19.0583C53.6478 19.089 53.6987 19.13 53.7496 19.1607C53.8209 19.2119 53.9023 19.2631 53.9736 19.3144C54.0245 19.3553 54.0856 19.3861 54.1365 19.427C54.2078 19.4783 54.279 19.5295 54.3503 19.5807C54.4114 19.6217 54.4623 19.6626 54.5234 19.7036C54.5947 19.7548 54.6557 19.8061 54.727 19.8573C54.7881 19.8982 54.839 19.9495 54.9001 19.9904C54.9612 20.0417 55.0325 20.0929 55.0935 20.1441C55.1546 20.1851 55.2055 20.2363 55.2666 20.2773C55.3277 20.3285 55.399 20.3797 55.4601 20.4309C55.5212 20.4821 55.5721 20.5231 55.6332 20.5743C55.6942 20.6255 55.7553 20.687 55.8164 20.7382C55.8673 20.7894 55.9284 20.8407 55.9793 20.8816C56.0404 20.9329 56.1015 20.9943 56.1626 21.0558C56.2135 21.107 56.2746 21.1582 56.3255 21.2094C56.3866 21.2709 56.4477 21.3324 56.5189 21.3938C56.5698 21.445 56.6207 21.486 56.6716 21.5372C56.7429 21.6089 56.8142 21.6806 56.8855 21.7523C56.9567 21.824 57.028 21.906 57.0993 21.9777C57.1705 22.0494 57.2418 22.1314 57.3131 22.2031C57.364 22.2543 57.4149 22.3157 57.4658 22.367C57.5269 22.4284 57.5778 22.4899 57.6389 22.5616C57.6898 22.623 57.7407 22.6743 57.7916 22.7357C57.8425 22.7972 57.9036 22.8586 57.9545 22.9201C58.0054 22.9816 58.0563 23.043 58.1072 23.1045C58.1581 23.166 58.209 23.2274 58.2599 23.2991C58.3109 23.3606 58.3618 23.422 58.4127 23.4835C58.4636 23.545 58.5145 23.6167 58.5654 23.6781C58.6163 23.7396 58.6672 23.8113 58.7079 23.8728C58.7588 23.9342 58.8097 24.0059 58.8505 24.0674C58.9014 24.1289 58.9421 24.2006 58.993 24.262C59.0439 24.3337 59.0846 24.3952 59.1355 24.4669C59.1763 24.5284 59.2272 24.6001 59.2679 24.6615C59.3188 24.7332 59.3595 24.8049 59.4104 24.8766C59.4512 24.9381 59.5021 25.0098 59.5428 25.0713C59.5937 25.143 59.6344 25.2249 59.6853 25.2966C59.7261 25.3581 59.7668 25.4298 59.8075 25.4913C59.8584 25.5732 59.9093 25.6654 59.9602 25.7473C59.9908 25.8088 60.0315 25.86 60.062 25.9215C60.1435 26.0649 60.2249 26.2083 60.3064 26.3517C60.3369 26.4029 60.3675 26.4644 60.398 26.5156C60.4489 26.6078 60.4998 26.7 60.5508 26.8024C60.5813 26.8639 60.6118 26.9254 60.6526 26.9971C60.6933 27.079 60.7442 27.1712 60.7849 27.2532C60.8155 27.3249 60.846 27.3863 60.8867 27.458C60.9275 27.54 60.9682 27.6322 61.0089 27.7141C61.0395 27.7858 61.07 27.8575 61.1005 27.919C61.1413 28.0009 61.182 28.0931 61.2125 28.1751C61.2431 28.2468 61.2736 28.3185 61.3042 28.3902C61.3449 28.4824 61.3754 28.5643 61.4162 28.6565C61.4467 28.7282 61.4773 28.7999 61.4976 28.8716C61.5383 28.9638 61.5689 29.056 61.5994 29.1482C61.63 29.2199 61.6503 29.2916 61.6809 29.3531C61.7114 29.4453 61.7521 29.5477 61.7827 29.6399C61.8031 29.7116 61.8336 29.7731 61.854 29.8448C61.8845 29.9472 61.9252 30.0497 61.9558 30.1521C61.9761 30.2136 61.9965 30.275 62.0169 30.3467C62.0576 30.4594 62.0881 30.5823 62.1289 30.695C62.1492 30.7462 62.1594 30.7974 62.1798 30.8487C62.2307 31.0228 62.2816 31.1867 62.3223 31.3608C62.3223 31.3711 62.3223 31.3711 62.3223 31.3813C62.3732 31.5555 62.4139 31.7399 62.4547 31.914C62.4648 31.9755 62.4852 32.0369 62.4954 32.0984C62.5259 32.2213 62.5565 32.3442 62.5768 32.4671C62.5972 32.5389 62.6074 32.6106 62.6176 32.6823C62.6379 32.7949 62.6685 32.9179 62.6888 33.0305C62.699 33.1022 62.7194 33.174 62.7296 33.2457C62.7499 33.3686 62.7703 33.5018 62.7906 33.6247C62.811 33.7169 62.8212 33.8193 62.8314 33.9115C62.8517 34.0447 62.8721 34.1778 62.8925 34.311C62.9026 34.4134 62.923 34.5261 62.9332 34.6285C62.9434 34.7003 62.9535 34.772 62.9535 34.8334C62.9637 34.9563 62.9739 35.0793 62.9943 35.1919C62.9943 35.2329 63.0045 35.2841 63.0045 35.3251C63.1877 37.4763 63.0554 39.5762 62.6379 41.5635L37.1031 48.5496L34.6494 49.2257C34.5476 49.1232 34.4559 49.0106 34.3643 48.8979C32.5317 46.7775 31.0554 44.2166 30.1187 41.3074C30.0678 41.1435 30.0169 40.9693 29.966 40.7952C29.966 40.785 29.966 40.785 29.9558 40.7747C29.9049 40.6006 29.854 40.4162 29.8031 40.242C27.777 32.7335 29.7929 25.2044 34.4254 20.6563C34.8835 20.2056 35.3621 19.7856 35.8711 19.4066C37.3882 18.2388 39.0885 17.3681 40.9618 16.8559ZM11.8431 66.9164L9.88832 71.3006L3.5657 68.248L7.51607 60.5244C8.8091 57.9942 9.31817 55.1567 9.03309 52.3807C10.3261 53.6612 11.8228 54.747 13.5129 55.5665C15.6408 56.5908 17.8807 57.1235 20.1511 57.2054C16.5266 59.5717 13.6147 62.9316 11.8431 66.9164ZM26.3109 54.3372C22.3707 55.7304 18.1352 55.6689 14.3478 53.8455C9.41998 51.469 6.35539 46.6033 5.60197 41.0103L29.7725 52.6983C28.6526 53.3641 27.4919 53.9173 26.3109 54.3372ZM5.42889 38.8182C5.37798 36.7899 5.63252 34.69 6.20267 32.6208C6.21285 32.5798 6.22304 32.5389 6.23322 32.4979C6.26376 32.3852 6.30449 32.2623 6.33503 32.1496C6.35539 32.0779 6.37576 32.0164 6.39612 31.9447C6.42666 31.8423 6.45721 31.7398 6.48775 31.6374C6.52848 31.5145 6.5692 31.3813 6.60993 31.2584C6.64047 31.1662 6.67101 31.074 6.71174 30.9818C6.75247 30.8589 6.80337 30.736 6.8441 30.6233C6.87464 30.5516 6.895 30.4901 6.92555 30.4184C6.96627 30.3057 7.01718 30.1931 7.05791 30.0804C7.08845 30.0087 7.10881 29.9472 7.13936 29.8755C7.19026 29.7628 7.24117 29.6399 7.29208 29.5272C7.31244 29.4658 7.34298 29.4146 7.36335 29.3531C7.43462 29.1892 7.51607 29.0151 7.59752 28.8512C7.59752 28.8512 7.59752 28.8409 7.6077 28.8409C7.68915 28.677 7.76042 28.5234 7.84187 28.3595C7.86223 28.3082 7.89278 28.2673 7.91314 28.2161C7.96405 28.1034 8.02514 28.0009 8.08622 27.8883C8.11677 27.8268 8.14731 27.7653 8.18804 27.7141C8.23894 27.6219 8.28985 27.5297 8.34076 27.4375C8.38148 27.3761 8.41203 27.3146 8.45275 27.2532C8.50366 27.161 8.55457 27.079 8.60547 26.9868C8.6462 26.9254 8.68692 26.8639 8.71747 26.7922C8.76837 26.7102 8.81928 26.6283 8.87019 26.5463C8.91091 26.4849 8.95164 26.4132 8.99236 26.3517C9.04327 26.2698 9.09418 26.1878 9.14508 26.1161C9.18581 26.0547 9.22654 25.9932 9.27744 25.9215C9.32835 25.8395 9.37926 25.7678 9.44034 25.6859C9.48107 25.6244 9.53198 25.563 9.5727 25.5015C9.62361 25.4195 9.6847 25.3478 9.7356 25.2761C9.77633 25.2147 9.82724 25.1532 9.86796 25.0918C9.92905 25.0098 9.97996 24.9381 10.041 24.8562C10.0818 24.7947 10.1327 24.7435 10.1734 24.682C10.2345 24.6001 10.3058 24.5181 10.377 24.4362C10.4178 24.3849 10.4483 24.344 10.489 24.2928C10.5908 24.1698 10.6927 24.0367 10.8046 23.9137C10.8454 23.8625 10.8963 23.8113 10.937 23.7601C10.9981 23.6884 11.0694 23.6064 11.1304 23.5347C11.1814 23.4733 11.2323 23.422 11.2832 23.3708C11.3443 23.3094 11.4053 23.2377 11.4664 23.1762C11.5173 23.1147 11.5784 23.0635 11.6293 23.0021C11.6904 22.9406 11.7515 22.8791 11.8024 22.8177C11.8635 22.7562 11.9144 22.705 11.9755 22.6435C12.0366 22.5821 12.0977 22.5309 12.1486 22.4694C12.2097 22.4182 12.2606 22.3567 12.3217 22.3055C12.3828 22.244 12.4438 22.1928 12.5049 22.1416C12.566 22.0904 12.6271 22.0289 12.6882 21.9777C12.7493 21.9265 12.8104 21.865 12.8715 21.8138C12.9325 21.7626 12.9936 21.7114 13.0547 21.6601C13.1158 21.6089 13.1769 21.5577 13.238 21.5065C13.2991 21.4553 13.3602 21.4041 13.4213 21.3528C13.4823 21.3016 13.5536 21.2504 13.6147 21.1992C13.6758 21.148 13.7369 21.0967 13.798 21.0558C13.8692 21.0046 13.9303 20.9533 14.0016 20.9021C14.0627 20.8611 14.1136 20.8099 14.1747 20.769C14.2561 20.7075 14.3478 20.646 14.4292 20.5846C14.5107 20.5231 14.6023 20.4616 14.6837 20.4002C14.7652 20.3387 14.8466 20.2773 14.9383 20.226C14.9994 20.1851 15.0605 20.1441 15.1114 20.1134C15.1826 20.0621 15.2539 20.0212 15.3252 19.97C15.3863 19.929 15.4473 19.888 15.5084 19.8573C15.5797 19.8163 15.651 19.7651 15.7222 19.7241C15.7833 19.6831 15.8444 19.6524 15.9157 19.6114C15.987 19.5705 16.0582 19.5295 16.1295 19.4885C16.1906 19.4475 16.2619 19.4168 16.3229 19.3758C16.3942 19.3349 16.4655 19.2939 16.5367 19.2529C16.5978 19.2222 16.6691 19.1812 16.7302 19.1505C16.8015 19.1095 16.8727 19.0685 16.9542 19.0378C17.0153 19.0071 17.0865 18.9763 17.1476 18.9353C17.2189 18.8944 17.3004 18.8636 17.3716 18.8227C17.4327 18.7919 17.4938 18.7612 17.5651 18.7305C17.6465 18.6895 17.7178 18.6588 17.7992 18.6178C17.8603 18.5871 17.9214 18.5666 17.9825 18.5358C18.064 18.4949 18.1454 18.4641 18.237 18.4232C18.2981 18.4027 18.349 18.372 18.4101 18.3515C18.5119 18.3105 18.6137 18.2695 18.7156 18.2285C18.7563 18.2081 18.797 18.1978 18.8377 18.1773C18.9803 18.1261 19.1228 18.0749 19.2654 18.0237C19.3977 17.9724 19.5301 17.9315 19.6624 17.8905C19.6828 17.8803 19.7031 17.8803 19.7337 17.87C19.8457 17.8393 19.9475 17.7983 20.0595 17.7676C20.1002 17.7573 20.1511 17.7368 20.1919 17.7266C20.2835 17.7061 20.3649 17.6754 20.4566 17.6549C20.5075 17.6447 20.5584 17.6242 20.6093 17.6139C20.6907 17.5934 20.7722 17.573 20.8536 17.5525C20.9046 17.5422 20.9656 17.5217 21.0165 17.5115C21.098 17.491 21.1693 17.4705 21.2507 17.4603C21.3118 17.45 21.3627 17.4398 21.4238 17.4193C21.5053 17.3988 21.5765 17.3886 21.658 17.3681C21.7191 17.3578 21.77 17.3476 21.8311 17.3373C21.9023 17.3271 21.9838 17.3066 22.055 17.2964C22.1161 17.2861 22.167 17.2759 22.2281 17.2656C22.3096 17.2554 22.3808 17.2452 22.4623 17.2247C22.5234 17.2144 22.5743 17.2042 22.6354 17.2042C22.7168 17.1939 22.7983 17.1837 22.8797 17.1735C22.9306 17.1632 22.9815 17.1632 23.0325 17.153C23.1343 17.1427 23.2463 17.1325 23.3481 17.1222C23.3888 17.1222 23.4397 17.112 23.4804 17.112C23.5924 17.1017 23.7044 17.0915 23.8164 17.0813C23.8673 17.0813 23.9284 17.071 23.9793 17.071C24.0608 17.071 24.1422 17.0608 24.2135 17.0608C24.2746 17.0608 24.3357 17.0608 24.3968 17.0608C24.468 17.0608 24.5393 17.0608 24.6207 17.0608C24.6818 17.0608 24.7429 17.0608 24.804 17.0608C24.8753 17.0608 24.9465 17.0608 25.0178 17.0608C25.0789 17.0608 25.14 17.0608 25.2113 17.0608C25.2825 17.0608 25.3538 17.0608 25.4251 17.071C25.4862 17.071 25.5574 17.0813 25.6185 17.0813C25.6898 17.0813 25.7611 17.0915 25.8323 17.0915C25.8934 17.0915 25.9545 17.1017 26.0258 17.1017C26.097 17.112 26.1683 17.112 26.2396 17.1222C26.3007 17.1325 26.3618 17.1325 26.4228 17.1427C26.4941 17.153 26.5756 17.1632 26.6468 17.1735C26.7079 17.1837 26.769 17.1837 26.8199 17.1939C26.9014 17.2042 26.9828 17.2144 27.0643 17.2349C27.1152 17.2452 27.1661 17.2452 27.217 17.2554C27.3493 17.2759 27.4715 17.2964 27.6039 17.3271C27.6548 17.3373 27.6955 17.3476 27.7464 17.3578C27.8279 17.3783 27.9195 17.3886 28.001 17.4091C28.0519 17.4193 28.1129 17.4295 28.1639 17.45C28.2351 17.4705 28.3166 17.4808 28.3878 17.5012C28.4489 17.5115 28.4998 17.532 28.5609 17.5422C28.6322 17.5627 28.7035 17.5832 28.7849 17.6037C28.846 17.6242 28.8969 17.6344 28.958 17.6549C29.0293 17.6754 29.1005 17.6959 29.1718 17.7164C29.2329 17.7368 29.2838 17.7471 29.3449 17.7676C29.4162 17.7881 29.4874 17.8188 29.5587 17.8393C29.6198 17.8598 29.6707 17.8803 29.7318 17.9007C29.8031 17.9315 29.8845 17.952 29.9558 17.9827C30.0067 18.0032 30.0678 18.0237 30.1187 18.0442C30.2001 18.0749 30.2714 18.1056 30.3528 18.1363C30.4038 18.1568 30.4547 18.1773 30.5056 18.1978C30.587 18.2285 30.6786 18.2695 30.7601 18.3105C30.8008 18.331 30.8416 18.3515 30.8823 18.3617C31.0045 18.4232 31.1368 18.4744 31.259 18.5358C31.8495 18.8227 32.4197 19.1505 32.9593 19.509C28.001 24.5488 25.8527 32.6618 28.0315 40.744C28.0824 40.9386 28.1435 41.1332 28.1944 41.3279C28.2249 41.4201 28.2555 41.5122 28.286 41.6147C28.3166 41.7069 28.3471 41.8093 28.3777 41.9015C29.3958 45.0463 31.0045 47.894 33.0713 50.2603C32.6029 50.7008 32.1142 51.1105 31.6153 51.4895L5.42889 38.8182ZM39.3226 52.9851C38.2332 52.3602 37.1845 51.6022 36.2173 50.7417L62.0881 43.6634C60.3471 49.0208 56.4477 53.2412 51.1737 54.6855C47.1317 55.7918 42.9472 55.0748 39.3226 52.9851ZM52.4057 72.6733L51.2755 68.0022C50.2472 63.7511 47.9971 59.92 44.8511 56.9186C47.091 57.2567 49.4022 57.144 51.6726 56.5191C53.4849 56.0274 55.1546 55.2284 56.6513 54.2041C55.8775 56.8879 55.8571 59.7663 56.6716 62.4911L59.1559 70.8089L52.4057 72.6733Z" fill="#144D29"/>
<path d="M60.6729 50.4139C63.8088 46.3677 65.2953 41.082 64.9491 35.6632C64.9491 35.6529 64.9491 35.6427 64.9491 35.6324C64.9389 35.489 64.9287 35.3456 64.9185 35.2022C64.9084 35.1407 64.9084 35.0793 64.8982 35.0178C64.888 34.8949 64.8778 34.772 64.8575 34.649C64.8473 34.5568 64.8371 34.4646 64.8269 34.3725C64.8167 34.27 64.8066 34.1676 64.7862 34.0651C64.7658 33.8808 64.7353 33.6861 64.7047 33.5018C64.6946 33.4403 64.6844 33.3788 64.6742 33.3174C64.6538 33.174 64.6233 33.0305 64.6029 32.8871C64.5927 32.8154 64.5724 32.7335 64.5622 32.6618C64.5418 32.5286 64.5113 32.3954 64.4808 32.2623C64.4604 32.1906 64.4502 32.1086 64.4298 32.0369C64.3993 31.9037 64.3688 31.7603 64.3382 31.6272C64.3178 31.5657 64.3077 31.494 64.2873 31.4325C64.2364 31.2379 64.1855 31.0433 64.1346 30.8487C64.1346 30.8384 64.1346 30.8384 64.1346 30.8282C63.3608 27.9702 62.1187 25.3786 60.5304 23.1455C60.4286 23.0021 60.3268 22.8689 60.2249 22.7357C56.7633 18.0851 51.7948 15.0838 46.531 14.5306C46.3783 14.5101 46.2256 14.4999 46.0627 14.4896C45.7572 14.4691 45.4416 14.4487 45.126 14.4487C44.342 14.4282 43.5682 14.4691 42.7843 14.5613C42.4687 14.6023 42.1632 14.6433 41.8476 14.7047C41.3793 14.7867 40.9109 14.8994 40.4426 15.0223C38.1619 15.6472 36.1155 16.733 34.3439 18.1671C33.6109 17.6549 32.8371 17.1939 32.0124 16.7944C31.5746 16.5793 31.1368 16.3949 30.6888 16.2208C30.3936 16.1081 30.0881 16.0057 29.7929 15.9135C29.0395 15.6779 28.2759 15.4935 27.5122 15.3706C27.2068 15.3194 26.8912 15.2784 26.5857 15.2477C26.433 15.2272 26.2803 15.2169 26.1174 15.2067C20.8536 14.7867 15.4168 16.8354 11.1712 20.7792C11.049 20.8919 10.9268 21.0148 10.8046 21.1275C8.83964 23.0328 7.14954 25.3478 5.87687 28.0214C5.87687 28.0317 5.87687 28.0317 5.86669 28.0419C5.77506 28.2263 5.6936 28.4107 5.61215 28.5951C5.58161 28.6565 5.56125 28.718 5.5307 28.7794C5.46961 28.9126 5.41871 29.0355 5.3678 29.1687C5.33726 29.2404 5.30671 29.3121 5.27617 29.3838C5.22526 29.5067 5.17436 29.6297 5.12345 29.7526C5.09291 29.8243 5.07254 29.896 5.042 29.9677C4.99109 30.1009 4.94018 30.2443 4.88928 30.3775C4.86892 30.4389 4.84855 30.4901 4.82819 30.5516C4.7671 30.736 4.70601 30.9101 4.64493 31.0945C4.61438 31.1969 4.58384 31.2891 4.55329 31.3916C4.52275 31.4838 4.50239 31.5657 4.47184 31.6579C4.4413 31.7706 4.40057 31.8935 4.37003 32.0062C4.34967 32.0676 4.33948 32.1291 4.31912 32.1906C4.2784 32.3237 4.24785 32.4671 4.20713 32.6003C4.20713 32.6106 4.19695 32.6208 4.19695 32.631C2.87337 37.8963 3.38244 43.3663 5.73433 47.9145C7.63824 51.6124 7.66879 55.9967 5.79542 59.6639L1 69.1188L10.825 73.8718L13.574 67.7051C15.9768 62.3068 20.65 58.1683 26.3821 56.3347C29.3144 55.3923 32.0328 53.7738 34.3541 51.6124C35.7184 52.9236 37.2456 54.0504 38.9052 54.9416C44.2199 57.7893 48.0582 62.7267 49.4531 68.4632L51.0414 75.0293L61.5587 72.1509L58.5145 61.9585C57.3131 58.0147 58.1276 53.7021 60.6729 50.4139ZM40.9618 16.8559C41.0942 16.8149 41.2265 16.7842 41.3589 16.7535C41.3996 16.7432 41.4505 16.733 41.4913 16.7227C41.5829 16.7022 41.6745 16.6818 41.756 16.6613C41.8069 16.651 41.8578 16.6408 41.9189 16.6305C42.0003 16.6101 42.0818 16.5998 42.1632 16.5793C42.2243 16.5691 42.2752 16.5588 42.3363 16.5486C42.4178 16.5383 42.489 16.5179 42.5705 16.5076C42.6316 16.4974 42.6926 16.4871 42.7436 16.4769C42.8148 16.4666 42.8963 16.4564 42.9675 16.4462C43.0286 16.4359 43.0897 16.4359 43.1508 16.4257C43.2221 16.4154 43.3035 16.4052 43.3748 16.4052C43.4359 16.3949 43.497 16.3949 43.5581 16.3847C43.6293 16.3744 43.7108 16.3744 43.7821 16.3642C43.8431 16.3642 43.9042 16.354 43.9551 16.354C44.0366 16.354 44.1079 16.3437 44.1893 16.3437C44.2504 16.3437 44.3013 16.3335 44.3624 16.3335C44.454 16.3335 44.5355 16.3335 44.6271 16.3335C44.678 16.3335 44.7187 16.3335 44.7696 16.3335C44.902 16.3335 45.0344 16.3335 45.1667 16.3335C45.2176 16.3335 45.2685 16.3335 45.3194 16.3437C45.4009 16.3437 45.4823 16.354 45.574 16.354C45.6351 16.354 45.6962 16.3642 45.7471 16.3642C45.8183 16.3642 45.8998 16.3744 45.9711 16.3744C46.0321 16.3744 46.0932 16.3847 46.1543 16.3949C46.2256 16.4052 46.2969 16.4052 46.3681 16.4154C46.4292 16.4257 46.4903 16.4257 46.5616 16.4359C46.6328 16.4462 46.7041 16.4564 46.7754 16.4666C46.8365 16.4769 46.8975 16.4871 46.9688 16.4974C47.0401 16.5076 47.1114 16.5179 47.1724 16.5281C47.2335 16.5383 47.2946 16.5486 47.3557 16.5588C47.427 16.5691 47.4982 16.5793 47.5695 16.5998C47.6306 16.6101 47.6917 16.6203 47.7528 16.6305C47.8241 16.6408 47.8953 16.6613 47.9666 16.6715C48.0277 16.6818 48.0888 16.692 48.1397 16.7125C48.2211 16.733 48.2924 16.7535 48.3738 16.7637C48.4248 16.7739 48.4757 16.7842 48.5367 16.8047C48.6487 16.8354 48.7607 16.8661 48.8626 16.8969C48.9033 16.9071 48.9542 16.9174 48.9949 16.9378C49.0967 16.9686 49.1985 16.9993 49.3004 17.03C49.3513 17.0403 49.4022 17.0608 49.4531 17.0813C49.5345 17.1017 49.616 17.1325 49.6872 17.153C49.7382 17.1734 49.7992 17.1939 49.8501 17.2042C49.9214 17.2247 50.0029 17.2554 50.0741 17.2861C50.125 17.3066 50.1861 17.3271 50.237 17.3476C50.3083 17.3783 50.3796 17.3988 50.4508 17.4295C50.5018 17.45 50.5628 17.4705 50.6137 17.491C50.685 17.5217 50.7563 17.5525 50.8276 17.5832C50.8785 17.6037 50.9395 17.6242 50.9905 17.6549C51.0617 17.6856 51.133 17.7164 51.2043 17.7471C51.2552 17.7676 51.3061 17.7983 51.357 17.8188C51.4283 17.8495 51.5097 17.8905 51.581 17.9212C51.6319 17.9417 51.6828 17.9622 51.7235 17.9929C51.805 18.0339 51.8864 18.0749 51.9679 18.1159C52.0086 18.1363 52.0493 18.1568 52.09 18.1773C52.1919 18.2285 52.2937 18.2798 52.3955 18.3412C52.4158 18.3515 52.4362 18.3617 52.4566 18.372C52.5787 18.4334 52.7009 18.5051 52.8231 18.5768C52.9555 18.6485 53.0878 18.7305 53.21 18.8124C53.2507 18.8329 53.2813 18.8636 53.322 18.8841C53.4136 18.9456 53.5052 18.9968 53.5969 19.0583C53.6478 19.089 53.6987 19.13 53.7496 19.1607C53.8209 19.2119 53.9023 19.2631 53.9736 19.3144C54.0245 19.3553 54.0856 19.3861 54.1365 19.427C54.2078 19.4783 54.279 19.5295 54.3503 19.5807C54.4114 19.6217 54.4623 19.6626 54.5234 19.7036C54.5947 19.7548 54.6557 19.8061 54.727 19.8573C54.7881 19.8982 54.839 19.9495 54.9001 19.9904C54.9612 20.0417 55.0325 20.0929 55.0935 20.1441C55.1546 20.1851 55.2055 20.2363 55.2666 20.2773C55.3277 20.3285 55.399 20.3797 55.4601 20.4309C55.5212 20.4821 55.5721 20.5231 55.6332 20.5743C55.6942 20.6255 55.7553 20.687 55.8164 20.7382C55.8673 20.7894 55.9284 20.8407 55.9793 20.8816C56.0404 20.9329 56.1015 20.9943 56.1626 21.0558C56.2135 21.107 56.2746 21.1582 56.3255 21.2094C56.3866 21.2709 56.4477 21.3324 56.5189 21.3938C56.5698 21.445 56.6207 21.486 56.6716 21.5372C56.7429 21.6089 56.8142 21.6806 56.8855 21.7523C56.9567 21.824 57.028 21.906 57.0993 21.9777C57.1705 22.0494 57.2418 22.1314 57.3131 22.2031C57.364 22.2543 57.4149 22.3157 57.4658 22.367C57.5269 22.4284 57.5778 22.4899 57.6389 22.5616C57.6898 22.623 57.7407 22.6743 57.7916 22.7357C57.8425 22.7972 57.9036 22.8586 57.9545 22.9201C58.0054 22.9816 58.0563 23.043 58.1072 23.1045C58.1581 23.166 58.209 23.2274 58.2599 23.2991C58.3109 23.3606 58.3618 23.422 58.4127 23.4835C58.4636 23.545 58.5145 23.6167 58.5654 23.6781C58.6163 23.7396 58.6672 23.8113 58.7079 23.8728C58.7588 23.9342 58.8097 24.0059 58.8505 24.0674C58.9014 24.1289 58.9421 24.2006 58.993 24.262C59.0439 24.3337 59.0846 24.3952 59.1355 24.4669C59.1763 24.5284 59.2272 24.6001 59.2679 24.6615C59.3188 24.7332 59.3595 24.8049 59.4104 24.8766C59.4512 24.9381 59.5021 25.0098 59.5428 25.0713C59.5937 25.143 59.6344 25.2249 59.6853 25.2966C59.7261 25.3581 59.7668 25.4298 59.8075 25.4913C59.8584 25.5732 59.9093 25.6654 59.9602 25.7473C59.9908 25.8088 60.0315 25.86 60.062 25.9215C60.1435 26.0649 60.2249 26.2083 60.3064 26.3517C60.3369 26.4029 60.3675 26.4644 60.398 26.5156C60.4489 26.6078 60.4998 26.7 60.5508 26.8024C60.5813 26.8639 60.6118 26.9254 60.6526 26.9971C60.6933 27.079 60.7442 27.1712 60.7849 27.2532C60.8155 27.3249 60.846 27.3863 60.8867 27.458C60.9275 27.54 60.9682 27.6322 61.0089 27.7141C61.0395 27.7858 61.07 27.8575 61.1005 27.919C61.1413 28.0009 61.182 28.0931 61.2125 28.1751C61.2431 28.2468 61.2736 28.3185 61.3042 28.3902C61.3449 28.4824 61.3754 28.5643 61.4162 28.6565C61.4467 28.7282 61.4773 28.7999 61.4976 28.8716C61.5383 28.9638 61.5689 29.056 61.5994 29.1482C61.63 29.2199 61.6503 29.2916 61.6809 29.3531C61.7114 29.4453 61.7521 29.5477 61.7827 29.6399C61.8031 29.7116 61.8336 29.7731 61.854 29.8448C61.8845 29.9472 61.9252 30.0497 61.9558 30.1521C61.9761 30.2136 61.9965 30.275 62.0169 30.3467C62.0576 30.4594 62.0881 30.5823 62.1289 30.695C62.1492 30.7462 62.1594 30.7974 62.1798 30.8487C62.2307 31.0228 62.2816 31.1867 62.3223 31.3608C62.3223 31.3711 62.3223 31.3711 62.3223 31.3813C62.3732 31.5555 62.4139 31.7399 62.4547 31.914C62.4648 31.9755 62.4852 32.0369 62.4954 32.0984C62.5259 32.2213 62.5565 32.3442 62.5768 32.4671C62.5972 32.5389 62.6074 32.6106 62.6176 32.6823C62.6379 32.7949 62.6685 32.9179 62.6888 33.0305C62.699 33.1022 62.7194 33.174 62.7296 33.2457C62.7499 33.3686 62.7703 33.5018 62.7906 33.6247C62.811 33.7169 62.8212 33.8193 62.8314 33.9115C62.8517 34.0447 62.8721 34.1778 62.8925 34.311C62.9026 34.4134 62.923 34.5261 62.9332 34.6285C62.9434 34.7003 62.9535 34.772 62.9535 34.8334C62.9637 34.9563 62.9739 35.0793 62.9943 35.1919C62.9943 35.2329 63.0045 35.2841 63.0045 35.3251C63.1877 37.4763 63.0554 39.5762 62.6379 41.5635L37.1031 48.5496L34.6494 49.2257C34.5476 49.1232 34.4559 49.0106 34.3643 48.8979C32.5317 46.7775 31.0554 44.2166 30.1187 41.3074C30.0678 41.1435 30.0169 40.9693 29.966 40.7952C29.966 40.785 29.966 40.785 29.9558 40.7747C29.9049 40.6006 29.854 40.4162 29.8031 40.242C27.777 32.7335 29.7929 25.2044 34.4254 20.6563C34.8835 20.2056 35.3621 19.7856 35.8711 19.4066C37.3882 18.2388 39.0885 17.3681 40.9618 16.8559ZM11.8431 66.9164L9.88832 71.3006L3.5657 68.248L7.51607 60.5244C8.8091 57.9942 9.31817 55.1567 9.03309 52.3807C10.3261 53.6612 11.8228 54.747 13.5129 55.5665C15.6408 56.5908 17.8807 57.1235 20.1511 57.2054C16.5266 59.5717 13.6147 62.9316 11.8431 66.9164ZM26.3109 54.3372C22.3707 55.7304 18.1352 55.6689 14.3478 53.8455C9.41998 51.469 6.35539 46.6033 5.60197 41.0103L29.7725 52.6983C28.6526 53.3641 27.4919 53.9173 26.3109 54.3372ZM5.42889 38.8182C5.37798 36.7899 5.63252 34.69 6.20267 32.6208C6.21285 32.5798 6.22304 32.5389 6.23322 32.4979C6.26376 32.3852 6.30449 32.2623 6.33503 32.1496C6.35539 32.0779 6.37576 32.0164 6.39612 31.9447C6.42666 31.8423 6.45721 31.7398 6.48775 31.6374C6.52848 31.5145 6.5692 31.3813 6.60993 31.2584C6.64047 31.1662 6.67101 31.074 6.71174 30.9818C6.75247 30.8589 6.80337 30.736 6.8441 30.6233C6.87464 30.5516 6.895 30.4901 6.92555 30.4184C6.96627 30.3057 7.01718 30.1931 7.05791 30.0804C7.08845 30.0087 7.10881 29.9472 7.13936 29.8755C7.19026 29.7628 7.24117 29.6399 7.29208 29.5272C7.31244 29.4658 7.34298 29.4146 7.36335 29.3531C7.43462 29.1892 7.51607 29.0151 7.59752 28.8512C7.59752 28.8512 7.59752 28.8409 7.6077 28.8409C7.68915 28.677 7.76042 28.5234 7.84187 28.3595C7.86223 28.3082 7.89278 28.2673 7.91314 28.2161C7.96405 28.1034 8.02514 28.0009 8.08622 27.8883C8.11677 27.8268 8.14731 27.7653 8.18804 27.7141C8.23894 27.6219 8.28985 27.5297 8.34076 27.4375C8.38148 27.3761 8.41203 27.3146 8.45275 27.2532C8.50366 27.161 8.55457 27.079 8.60547 26.9868C8.6462 26.9254 8.68692 26.8639 8.71747 26.7922C8.76837 26.7102 8.81928 26.6283 8.87019 26.5463C8.91091 26.4849 8.95164 26.4132 8.99236 26.3517C9.04327 26.2698 9.09418 26.1878 9.14508 26.1161C9.18581 26.0547 9.22654 25.9932 9.27744 25.9215C9.32835 25.8395 9.37926 25.7678 9.44034 25.6859C9.48107 25.6244 9.53198 25.563 9.5727 25.5015C9.62361 25.4195 9.6847 25.3478 9.7356 25.2761C9.77633 25.2147 9.82724 25.1532 9.86796 25.0918C9.92905 25.0098 9.97996 24.9381 10.041 24.8562C10.0818 24.7947 10.1327 24.7435 10.1734 24.682C10.2345 24.6001 10.3058 24.5181 10.377 24.4362C10.4178 24.3849 10.4483 24.344 10.489 24.2928C10.5908 24.1698 10.6927 24.0367 10.8046 23.9137C10.8454 23.8625 10.8963 23.8113 10.937 23.7601C10.9981 23.6884 11.0694 23.6064 11.1304 23.5347C11.1814 23.4733 11.2323 23.422 11.2832 23.3708C11.3443 23.3094 11.4053 23.2377 11.4664 23.1762C11.5173 23.1147 11.5784 23.0635 11.6293 23.0021C11.6904 22.9406 11.7515 22.8791 11.8024 22.8177C11.8635 22.7562 11.9144 22.705 11.9755 22.6435C12.0366 22.5821 12.0977 22.5309 12.1486 22.4694C12.2097 22.4182 12.2606 22.3567 12.3217 22.3055C12.3828 22.244 12.4438 22.1928 12.5049 22.1416C12.566 22.0904 12.6271 22.0289 12.6882 21.9777C12.7493 21.9265 12.8104 21.865 12.8715 21.8138C12.9325 21.7626 12.9936 21.7114 13.0547 21.6601C13.1158 21.6089 13.1769 21.5577 13.238 21.5065C13.2991 21.4553 13.3602 21.4041 13.4213 21.3528C13.4823 21.3016 13.5536 21.2504 13.6147 21.1992C13.6758 21.148 13.7369 21.0967 13.798 21.0558C13.8692 21.0046 13.9303 20.9533 14.0016 20.9021C14.0627 20.8611 14.1136 20.8099 14.1747 20.769C14.2561 20.7075 14.3478 20.646 14.4292 20.5846C14.5107 20.5231 14.6023 20.4616 14.6837 20.4002C14.7652 20.3387 14.8466 20.2773 14.9383 20.226C14.9994 20.1851 15.0605 20.1441 15.1114 20.1134C15.1826 20.0621 15.2539 20.0212 15.3252 19.97C15.3863 19.929 15.4473 19.888 15.5084 19.8573C15.5797 19.8163 15.651 19.7651 15.7222 19.7241C15.7833 19.6831 15.8444 19.6524 15.9157 19.6114C15.987 19.5705 16.0582 19.5295 16.1295 19.4885C16.1906 19.4475 16.2619 19.4168 16.3229 19.3758C16.3942 19.3349 16.4655 19.2939 16.5367 19.2529C16.5978 19.2222 16.6691 19.1812 16.7302 19.1505C16.8015 19.1095 16.8727 19.0685 16.9542 19.0378C17.0153 19.0071 17.0865 18.9763 17.1476 18.9353C17.2189 18.8944 17.3004 18.8636 17.3716 18.8227C17.4327 18.7919 17.4938 18.7612 17.5651 18.7305C17.6465 18.6895 17.7178 18.6588 17.7992 18.6178C17.8603 18.5871 17.9214 18.5666 17.9825 18.5358C18.064 18.4949 18.1454 18.4641 18.237 18.4232C18.2981 18.4027 18.349 18.372 18.4101 18.3515C18.5119 18.3105 18.6137 18.2695 18.7156 18.2285C18.7563 18.2081 18.797 18.1978 18.8377 18.1773C18.9803 18.1261 19.1228 18.0749 19.2654 18.0237C19.3977 17.9724 19.5301 17.9315 19.6624 17.8905C19.6828 17.8803 19.7031 17.8803 19.7337 17.87C19.8457 17.8393 19.9475 17.7983 20.0595 17.7676C20.1002 17.7573 20.1511 17.7368 20.1919 17.7266C20.2835 17.7061 20.3649 17.6754 20.4566 17.6549C20.5075 17.6447 20.5584 17.6242 20.6093 17.6139C20.6907 17.5934 20.7722 17.573 20.8536 17.5525C20.9046 17.5422 20.9656 17.5217 21.0165 17.5115C21.098 17.491 21.1693 17.4705 21.2507 17.4603C21.3118 17.45 21.3627 17.4398 21.4238 17.4193C21.5053 17.3988 21.5765 17.3886 21.658 17.3681C21.7191 17.3578 21.77 17.3476 21.8311 17.3373C21.9023 17.3271 21.9838 17.3066 22.055 17.2964C22.1161 17.2861 22.167 17.2759 22.2281 17.2656C22.3096 17.2554 22.3808 17.2452 22.4623 17.2247C22.5234 17.2144 22.5743 17.2042 22.6354 17.2042C22.7168 17.1939 22.7983 17.1837 22.8797 17.1735C22.9306 17.1632 22.9815 17.1632 23.0325 17.153C23.1343 17.1427 23.2463 17.1325 23.3481 17.1222C23.3888 17.1222 23.4397 17.112 23.4804 17.112C23.5924 17.1017 23.7044 17.0915 23.8164 17.0813C23.8673 17.0813 23.9284 17.071 23.9793 17.071C24.0608 17.071 24.1422 17.0608 24.2135 17.0608C24.2746 17.0608 24.3357 17.0608 24.3968 17.0608C24.468 17.0608 24.5393 17.0608 24.6207 17.0608C24.6818 17.0608 24.7429 17.0608 24.804 17.0608C24.8753 17.0608 24.9465 17.0608 25.0178 17.0608C25.0789 17.0608 25.14 17.0608 25.2113 17.0608C25.2825 17.0608 25.3538 17.0608 25.4251 17.071C25.4862 17.071 25.5574 17.0813 25.6185 17.0813C25.6898 17.0813 25.7611 17.0915 25.8323 17.0915C25.8934 17.0915 25.9545 17.1017 26.0258 17.1017C26.097 17.112 26.1683 17.112 26.2396 17.1222C26.3007 17.1325 26.3618 17.1325 26.4228 17.1427C26.4941 17.153 26.5756 17.1632 26.6468 17.1735C26.7079 17.1837 26.769 17.1837 26.8199 17.1939C26.9014 17.2042 26.9828 17.2144 27.0643 17.2349C27.1152 17.2452 27.1661 17.2452 27.217 17.2554C27.3493 17.2759 27.4715 17.2964 27.6039 17.3271C27.6548 17.3373 27.6955 17.3476 27.7464 17.3578C27.8279 17.3783 27.9195 17.3886 28.001 17.4091C28.0519 17.4193 28.1129 17.4295 28.1639 17.45C28.2351 17.4705 28.3166 17.4808 28.3878 17.5012C28.4489 17.5115 28.4998 17.532 28.5609 17.5422C28.6322 17.5627 28.7035 17.5832 28.7849 17.6037C28.846 17.6242 28.8969 17.6344 28.958 17.6549C29.0293 17.6754 29.1005 17.6959 29.1718 17.7164C29.2329 17.7368 29.2838 17.7471 29.3449 17.7676C29.4162 17.7881 29.4874 17.8188 29.5587 17.8393C29.6198 17.8598 29.6707 17.8803 29.7318 17.9007C29.8031 17.9315 29.8845 17.952 29.9558 17.9827C30.0067 18.0032 30.0678 18.0237 30.1187 18.0442C30.2001 18.0749 30.2714 18.1056 30.3528 18.1363C30.4038 18.1568 30.4547 18.1773 30.5056 18.1978C30.587 18.2285 30.6786 18.2695 30.7601 18.3105C30.8008 18.331 30.8416 18.3515 30.8823 18.3617C31.0045 18.4232 31.1368 18.4744 31.259 18.5358C31.8495 18.8227 32.4197 19.1505 32.9593 19.509C28.001 24.5488 25.8527 32.6618 28.0315 40.744C28.0824 40.9386 28.1435 41.1332 28.1944 41.3279C28.2249 41.4201 28.2555 41.5122 28.286 41.6147C28.3166 41.7069 28.3471 41.8093 28.3777 41.9015C29.3958 45.0463 31.0045 47.894 33.0713 50.2603C32.6029 50.7008 32.1142 51.1105 31.6153 51.4895L5.42889 38.8182ZM39.3226 52.9851C38.2332 52.3602 37.1845 51.6022 36.2173 50.7417L62.0881 43.6634C60.3471 49.0208 56.4477 53.2412 51.1737 54.6855C47.1317 55.7918 42.9472 55.0748 39.3226 52.9851ZM52.4057 72.6733L51.2755 68.0022C50.2472 63.7511 47.9971 59.92 44.8511 56.9186C47.091 57.2567 49.4022 57.144 51.6726 56.5191C53.4849 56.0274 55.1546 55.2284 56.6513 54.2041C55.8775 56.8879 55.8571 59.7663 56.6716 62.4911L59.1559 70.8089L52.4057 72.6733Z" stroke="#006D77" stroke-width="0.6" mask="url(#path-1-outside-1)"/>
<path d="M53.9431 10.6649C56.623 10.6649 58.807 8.46624 58.807 5.77212C58.807 3.078 56.623 0.879297 53.9431 0.879297C51.2632 0.879297 49.0792 3.07785 49.0791 5.77183C49.0687 8.47705 51.2536 10.6649 53.9431 10.6649ZM53.9431 2.70561C55.621 2.70561 57.0002 4.08225 57.0002 5.78237C57.0002 7.47286 55.6306 8.85913 53.9431 8.85913C52.2651 8.85913 50.8859 7.48248 50.8859 5.78237C50.8859 4.08194 52.2552 2.70561 53.9431 2.70561Z" fill="#144D29" stroke="#006D77" stroke-width="0.3"/>
</svg>
