<svg width="74" height="53" viewBox="0 0 74 53" fill="none" xmlns="http://www.w3.org/2000/svg">
<path d="M57.6818 41.7693H3.59091V35.6155H52.9091C55.6136 35.6155 57.6818 37.6155 57.6818 40.2309V41.7693Z" stroke="#144D29" stroke-width="3" stroke-miterlimit="10" stroke-linecap="round" stroke-linejoin="round"/>
<path d="M6.77272 35.6154V20.2308" stroke="#144D29" stroke-width="3" stroke-miterlimit="10" stroke-linecap="round" stroke-linejoin="round"/>
<path d="M2 20.2308H26.0227C30.6364 20.2308 34.4545 23.3078 35.4091 27.6154L37 35.6154" stroke="#144D29" stroke-width="3" stroke-miterlimit="10" stroke-linecap="round" stroke-linejoin="round"/>
<path d="M9.95454 41.7693V51.0001" stroke="#144D29" stroke-width="3" stroke-miterlimit="10" stroke-linecap="round" stroke-linejoin="round"/>
<path d="M48.1364 41.7693V51.0001" stroke="#144D29" stroke-width="3" stroke-miterlimit="10" stroke-linecap="round" stroke-linejoin="round"/>
<path d="M2 51.0001H67.2273C69.9318 51.0001 72 49.0001 72 46.3847C72 43.7693 69.9318 41.7693 67.2273 41.7693H65.6364" stroke="#144D29" stroke-width="3" stroke-miterlimit="10" stroke-linecap="round" stroke-linejoin="round"/>
<path d="M11.5455 35.6155V41.7693" stroke="#144D29" stroke-width="3" stroke-miterlimit="10" stroke-linecap="round" stroke-linejoin="round"/>
<path d="M21.0909 35.6155V41.7693" stroke="#144D29" stroke-width="3" stroke-miterlimit="10" stroke-linecap="round" stroke-linejoin="round"/>
<path d="M30.6364 35.6155V41.7693" stroke="#144D29" stroke-width="3" stroke-miterlimit="10" stroke-linecap="round" stroke-linejoin="round"/>
<path d="M40.1818 35.6155V41.7693" stroke="#144D29" stroke-width="3" stroke-miterlimit="10" stroke-linecap="round" stroke-linejoin="round"/>
<path d="M49.7273 35.6155V41.7693" stroke="#144D29" stroke-width="3" stroke-miterlimit="10" stroke-linecap="round" stroke-linejoin="round"/>
<path d="M57.6818 12.8462V4.38464" stroke="#144D29" stroke-width="2" stroke-miterlimit="10" stroke-linecap="round" stroke-linejoin="round"/>
<path d="M61.1818 1L57.6818 4.38462L54.1818 1" stroke="#144D29" stroke-width="2" stroke-miterlimit="10" stroke-linecap="round" stroke-linejoin="round"/>
<path d="M57.6818 12.8461L50.2045 8.53845" stroke="#144D29" stroke-width="2" stroke-miterlimit="10" stroke-linecap="round" stroke-linejoin="round"/>
<path d="M48.9318 3.9231L50.2045 8.53848L45.4318 9.76925" stroke="#144D29" stroke-width="2" stroke-miterlimit="10" stroke-linecap="round" stroke-linejoin="round"/>
<path d="M57.6818 12.8462L50.2045 17" stroke="#144D29" stroke-width="2" stroke-miterlimit="10" stroke-linecap="round" stroke-linejoin="round"/>
<path d="M45.4318 15.7693L50.2045 17.0001L48.9318 21.6154" stroke="#144D29" stroke-width="2" stroke-miterlimit="10" stroke-linecap="round" stroke-linejoin="round"/>
<path d="M57.6818 12.8462V21.1539" stroke="#144D29" stroke-width="2" stroke-miterlimit="10" stroke-linecap="round" stroke-linejoin="round"/>
<path d="M54.1818 24.6924L57.6818 21.3077L61.1818 24.6924" stroke="#144D29" stroke-width="2" stroke-miterlimit="10" stroke-linecap="round" stroke-linejoin="round"/>
<path d="M57.6818 12.8462L65.1591 17" stroke="#144D29" stroke-width="2" stroke-miterlimit="10" stroke-linecap="round" stroke-linejoin="round"/>
<path d="M66.4318 21.6154L65.1591 17.0001L69.9318 15.7693" stroke="#144D29" stroke-width="2" stroke-miterlimit="10" stroke-linecap="round" stroke-linejoin="round"/>
<path d="M57.6818 12.8461L65.1591 8.53845" stroke="#144D29" stroke-width="2" stroke-miterlimit="10" stroke-linecap="round" stroke-linejoin="round"/>
<path d="M69.9318 9.76925L65.1591 8.53848L66.4318 3.9231" stroke="#144D29" stroke-width="2" stroke-miterlimit="10" stroke-linecap="round" stroke-linejoin="round"/>
</svg>
