<svg width="50" height="51" viewBox="0 0 50 51" fill="none" xmlns="http://www.w3.org/2000/svg">
<path d="M24.9059 50C11.1912 50 0 38.7665 0 25C0 11.2335 11.1912 0 24.9059 0C38.6206 0 49.8117 11.2335 49.8117 25C49.8117 38.7665 38.6206 50 24.9059 50ZM24.9059 1.98238C12.1786 1.98238 1.8652 12.3348 1.8652 25.1101C1.8652 37.8855 12.1786 48.2379 24.9059 48.2379C37.6331 48.2379 47.9465 37.8855 47.9465 25.1101C47.9465 12.3348 37.6331 1.98238 24.9059 1.98238Z" fill="#144D29"/>
<path d="M24.9059 50C11.1912 50 0 38.7665 0 25C0 11.2335 11.1912 0 24.9059 0C38.6206 0 49.8117 11.2335 49.8117 25C49.8117 38.7665 38.6206 50 24.9059 50ZM24.9059 1.98238C12.1786 1.98238 1.8652 12.3348 1.8652 25.1101C1.8652 37.8855 12.1786 48.2379 24.9059 48.2379C37.6331 48.2379 47.9465 37.8855 47.9465 25.1101C47.9465 12.3348 37.6331 1.98238 24.9059 1.98238Z" fill="#144D29"/>
<path d="M30.282 28.9648L27.1002 19.3834C27.1002 19.2732 26.9905 19.1631 26.8808 19.1631L16.7868 19.2732C16.6771 19.2732 16.5673 19.3834 16.5673 19.4935L13.605 29.075C13.605 29.1851 13.605 29.2952 13.7147 29.4054L21.9435 35.2424H22.0532C22.1629 35.2424 22.1629 35.2424 22.1629 35.2424L30.282 29.1851C30.282 29.2952 30.282 29.075 30.282 28.9648Z" fill="#144D29"/>
<path d="M5.92474 39.3172L8.44824 31.3877C8.44824 31.2776 8.44824 31.1674 8.33852 31.0573L1.09717 25.9912C1.3166 30.9472 3.07208 35.5727 5.92474 39.3172Z" fill="#144D29"/>
<path d="M24.9059 48.8988C27.1002 48.8988 29.1848 48.5684 31.2695 48.0177L31.1598 47.9076L22.7115 42.401C22.6018 42.2908 22.4921 42.2908 22.3824 42.401L16.3479 47.2468C18.9811 48.3481 21.8338 48.8988 24.9059 48.8988Z" fill="#144D29"/>
<path d="M48.7146 26.3216L45.0939 24.0089C44.9842 23.8987 44.8744 23.8987 44.7647 24.0089L37.0845 30.5067C36.9748 30.6168 36.9748 30.7269 36.9748 30.8371L40.7052 40.1983C40.7052 40.3084 40.8149 40.4186 40.9246 40.4186L43.2287 40.3084C46.4105 36.4538 48.3854 31.608 48.7146 26.3216Z" fill="#144D29"/>
<path d="M4.27898 13.2159L13.3855 14.5375C13.4952 14.5375 13.605 14.4273 13.605 14.4273L17.7742 5.83702C17.7742 5.72689 17.7742 5.61675 17.6645 5.50662L15.3604 3.19385C10.6426 5.17623 6.80248 8.81059 4.27898 13.2159Z" fill="#144D29"/>
<path d="M41.9121 14.4274C42.0218 14.4274 42.1315 14.3172 42.1315 14.3172L43.887 10.6829C40.8149 6.49784 36.3165 3.41414 31.1598 1.98242L29.9529 2.64322C29.8432 2.75335 29.8432 2.86348 29.8432 2.97361L31.5986 12.8855C31.5986 12.9956 31.7084 13.1058 31.8181 13.1058L41.9121 14.4274Z" fill="#144D29"/>
<path d="M5.38311 37.5028L5.06645 37.2754V37.6653V38.3261V38.4287L5.14979 38.4885L18.645 48.1802L18.9617 48.4076V48.0177V47.3569V47.2543L18.8784 47.1945L5.38311 37.5028Z" fill="#144D29" stroke="#144D29" stroke-width="0.4"/>
<path d="M14.1536 28.875H14.1202L14.0886 28.8858L5.75008 31.7492L5.44772 31.8531L5.67335 32.0795L6.11221 32.5201L6.20055 32.6087L6.31892 32.5681L14.306 29.8224C14.38 29.8113 14.4376 29.773 14.4751 29.7404C14.5216 29.7 14.5582 29.6504 14.5858 29.6043C14.6376 29.5178 14.6827 29.3993 14.6827 29.2952V29.2482L14.6617 29.206C14.5956 29.0734 14.5149 28.9775 14.4079 28.9237C14.3098 28.8745 14.2133 28.8748 14.1612 28.8749C14.1585 28.8749 14.156 28.875 14.1536 28.875Z" fill="#144D29" stroke="#144D29" stroke-width="0.4"/>
<path d="M6.76145 10.7717L6.73385 10.8034L6.72131 10.8435L1.45487 27.6937L1.37372 27.9534H1.64577H2.19435H2.34183L2.38542 27.8125L7.8713 10.0812L7.52947 9.89068L6.76145 10.7717Z" fill="#144D29" stroke="#144D29" stroke-width="0.4"/>
<path d="M33.3137 5.63776L33.2585 5.52693H33.1347H11.7398H11.6567L11.5981 5.58577L11.0495 6.13644L10.7096 6.47759H11.1912H33.6833L33.773 6.09884C33.5923 6.00817 33.4042 5.81938 33.3137 5.63776Z" fill="#144D29" stroke="#144D29" stroke-width="0.4"/>
<path d="M35.6382 8.08126L35.4925 8.00814L35.3915 8.13608L26.1813 19.8024C26.0874 19.9025 26.0499 20.036 26.0499 20.1543C26.0499 20.2764 26.0898 20.4146 26.1905 20.5157L26.3322 20.3745L26.1906 20.5158L26.1907 20.5158L26.1908 20.516L26.1911 20.5163L26.192 20.5171L26.1941 20.5192L26.2004 20.5252C26.2054 20.53 26.2123 20.5362 26.2206 20.5434C26.2371 20.5576 26.2607 20.5766 26.2895 20.5958C26.3406 20.63 26.4364 20.6847 26.5516 20.6847C26.555 20.6847 26.5586 20.6847 26.5626 20.6847C26.605 20.6851 26.6792 20.6858 26.7511 20.6497C26.7884 20.6309 26.8176 20.6068 26.84 20.5866C26.8611 20.5675 26.8849 20.5436 26.9098 20.5187L26.9128 20.5157L26.9209 20.5075L26.928 20.4985L36.1443 8.82447L36.2229 8.72491L36.1664 8.61137C36.1055 8.4892 36.0392 8.38666 35.9507 8.29782C35.8622 8.20896 35.76 8.1424 35.6382 8.08126Z" fill="#144D29" stroke="#144D29" stroke-width="0.4"/>
<path d="M47.4882 33.5904V33.5577L47.4778 33.5268L40.5656 12.932L40.5508 12.8877L40.5177 12.8545L39.64 11.9735L39.3088 12.1785L46.3221 32.9731L29.7839 28.6612L29.7591 28.6547H29.7334C29.7313 28.6547 29.7289 28.6547 29.7264 28.6547C29.6743 28.6546 29.5585 28.6544 29.4532 28.6966C29.3934 28.7206 29.3278 28.7615 29.2779 28.8308C29.2272 28.9013 29.2043 28.9853 29.2043 29.075C29.2043 29.0772 29.2043 29.0795 29.2043 29.082C29.2042 29.1343 29.2039 29.2501 29.2459 29.3555C29.2697 29.4152 29.3103 29.4811 29.3795 29.5312C29.4423 29.5767 29.516 29.6001 29.595 29.6046L46.0654 33.8988L27.9686 47.3063L27.8877 47.3663V47.467V48.1278V48.526L28.2071 48.2883L47.2979 34.0812L47.3098 34.0724L47.3202 34.0619L47.1785 33.9208L47.3203 34.0619L47.3204 34.0618L47.3205 34.0616L47.3208 34.0613L47.3217 34.0605L47.3237 34.0583L47.3297 34.052C47.3344 34.047 47.3406 34.0401 47.3478 34.0317C47.3619 34.0152 47.3808 33.9915 47.4 33.9626C47.4255 33.9242 47.4623 33.8608 47.4792 33.7831H47.4882V33.7831V33.7831V33.7831V33.783V33.783V33.783V33.783V33.7829V33.7829V33.7829V33.7828V33.7828V33.7828V33.7827V33.7827V33.7826V33.7826V33.7825V33.7825V33.7824V33.7823V33.7823V33.7822V33.7821V33.7821V33.782V33.7819V33.7818V33.7818V33.7817V33.7816V33.7815V33.7814V33.7813V33.7812V33.7811V33.781V33.7809V33.7808V33.7807V33.7806V33.7805V33.7803V33.7802V33.7801V33.78V33.7799V33.7797V33.7796V33.7795V33.7793V33.7792V33.779V33.7789V33.7787V33.7786V33.7784V33.7783V33.7781V33.778V33.7778V33.7776V33.7775V33.7773V33.7771V33.777V33.7768V33.7766V33.7764V33.7762V33.776V33.7758V33.7757V33.7755V33.7753V33.7751V33.7749V33.7747V33.7744V33.7742V33.774V33.7738V33.7736V33.7734V33.7731V33.7729V33.7727V33.7725V33.7722V33.772V33.7718V33.7715V33.7713V33.771V33.7708V33.7705V33.7703V33.77V33.7698V33.7695V33.7692V33.769V33.7687V33.7684V33.7682V33.7679V33.7676V33.7673V33.767V33.7667V33.7665V33.7662V33.7659V33.7656V33.7653V33.765V33.7647V33.7644V33.7641V33.7637V33.7634V33.7631V33.7628V33.7625V33.7622V33.7618V33.7615V33.7612V33.7608V33.7605V33.7602V33.7598V33.7595V33.7591V33.7588V33.7584V33.7581V33.7577V33.7574V33.757V33.7566V33.7563V33.7559V33.7555V33.7551V33.7548V33.7544V33.754V33.7536V33.7532V33.7528V33.7525V33.7521V33.7517V33.7513V33.7509V33.7505V33.7501V33.7496V33.7492V33.7488V33.7484V33.748V33.7476V33.7471V33.7467V33.7463V33.7458V33.7454V33.745V33.7445V33.7441V33.7436V33.7432V33.7427V33.7423V33.7418V33.7414V33.7409V33.7405V33.74V33.7395V33.7391V33.7386V33.7381V33.7376V33.7371V33.7367V33.7362V33.7357V33.7352V33.7347V33.7342V33.7337V33.7332V33.7327V33.7322V33.7317V33.7312V33.7307V33.7302V33.7296V33.7291V33.7286V33.7281V33.7275V33.727V33.7265V33.7259V33.7254V33.7249V33.7243V33.7238V33.7232V33.7227V33.7221V33.7216V33.721V33.7205V33.7199V33.7193V33.7188V33.7182V33.7176V33.717V33.7165V33.7159V33.7153V33.7147V33.7141V33.7135V33.7129V33.7123V33.7117V33.7111V33.7105V33.7099V33.7093V33.7087V33.7081V33.7075V33.7069V33.7062V33.7056V33.705V33.7044V33.7037V33.7031V33.7025V33.7018V33.7012V33.7005V33.5904Z" fill="#144D29" stroke="#144D29" stroke-width="0.4"/>
<path d="M10.0464 7.71708L9.89333 7.46022L9.71436 7.69975L9.38521 8.14028L9.30502 8.2476L9.37376 8.3626L16.264 19.8898C16.2723 19.9312 16.2893 19.9725 16.3184 20.01C16.3618 20.066 16.4176 20.0948 16.4627 20.1099C16.5361 20.1344 16.6211 20.1342 16.6675 20.134C16.6709 20.134 16.6741 20.134 16.6771 20.134H16.7868H16.8698L16.9285 20.0751C16.9312 20.0724 16.9341 20.0695 16.9371 20.0665C16.985 20.0186 17.0606 19.943 17.1029 19.858C17.1281 19.8074 17.1493 19.7397 17.1395 19.6615C17.1308 19.5915 17.0998 19.532 17.0577 19.4835L10.0464 7.71708Z" fill="#144D29" stroke="#144D29" stroke-width="0.4"/>
<path d="M21.5241 34.9119V34.9223L21.5251 34.9326L22.8417 47.5978L22.8604 47.7771H23.0407H23.5893H23.8109L23.7882 47.5566L22.4716 34.7813L22.4643 34.7108L22.4143 34.6607C22.4128 34.6591 22.4112 34.6575 22.4096 34.6559C22.3581 34.6042 22.2947 34.5406 22.2284 34.4906C22.1621 34.4407 22.0639 34.3815 21.9435 34.3815C21.6732 34.3815 21.5241 34.6391 21.5241 34.9119Z" fill="#144D29" stroke="#144D29" stroke-width="0.4"/>
<path d="M24.9059 50.2693C11.1912 50.2693 0 39.0358 0 25.2693C0 11.5028 11.1912 0.269287 24.9059 0.269287C38.6206 0.269287 49.8117 11.5028 49.8117 25.2693C49.8117 39.0358 38.6206 50.2693 24.9059 50.2693ZM24.9059 2.25167C12.1786 2.25167 1.8652 12.6041 1.8652 25.3794C1.8652 38.1548 12.1786 48.5072 24.9059 48.5072C37.6331 48.5072 47.9465 38.1548 47.9465 25.3794C47.9465 12.6041 37.6331 2.25167 24.9059 2.25167Z" fill="#144D29"/>
</svg>
