<svg width="72" height="70" viewBox="0 0 72 70" fill="none" xmlns="http://www.w3.org/2000/svg">
<path d="M71.8263 57.813L66.4617 44.9209V13.0935C66.4617 5.74101 53.1494 0 36.2607 0C19.2727 0 5.9605 5.74101 5.9605 13.0935V44.9209L0.0991378 57.813C-0.198897 58.518 -0.000207283 59.4245 0.794553 59.7266C0.993244 59.8273 1.09259 59.8273 1.29128 59.8273C1.88735 59.8273 2.38407 59.5252 2.58276 58.9209L6.8546 49.0504C9.43758 52.8777 15.7957 55.7986 24.1406 57.3094L21.4583 68.187C21.2596 68.9928 21.7564 69.7986 22.5511 70C22.6505 70 22.7498 70 22.9485 70C23.5446 70 24.1406 69.5971 24.3393 68.8921L27.121 57.813C29.9027 58.2158 32.883 58.3166 35.9627 58.3166C39.0424 58.3166 42.0228 58.1151 44.8044 57.813L47.5861 68.8921C47.7848 69.5971 48.3808 70 48.9769 70C49.0763 70 49.1756 70 49.3743 70C50.1691 69.7986 50.5664 68.9928 50.4671 68.187L47.4867 57.4101C55.8317 55.8993 62.0905 52.9784 64.7728 49.1511L69.0446 59.0216C69.2433 59.5252 69.8394 59.9281 70.3361 59.9281C70.5348 59.9281 70.8328 59.9281 71.0315 59.8273C71.7269 59.4245 72.2237 58.518 71.8263 57.813ZM35.764 2.92086C51.8579 2.92086 63.0839 8.25899 63.0839 13.0935C63.0839 17.9281 51.8579 23.2662 35.764 23.2662C19.6701 23.2662 8.44412 17.9281 8.44412 13.0935C8.44412 8.25899 19.6701 2.92086 35.764 2.92086ZM17.6832 52.777C12.9147 51.1655 9.73561 48.1439 8.74216 46.7338H13.4114C14.2061 48.1439 16.4911 50.3597 19.5708 51.4676L17.6832 52.777ZM8.8415 43.813C9.9343 40.8921 13.8088 38.8777 19.6701 37.1655L20.6636 38.777C16.9878 39.9856 14.3055 40.8921 13.5107 43.813H8.8415ZM34.7706 55.3957C29.0086 55.295 25.2334 54.6907 21.5577 53.7842L23.6439 52.4748C26.9223 53.2806 30.4987 53.6835 34.7706 53.7842V55.3957ZM16.0937 45.223C16.0937 42.9065 23.7433 39.5827 35.8634 39.5827C47.8841 39.5827 55.633 42.9065 55.633 45.223C55.633 47.5396 47.9835 50.964 35.8634 50.964C23.7433 50.964 16.0937 47.5396 16.0937 45.223ZM22.7498 36.3597C26.2269 35.6547 30.3994 35.1511 34.7706 35.0504V36.6619C30.4987 36.7626 27.121 37.1655 23.8426 37.8705L22.7498 36.3597ZM37.6516 36.6619V35.0504C41.9234 35.1511 45.7979 35.6547 49.1756 36.3597L48.2815 37.8705C45.1025 37.1655 40.5326 36.7626 37.6516 36.6619ZM37.6516 55.3957V53.7842C40.5326 53.6835 45.1025 53.2806 48.4802 52.4748L50.5664 53.7842C46.7913 54.7914 42.0228 55.295 37.6516 55.3957ZM53.8448 52.777L51.8579 51.4676C55.037 50.259 57.3219 48.1439 58.0173 46.7338H62.6865C61.7924 48.1439 58.6134 51.1655 53.8448 52.777ZM58.1167 43.813C57.3219 40.8921 54.6396 39.8849 50.9638 38.777L51.9573 37.1655C57.8186 38.8777 61.6931 40.8921 62.7859 43.813H58.1167ZM63.5806 39.5827C57.8186 35.1511 48.4802 32.1295 36.2607 32.1295C24.0413 32.1295 13.2127 35.1511 8.94085 39.5827V18.8345C13.2127 23.2662 24.0413 26.2878 36.2607 26.2878C48.4802 26.2878 57.8186 23.2662 63.5806 18.8345V39.5827Z" fill="#144D29"/>
</svg>
