<svg xmlns="http://www.w3.org/2000/svg" viewBox="0 0 55.25 60.47"><defs><style>.cls-1{fill:#144d29;}</style></defs><g id="Warstwa_2" data-name="Warstwa 2"><g id="Warstwa_1-2" data-name="Warstwa 1"><path class="cls-1" d="M55.05,6.13a1,1,0,0,0-.62-.34L29,3a3.3,3.3,0,0,0-6.23-.67L1,0A.93.93,0,0,0,0,.82a.91.91,0,0,0,.81,1L22.45,4.18a3.31,3.31,0,0,0,2.14,2.67l-1.3,16.42a6.22,6.22,0,0,0-.68-.25c.08-.18.18-.36.25-.56a7.66,7.66,0,0,0-.21-4.58c0-.11-.09-.21-.13-.31a1.88,1.88,0,0,0,.13-2,7.26,7.26,0,0,0-6.19-4A5.9,5.9,0,0,0,15,11.8l-.24.07a6.9,6.9,0,0,0-4.07,3.32,5.88,5.88,0,0,0,.19,5.65,9.25,9.25,0,0,0,.54.92,1.84,1.84,0,0,0,1.37.83A8.72,8.72,0,0,0,14.05,24c-2.38.3-5.33-.11-9.49-2.89a3.07,3.07,0,0,0-4.09.31c-.33.44-1.22,2,1.34,4.22a22.94,22.94,0,0,0,7,4,27.87,27.87,0,0,0,6.09,1.47c.89,2.29,3,8,3.73,10,1.32,3.83,4.2,4.6,7,5.07l1.71.28a45.21,45.21,0,0,1,6.39,1.24c.63.24.7.39,1,1.27.24.7.49,1.5.75,2.35.22.7.46,1.5.76,2.42A17.71,17.71,0,0,0,38.71,59a3.34,3.34,0,0,0,2.59,1.52,2.28,2.28,0,0,0,.45,0,2.24,2.24,0,0,0,1.55-.91c.73-1.05.67-2.84-.24-7.65a58.75,58.75,0,0,0-2.08-8c1.17.37,2.31.78,3.42,1.18a29.92,29.92,0,0,0,4.86,1.5,6.53,6.53,0,0,0,1,.09,3.73,3.73,0,0,0,1-.13,2.38,2.38,0,0,0,1.56-1.32c.76-1.66-1-3.07-1.52-3.53a37.15,37.15,0,0,0-5.9-3.6l0,0c-3.71-2-5.1-2.69-8.49-2.76-1.49,0-3.53.1-5.69.24h-.08l-1.82.11a22,22,0,0,1-.77-2.73c1,0,2.4-.37,3.79-2.41A43.57,43.57,0,0,0,35,25.9c1.08-2.18,1.48-3.76,1.23-4.86a2,2,0,0,0-3.61-.83A24.19,24.19,0,0,0,30.38,23c-.62.84-1.39,1.87-2.32,3.06a2.55,2.55,0,0,1-.44-.21c-.37-.21-.83-.52-1.32-.85l-1.24-.83L26.42,7a3.29,3.29,0,0,0,2.4-2.11L54.23,7.62h.1a.91.91,0,0,0,.91-.82A.9.9,0,0,0,55.05,6.13ZM24.25,3.75a1.47,1.47,0,1,1,1.47,1.47A1.47,1.47,0,0,1,24.25,3.75ZM34.37,21.28s.07,0,.1.19c.27,1.14-1.2,4.34-3.67,8-1.23,1.8-2.05,1.69-3.31,1.52a.88.88,0,0,0-.79.28.9.9,0,0,0-.23.81c.83,4,1.36,4.82,1.53,5.08.34.51,1.13.85,3.58,1.83,2.19.88,6.26,2.51,6.9,3.64a41.39,41.39,0,0,1,2.77,9.62c.32,1.65,1,5.53.54,6.26,0,0-.06.1-.35.15h-.12c-1,0-2.15-2-3.27-5.44-.29-.9-.54-1.69-.75-2.39-.27-.87-.52-1.7-.78-2.42A3.18,3.18,0,0,0,34.44,46a43.3,43.3,0,0,0-6.75-1.34L26,44.38c-2.56-.42-4.6-1-5.59-3.85-.8-2.33-3.3-9-4-10.61a.91.91,0,0,0-.76-.58A23.7,23.7,0,0,1,3,24.2c-1-.84-1.22-1.51-1.06-1.71s.86-.38,1.6.11a17.87,17.87,0,0,0,7.85,3.2,12.86,12.86,0,0,0,5.13-.48,5.79,5.79,0,0,0,1.65.25,6.07,6.07,0,0,0,1.58-.21l.27-.08a4.34,4.34,0,0,0,1.25-.64c1.26,0,2.77,1.07,4,1.91a14.28,14.28,0,0,0,1.89,1.16,1.69,1.69,0,0,0,2.22-.33c1-1.27,1.86-2.42,2.48-3.26a22.62,22.62,0,0,1,2.06-2.56C34.27,21.23,34.34,21.27,34.37,21.28Zm5.69,20.38c-.9-1.55-3.91-2.85-7.75-4.4,1.74-.11,3.36-.2,4.54-.17,3,.06,4.15.69,7.68,2.55l0,0a36.39,36.39,0,0,1,5.58,3.39c.88.72,1.1,1.17,1,1.34s-.25.53-1.62.31A28.33,28.33,0,0,1,45,43.29C43.51,42.74,41.79,42.12,40.06,41.66ZM14.78,22.12c.64-.21,1.27-.44,1.91-.69a17.64,17.64,0,0,0,4.37-2.38,5.53,5.53,0,0,1,.05,2.85,2.35,2.35,0,0,1-1.64,1.62l-.19.06a4.53,4.53,0,0,1-1.09.14A4.64,4.64,0,0,1,14.78,22.12ZM21,16.54a12.39,12.39,0,0,1-5,3.18c-1,.39-2,.72-3,1.05,0,0-.06,0-.06,0a8.57,8.57,0,0,1-.45-.77,4.16,4.16,0,0,1-.19-4,5.07,5.07,0,0,1,3-2.39l.17-.05a4.07,4.07,0,0,1,1-.13,5.39,5.39,0,0,1,4.56,3A0,0,0,0,1,21,16.54Z"/></g></g></svg>