<svg xmlns="http://www.w3.org/2000/svg" viewBox="0 0 49.86 49.86"><defs><style>.cls-1{fill:#144d29;}</style></defs><g id="Warstwa_2" data-name="Warstwa 2"><g id="Warstwa_1-2" data-name="Warstwa 1"><path class="cls-1" d="M24.93,0A24.93,24.93,0,1,0,49.86,24.93,25,25,0,0,0,24.93,0ZM2.42,24.93A22.4,22.4,0,0,1,5.13,14.22C6,18.83,9,27.92,19.65,31.71a67.51,67.51,0,0,1-3.55,8.14C10.39,38.8,4.89,33,2.63,28A22.34,22.34,0,0,1,2.42,24.93ZM24,22.26a58.13,58.13,0,0,1,8.73-.12c-.46,3.2-2.51,15.12-8.46,25.29a22.45,22.45,0,0,1-9.32-2.35A68.26,68.26,0,0,0,24,22.26Zm-.24-1.58-.22,0c-2.37-.62-4.9-3.4-6.8-6.66,3-.59,16.71-2.85,28.69,1.49a22.37,22.37,0,0,1,2,8.08A53.9,53.9,0,0,0,23.71,20.68Zm-7.45-7.42A22.36,22.36,0,0,1,14,7.18c2.28-.92,11.89-3.49,24.16-.47a22.76,22.76,0,0,1,6.72,7.74C32.52,10.31,18.67,12.78,16.26,13.26ZM13.84,6.34a8,8,0,0,1-.08-.94,22.44,22.44,0,0,1,22.33,0C25,3.18,16.54,5.32,13.84,6.34Zm-1.61,0C12.89,11.93,17.6,20.12,22.38,22a69.15,69.15,0,0,1-2.45,8.9C8.8,27,6.34,17,5.81,13.07A22.61,22.61,0,0,1,12.23,6.35Zm3.45,34.28c-.7,1.3-1.43,2.53-2.19,3.68A22.6,22.6,0,0,1,3.18,30.75C6,35.17,10.73,39.59,15.68,40.63ZM33.52,22.21a50.47,50.47,0,0,1,8.71,1.47A49.34,49.34,0,0,1,36,44.52a22.29,22.29,0,0,1-10.82,2.92C31.06,37.18,33.07,25.36,33.52,22.21Zm9.54,1.7c1.32.36,2.62.77,3.92,1.24l.46.17a22.51,22.51,0,0,1-10,18.3A50.53,50.53,0,0,0,43.06,23.91Z"/></g></g></svg>