<svg width="86" height="70" viewBox="0 0 86 70" fill="none" xmlns="http://www.w3.org/2000/svg">
<path d="M11.6679 39.4253H20.4187C21.2234 39.4253 21.8269 38.8218 21.8269 38.0172V26.25C21.8269 25.4454 21.2234 24.8419 20.4187 24.8419H11.6679C10.8632 24.8419 10.2597 25.4454 10.2597 26.25V37.9166C10.1591 38.7212 10.8632 39.4253 11.6679 39.4253ZM13.076 27.7586H18.91V36.5086H13.076V27.7586Z" fill="#144D29"/>
<path d="M62.9458 65.5683C52.5723 64.5611 46.6302 59.0215 41.6952 49.6546C40.0838 46.6331 38.8753 44.2158 37.7674 42.705C35.6524 39.9856 31.7246 38.0719 27.7968 36.964V23.3669H30.7175C31.5232 23.3669 32.1274 22.7626 32.1274 21.9568C32.1274 21.5539 31.926 21.1511 31.7246 20.9496L17.2219 0.604316C16.7183 -0.201439 15.409 -0.201439 14.8047 0.604316L0.302004 21.0503C-0.000135873 21.4532 -0.100849 22.0575 0.201291 22.5611C0.402718 23.0647 0.906285 23.3669 1.51057 23.3669H4.43126V68.5899C4.43126 69.3956 5.03554 70 5.84124 70H10.1719C10.9776 70 11.5819 69.3956 11.5819 68.5899V62.7482H20.344V68.5899C20.344 69.3956 20.9483 70 21.754 70H26.0846C26.8904 70 27.4946 69.3956 27.4946 68.5899V39.9856C30.6167 41.0935 33.6381 42.5036 35.0481 44.4172C36.0553 45.7266 37.2638 48.1439 38.7745 50.964C42.2995 57.6115 46.328 62.7482 52.2701 65.669V68.5899C52.2701 69.3956 52.8744 70 53.6801 70C54.4858 70 55.0901 69.3956 55.0901 68.5899V66.8777C57.2051 67.5827 59.6222 68.187 62.2408 68.3884H62.3415C63.0465 68.3884 63.7515 67.7841 63.7515 67.0791C64.255 66.3741 63.7515 65.669 62.9458 65.5683ZM20.4447 59.8273H11.6826V56.9064H20.4447V59.8273ZM20.4447 54.0863H11.6826V51.1654H20.4447V54.0863ZM20.4447 48.2446H11.6826V43.9136H20.4447V48.2446ZM24.7754 67.1798H23.3654V42.4028C23.3654 41.5971 22.7611 40.9928 21.9554 40.9928H10.1719C9.36621 40.9928 8.76193 41.5971 8.76193 42.4028V67.1798H7.25123V23.3669H24.7754V67.1798ZM26.2861 20.446H5.84124H4.33054L16.0133 3.92806L27.7968 20.446H26.2861Z" fill="#144D29"/>
<path d="M84.5993 67.1798H68.5858C67.7801 67.1798 67.1758 67.7841 67.1758 68.5899C67.1758 69.3956 67.7801 70 68.5858 70H84.5993C85.405 70 86.0093 69.3956 86.0093 68.5899C86.11 67.7841 85.405 67.1798 84.5993 67.1798Z" fill="#144D29"/>
</svg>
