<svg width="88" height="88" viewBox="0 0 88 88" fill="none" xmlns="http://www.w3.org/2000/svg">
<circle cx="44" cy="44" r="44" fill="white"/>
<path d="M39.4915 66.738C39.4915 67.2844 39.8558 67.6488 40.4023 67.6488C40.9488 67.6488 41.3131 67.2844 41.3131 66.738V64.0055C41.3131 63.7323 41.222 63.459 41.0399 63.2769C40.8577 63.0947 40.5845 63.0036 40.3112 63.0947C32.4782 64.2788 25.8292 63.0036 22.5503 62.1839C22.0949 62.0928 21.9127 61.7285 21.9127 61.5463C21.9127 61.3641 21.8217 60.9998 22.0949 60.6355L32.8425 49.0681C33.1158 48.7949 33.1158 48.4306 33.0247 48.1573C32.9336 47.793 32.5693 47.6108 32.296 47.6108L27.0133 47.0643C26.4668 46.9733 26.2847 46.6089 26.2847 46.4268C26.1936 46.3357 26.1025 45.8803 26.4668 45.5159L36.4858 35.497C36.759 35.2237 36.8501 34.8594 36.668 34.5862C36.5769 34.2218 36.3036 34.0397 35.9393 33.9486L33.9355 33.5843C33.5712 33.4932 33.2979 33.311 33.2069 32.9467C33.1158 32.5824 33.2069 32.3091 33.389 32.0359L38.2163 27.2085C38.5807 26.8442 38.5807 26.2977 38.2163 25.9334C37.852 25.5691 37.3055 25.5691 36.9412 25.9334L32.1139 30.7607C31.3852 31.4894 31.112 32.5824 31.4763 33.4932C31.7495 34.4951 32.5693 35.2237 33.6623 35.3148H33.8444L25.1006 44.0586C24.3719 44.7873 24.0987 45.8803 24.463 46.8822C24.8273 47.8841 25.7382 48.6127 26.7401 48.7038L30.2012 49.0681L20.7287 59.3603C20.0911 60.089 19.8179 61.0909 20.0911 62.0017C20.3643 62.9125 21.093 63.6412 22.0038 63.9144C25.2828 64.7342 31.7495 66.0093 39.4004 65.0074V66.738H39.4915Z" fill="#144D29"/>
<path d="M67.2714 59.3603L57.7989 49.1592L61.26 48.7949C62.353 48.7038 63.1727 47.9751 63.537 46.9732C63.9014 45.9713 63.6281 44.8784 62.8995 44.1497L54.1556 35.4059H54.3378C55.3397 35.2237 56.1594 34.4951 56.5237 33.5842C56.797 32.5823 56.6148 31.5804 55.8862 30.8518L51.0588 26.0245C50.6945 25.6601 50.148 25.6601 49.7837 26.0245C49.4194 26.3888 49.4194 26.9353 49.7837 27.2996L54.611 32.1269C54.8843 32.4002 54.9754 32.6734 54.7932 33.0377C54.7021 33.4021 54.4289 33.5842 54.0645 33.6753L52.0607 33.9486C51.6964 34.0396 51.4232 34.2218 51.3321 34.5861C51.241 34.9505 51.3321 35.2237 51.5143 35.497L61.5332 45.5159C61.8976 45.8803 61.8065 46.3357 61.7154 46.4267C61.7154 46.5178 61.4422 46.9732 60.9867 47.0643L55.7951 47.6108C55.4308 47.6108 55.1575 47.884 55.0664 48.1573C54.9754 48.5216 54.9754 48.8859 55.2486 49.0681L65.9962 60.6355C66.3606 60.9998 66.2695 61.3641 66.1784 61.5463C66.1784 61.7285 65.9962 62.0928 65.5408 62.1839C62.2619 63.0036 55.6129 64.2787 47.7799 63.0947C47.5067 63.0947 47.2334 63.0947 47.0513 63.2768C46.8691 63.459 46.778 63.7322 46.778 64.0055V66.7379C46.778 67.2844 47.1423 67.6488 47.6888 67.6488C48.2353 67.6488 48.5996 67.2844 48.5996 66.7379V65.0985C56.3416 66.1004 62.8084 64.8252 65.9962 64.0055C66.907 63.7322 67.6357 63.0947 67.9089 62.0928C68.1822 61.0909 68 60.089 67.2714 59.3603Z" fill="#144D29"/>
<path d="M52.2429 69.4705H35.8482C35.3017 69.4705 34.9374 69.8348 34.9374 70.3813C34.9374 70.9278 35.3017 71.2921 35.8482 71.2921H52.2429C52.7894 71.2921 53.1537 70.9278 53.1537 70.3813C53.1537 69.8348 52.6983 69.4705 52.2429 69.4705Z" fill="#144D29"/>
<path d="M40.3112 20.8328L39.7647 24.1118C39.6736 24.4761 39.8558 24.8404 40.1291 25.0226C40.4023 25.2048 40.7666 25.2958 41.131 25.1137L44.0456 23.5653L46.9602 25.1137C47.0513 25.2048 47.2334 25.2048 47.4156 25.2048C47.5977 25.2048 47.7799 25.1137 47.9621 25.0226C48.2353 24.8404 48.4175 24.4761 48.3264 24.1118L47.7799 20.8328L50.148 18.4647C50.4213 18.1915 50.5124 17.8271 50.4213 17.5539C50.3302 17.1896 50.0569 17.0074 49.6926 16.9163L46.4137 16.4609L44.9564 13.4552C44.6831 12.8177 43.5902 12.8177 43.3169 13.4552L41.8596 16.4609L38.5807 16.9163C38.2163 17.0074 37.9431 17.1896 37.852 17.5539C37.7609 17.9182 37.852 18.2826 38.1253 18.4647L40.3112 20.8328ZM42.4972 18.1915C42.7704 18.1915 43.0437 17.9182 43.2258 17.7361L44.1366 16.0055L45.0475 17.7361C45.1385 18.0093 45.4118 18.1915 45.7761 18.1915L47.5067 18.4647L46.1404 19.8309C45.9583 20.0131 45.8672 20.3774 45.8672 20.6507L46.2315 22.5634L44.501 21.6526C44.4099 21.5615 44.2277 21.5615 44.0456 21.5615C43.8634 21.5615 43.7723 21.5615 43.5902 21.6526L41.8596 22.5634L42.2239 20.6507C42.315 20.3774 42.1328 20.0131 41.9507 19.8309L40.4934 18.4647L42.4972 18.1915Z" fill="#144D29"/>
<path d="M35.8482 58.5406C36.8543 58.5406 37.6698 57.725 37.6698 56.719C37.6698 55.7129 36.8543 54.8973 35.8482 54.8973C34.8422 54.8973 34.0266 55.7129 34.0266 56.719C34.0266 57.725 34.8422 58.5406 35.8482 58.5406Z" fill="#144D29"/>
<path d="M47.6888 47.6108C48.6949 47.6108 49.5105 46.7952 49.5105 45.7892C49.5105 44.7831 48.6949 43.9675 47.6888 43.9675C46.6828 43.9675 45.8672 44.7831 45.8672 45.7892C45.8672 46.7952 46.6828 47.6108 47.6888 47.6108Z" fill="#144D29"/>
<path d="M41.3131 33.0378C42.3192 33.0378 43.1348 32.2222 43.1348 31.2162C43.1348 30.2101 42.3192 29.3945 41.3131 29.3945C40.3071 29.3945 39.4915 30.2101 39.4915 31.2162C39.4915 32.2222 40.3071 33.0378 41.3131 33.0378Z" fill="#144D29"/>
<path d="M35.8482 43.1478C35.9393 43.6032 36.3036 43.9676 36.759 43.9676H36.8501C36.9412 43.9676 45.685 42.8746 47.6888 34.1307C47.7799 33.6753 47.5067 33.1288 46.9602 33.0378C46.5048 32.9467 45.9583 33.2199 45.8672 33.7664C44.2277 41.2351 36.9412 42.1459 36.668 42.1459C36.1215 42.1459 35.7571 42.6013 35.8482 43.1478Z" fill="#144D29"/>
<path d="M54.8843 58.5406C54.8843 58.5406 54.9754 58.5406 54.8843 58.5406C55.4308 58.5406 55.7951 58.1763 55.8862 57.7209C55.8862 57.1744 55.5218 56.8101 55.0664 56.719C43.0437 55.8993 38.6718 47.5198 38.4896 47.1554C38.3074 46.7 37.7609 46.5179 37.3055 46.7911C36.8501 46.9733 36.668 47.5198 36.9412 47.9752C37.0323 48.3395 41.7685 57.5387 54.8843 58.5406Z" fill="#144D29"/>
</svg>
