<svg width="88" height="88" viewBox="0 0 88 88" fill="none" xmlns="http://www.w3.org/2000/svg">
<circle cx="44" cy="44" r="44" fill="white"/>
<path d="M50.85 26.25L44.1 33.75L37.35 26.25" stroke="#144D29" stroke-width="2" stroke-miterlimit="10" stroke-linecap="round" stroke-linejoin="round"/>
<path d="M50.85 62.25L44.1 54.75L37.35 62.25" stroke="#144D29" stroke-width="2" stroke-miterlimit="10" stroke-linecap="round" stroke-linejoin="round"/>
<path d="M63.075 41.1L53.25 39L56.325 29.4" stroke="#144D29" stroke-width="2" stroke-miterlimit="10" stroke-linecap="round" stroke-linejoin="round"/>
<path d="M31.95 59.1L35.025 49.5L25.2 47.4" stroke="#144D29" stroke-width="2" stroke-miterlimit="10" stroke-linecap="round" stroke-linejoin="round"/>
<path d="M56.325 59.1L53.25 49.5L63.075 47.4" stroke="#144D29" stroke-width="2" stroke-miterlimit="10" stroke-linecap="round" stroke-linejoin="round"/>
<path d="M25.2 41.1L35.025 39L31.95 29.4" stroke="#144D29" stroke-width="2" stroke-miterlimit="10" stroke-linecap="round" stroke-linejoin="round"/>
<path d="M44.1 21V39.75" stroke="#144D29" stroke-width="2" stroke-miterlimit="10" stroke-linecap="round" stroke-linejoin="round"/>
<path d="M44.1 67.5V48.75" stroke="#144D29" stroke-width="2" stroke-miterlimit="10" stroke-linecap="round" stroke-linejoin="round"/>
<path d="M24 55.875L40.275 46.5" stroke="#144D29" stroke-width="2" stroke-miterlimit="10" stroke-linecap="round" stroke-linejoin="round"/>
<path d="M48 42L64.275 32.625" stroke="#144D29" stroke-width="2" stroke-miterlimit="10" stroke-linecap="round" stroke-linejoin="round"/>
<path d="M48 46.5L64.275 55.875" stroke="#144D29" stroke-width="2" stroke-miterlimit="10" stroke-linecap="round" stroke-linejoin="round"/>
<path d="M40.275 42L24 32.625" stroke="#144D29" stroke-width="2" stroke-miterlimit="10" stroke-linecap="round" stroke-linejoin="round"/>
<path d="M44.1 48.75C46.5853 48.75 48.6 46.7353 48.6 44.25C48.6 41.7647 46.5853 39.75 44.1 39.75C41.6147 39.75 39.6 41.7647 39.6 44.25C39.6 46.7353 41.6147 48.75 44.1 48.75Z" stroke="#144D29" stroke-width="2" stroke-miterlimit="10" stroke-linecap="round" stroke-linejoin="round"/>
</svg>
