<svg width="88" height="88" viewBox="0 0 88 88" fill="none" xmlns="http://www.w3.org/2000/svg">
<circle cx="44" cy="44" r="44" fill="white"/>
<g clip-path="url(#clip0)">
<path d="M27.4448 38.4094L27.7815 37.9604L27.183 37.736C26.8837 37.6237 26.734 37.287 26.8462 37.0251C26.9585 36.7258 27.2952 36.5762 27.5571 36.6884L28.1183 36.9129V36.2769C28.1183 35.9776 28.3801 35.7157 28.6794 35.7157C28.9787 35.7157 29.2406 35.9776 29.2406 36.2769V36.9129L29.7644 36.7258C30.0637 36.6136 30.363 36.7632 30.4752 37.0625C30.5875 37.3618 30.4378 37.6611 30.1385 37.7734L29.5773 37.9978L29.9141 38.4468C30.1011 38.7087 30.0637 39.0454 29.8392 39.2325C29.727 39.3073 29.6148 39.3447 29.5025 39.3447C29.3529 39.3447 29.1658 39.2699 29.0536 39.1202L28.6794 38.6339L28.3053 39.1202C28.1931 39.2699 28.0434 39.3447 27.8564 39.3447C27.7441 39.3447 27.6319 39.3073 27.5197 39.2325C27.2952 39.008 27.2578 38.6713 27.4448 38.4094ZM62.3131 48.5855C62.0138 48.5855 61.7519 48.8474 61.7519 49.1467V50.1943L60.854 49.8576C60.5547 49.7453 60.2554 49.895 60.1432 50.1943C60.031 50.4936 60.1806 50.7929 60.4799 50.9051L61.4526 51.2792L60.8914 51.9901C60.7044 52.2519 60.7418 52.5887 61.0037 52.7757C61.1159 52.8505 61.2282 52.888 61.3404 52.888C61.49 52.888 61.6771 52.8131 61.7893 52.6635L62.3879 51.9152L62.9865 52.6635C63.0988 52.8131 63.2484 52.888 63.4355 52.888C63.5477 52.888 63.6974 52.8505 63.7722 52.7757C64.0341 52.5887 64.0715 52.2145 63.847 51.9901L63.2858 51.2792L64.2211 50.9425C64.5204 50.8303 64.6701 50.4936 64.5579 50.2317C64.4456 49.9324 64.1089 49.7827 63.847 49.895L62.9865 50.2317V49.1841C62.8743 48.8474 62.6124 48.5855 62.3131 48.5855ZM34.3287 29.4304C34.2165 29.1311 33.8798 28.9815 33.6179 29.0937L32.72 29.4304V28.3829C32.72 28.0836 32.4581 27.8217 32.1588 27.8217C31.8595 27.8217 31.5976 28.0836 31.5976 28.3829V29.4304L30.6997 29.0937C30.4004 28.9815 30.1011 29.1311 29.9889 29.4304C29.8766 29.7297 30.0263 30.029 30.3256 30.1413L31.2983 30.5154L30.6997 31.2262C30.5126 31.4881 30.5501 31.8248 30.8119 32.0119C30.9242 32.0867 31.0364 32.1241 31.1487 32.1241C31.2983 32.1241 31.4854 32.0493 31.5976 31.8996L32.1962 31.1514L32.7948 31.8996C32.907 32.0493 33.0567 32.1241 33.2437 32.1241C33.356 32.1241 33.5056 32.0867 33.5805 32.0119C33.8423 31.8248 33.8798 31.4507 33.6553 31.2262L33.0941 30.478L34.0294 30.1413C34.2913 30.029 34.4409 29.6923 34.3287 29.4304ZM31.3357 60.3704L32.3084 60.7445L31.7473 61.4554C31.5602 61.7173 31.5976 62.054 31.8595 62.241C31.9717 62.3159 32.084 62.3533 32.1962 62.3533C32.3459 62.3533 32.5329 62.2784 32.6452 62.1288L33.2437 61.3805L33.8423 62.1288C33.9546 62.2784 34.1042 62.3533 34.2913 62.3533C34.4035 62.3533 34.5532 62.3159 34.628 62.241C34.8899 62.054 34.9273 61.6798 34.7028 61.4554L34.1416 60.7445L35.077 60.4078C35.3762 60.2956 35.5259 59.9589 35.4137 59.697C35.3014 59.3977 34.9647 59.248 34.7028 59.3603L33.7675 59.6596V58.612C33.7675 58.3127 33.5056 58.0508 33.2063 58.0508C32.907 58.0508 32.6452 58.3127 32.6452 58.612V59.6596L31.7473 59.3229C31.448 59.2106 31.1487 59.3603 31.0364 59.6596C30.8868 59.9589 31.0364 60.2956 31.3357 60.3704ZM65.4932 37.923L66.4285 38.0727C66.84 38.1475 67.1393 38.372 67.2515 38.7087C67.3638 39.0454 67.2515 39.4195 66.9522 39.6814L66.2788 40.3548C66.0918 40.5045 65.9795 40.916 66.0169 41.1405L66.1666 42.0758C66.2414 42.4873 66.1292 42.8614 65.8299 43.0485C65.6802 43.1607 65.5306 43.1982 65.3435 43.1982C65.1565 43.1982 64.9694 43.1607 64.8197 43.0485L63.9593 42.5996C63.7348 42.4873 63.3232 42.4873 63.0988 42.5996L62.2383 43.0485C61.8642 43.2356 61.49 43.2356 61.1907 43.0485C60.8914 42.8614 60.7792 42.4873 60.854 42.0758L61.0037 41.1405C61.0411 40.916 60.9289 40.5045 60.7418 40.3548L60.0684 39.6814C59.7691 39.3821 59.6568 39.008 59.7691 38.7087C59.8813 38.372 60.1806 38.1475 60.5922 38.0727L61.5275 37.923C61.7519 37.8856 62.0886 37.6237 62.2009 37.4367L62.6124 36.5762C62.7995 36.2021 63.0988 35.9776 63.4729 35.9776C63.8096 35.9776 64.1463 36.2021 64.3334 36.5762L64.7449 37.4367C64.8946 37.6237 65.2313 37.8856 65.4932 37.923ZM65.3061 39.008C64.7075 38.9332 64.0341 38.4468 63.7722 37.8856L63.5103 37.3618L63.2484 37.8856C62.9865 38.4468 62.3131 38.8957 61.7145 39.008L61.1159 39.0828L61.5275 39.4943C61.9764 39.9059 62.2009 40.6915 62.1261 41.2901L62.0138 41.8513L62.5376 41.5894C62.7995 41.4398 63.1362 41.365 63.4729 41.365C63.8096 41.365 64.1463 41.4398 64.4082 41.5894L64.932 41.8513L64.8946 41.3275C64.7823 40.7289 65.0442 39.9433 65.4932 39.5318L65.9047 39.1202L65.3061 39.008ZM55.6537 61.3431L56.589 61.4928C57.0006 61.5676 57.2999 61.7921 57.4121 62.1288C57.5243 62.4655 57.4121 62.8396 57.1128 63.1015L56.4394 63.7749C56.2523 63.9246 56.1401 64.3361 56.1775 64.5606L56.3271 65.4959C56.402 65.9074 56.2897 66.2816 55.9904 66.4686C55.6911 66.6557 55.317 66.6931 54.9429 66.4686L54.0824 66.0197C53.8579 65.9074 53.4464 65.9074 53.2219 66.0197L52.3614 66.4686C52.1744 66.5809 51.9873 66.6183 51.8377 66.6183C51.6506 66.6183 51.501 66.5809 51.3513 66.4686C51.052 66.2816 50.9398 65.9074 51.0146 65.4959L51.1642 64.5606C51.2017 64.3361 51.0894 63.9246 50.9024 63.7749L50.2289 63.1015C49.9296 62.8022 49.8174 62.4281 49.9296 62.1288C50.0419 61.7921 50.3412 61.5676 50.7527 61.4928L51.688 61.3431C51.9125 61.3057 52.2492 61.0438 52.3614 60.8568L52.773 59.9963C52.96 59.6222 53.2593 59.3977 53.6335 59.3977C53.9702 59.3977 54.3069 59.6222 54.4939 59.9963L54.9055 60.8568C55.0551 61.0812 55.3918 61.3057 55.6537 61.3431ZM56.0653 62.5403L55.4667 62.4655C54.8681 62.3907 54.1946 61.9043 53.9328 61.3431L53.6709 60.8194L53.409 61.3431C53.1471 61.9043 52.4737 62.3533 51.8751 62.4655L51.2765 62.5403L51.688 62.9519C52.137 63.3634 52.3614 64.1491 52.2866 64.7477L52.1744 65.3088L52.6982 65.047C53.2219 64.7477 54.045 64.7477 54.6062 65.047L55.13 65.3088L55.0177 64.7477C54.9055 64.1491 55.1674 63.3634 55.6163 62.9519L56.0653 62.5403ZM21.4589 46.1163C21.1596 45.9293 21.0473 45.5551 21.1222 45.1436L21.2718 44.2083C21.3092 43.9838 21.197 43.5723 21.0099 43.4226L20.3365 42.7492C20.0372 42.4499 19.925 42.0758 20.0372 41.7765C20.1494 41.4398 20.4487 41.2153 20.8603 41.1405L21.7956 40.9534C22.0201 40.916 22.3568 40.6541 22.469 40.4671L22.8805 39.6066C23.0676 39.2325 23.3669 39.008 23.741 39.008C24.0777 39.008 24.4144 39.2325 24.6015 39.6066L25.013 40.4671C25.1253 40.6915 25.462 40.916 25.6865 40.9534L26.6218 41.1031C27.0333 41.1779 27.3326 41.4024 27.4448 41.7391C27.5571 42.0758 27.4448 42.4499 27.1455 42.7118L26.4721 43.3852C26.2851 43.5349 26.1728 43.9464 26.2102 44.1709L26.3599 45.1062C26.4347 45.5177 26.3225 45.8918 26.0232 46.0789C25.8735 46.1911 25.7239 46.2286 25.5368 46.2286C25.3497 46.2286 25.1627 46.1911 25.013 46.0789L24.1526 45.63C23.9281 45.5177 23.5165 45.5177 23.2921 45.63L22.4316 46.0789C22.1323 46.3034 21.7582 46.3034 21.4589 46.1163ZM21.7956 42.5622C22.2445 42.9737 22.469 43.7593 22.3942 44.3579L22.2819 44.9191L22.8057 44.6572C23.3295 44.3579 24.1526 44.3579 24.7137 44.6572L25.2375 44.9191L25.1253 44.3579C25.013 43.7593 25.2749 42.9737 25.7239 42.5622L26.1354 42.1506L25.5368 42.0758C24.9382 42.001 24.2648 41.5146 24.0029 40.9534L23.741 40.4296L23.5165 40.9534C23.2547 41.5146 22.5812 41.9636 21.9826 42.0758L21.384 42.1506L21.7956 42.5622ZM41.437 27.672C41.25 27.8217 41.1377 28.2332 41.1752 28.4577L41.3248 29.393C41.3996 29.8046 41.2874 30.1787 40.9881 30.3657C40.8384 30.478 40.6888 30.5154 40.5017 30.5154C40.3147 30.5154 40.1276 30.478 39.978 30.3657L39.1175 29.9168C38.893 29.8046 38.4815 29.8046 38.257 29.9168L37.3965 30.3657C37.0224 30.5528 36.6483 30.5528 36.349 30.3657C36.0497 30.1787 35.9374 29.8046 36.0123 29.393L36.1619 28.4577C36.1993 28.2332 36.0871 27.8217 35.9 27.672L35.2266 26.9986C34.9273 26.6993 34.8151 26.3252 34.9273 26.0259C35.0395 25.6892 35.3388 25.4647 35.7504 25.3899L36.7605 25.2402C36.985 25.2028 37.3217 24.941 37.4339 24.7539L37.8455 23.8934C38.0325 23.5193 38.3318 23.2948 38.7059 23.2948C39.0427 23.2948 39.3794 23.5193 39.5664 23.8934L39.978 24.7539C40.0902 24.9784 40.4269 25.2028 40.6514 25.2402L41.5867 25.3899C41.9982 25.4647 42.2975 25.6892 42.4098 26.0259C42.522 26.3626 42.4098 26.7367 42.1105 26.9986L41.437 27.672ZM41.0629 26.4374L40.5017 26.3626C39.9031 26.2878 39.2297 25.8014 38.9678 25.2402L38.7059 24.7165L38.4441 25.2402C38.1822 25.8014 37.5088 26.2504 36.9102 26.3626L36.3116 26.4374L36.7231 26.849C37.172 27.2605 37.3965 28.0462 37.3217 28.6448L37.2095 29.206L37.7332 28.9441C38.257 28.6448 39.0801 28.6448 39.6413 28.9441L40.165 29.206L40.0528 28.6448C39.9406 28.0462 40.2024 27.2605 40.6514 26.849L41.0629 26.4374ZM50.7901 39.8685C50.9024 40.0555 51.0894 40.1304 51.2765 40.1304C51.3887 40.1304 51.4635 40.0929 51.5758 40.0555L64.8946 31.9745C65.1565 31.8248 65.2313 31.4507 65.0816 31.1888C64.932 30.9269 64.5579 30.8521 64.296 31.0017L50.9772 39.1202C50.7153 39.2699 50.6405 39.6066 50.7901 39.8685ZM50.1167 23.0329C49.8174 22.9207 49.5181 23.1077 49.4059 23.407L43.794 41.3275C43.7192 41.6268 43.8688 41.9261 44.1681 42.0384C44.2056 42.0384 44.2804 42.0758 44.3552 42.0758C44.5797 42.0758 44.8042 41.9261 44.879 41.6643L50.4908 23.7438C50.5656 23.4445 50.416 23.1077 50.1167 23.0329ZM55.6163 32.1241C55.766 32.1241 55.9156 32.0493 56.0278 31.9371L58.5345 29.1685C58.7589 28.9441 58.7215 28.5699 58.4971 28.3829C58.2726 28.1584 57.8985 28.1958 57.7114 28.4203L55.2048 31.1888C54.9803 31.4133 55.0177 31.7874 55.2422 31.9745C55.3544 32.0493 55.5041 32.1241 55.6163 32.1241ZM50.6031 37.6611C50.7527 37.6611 50.9024 37.5863 51.0146 37.4741L53.5212 34.7056C53.7457 34.4811 53.7083 34.107 53.4838 33.9199C53.2593 33.6954 52.8852 33.7328 52.6982 33.9573L50.1915 36.7258C49.9671 36.9503 50.0045 37.3244 50.2289 37.5115C50.3412 37.6237 50.4534 37.6611 50.6031 37.6611ZM60.2554 26.4374C60.3677 26.5497 60.4799 26.5871 60.6296 26.5871C60.7792 26.5871 60.9289 26.5123 61.0411 26.4L62.5002 24.7913C62.7247 24.5668 62.6872 24.1927 62.4628 24.0056C62.2383 23.7812 61.8642 23.8186 61.6771 24.0431L60.218 25.6518C60.031 25.8763 60.031 26.213 60.2554 26.4374ZM40.165 38.4468C40.2773 38.6339 40.4643 38.7461 40.6514 38.7461C40.7262 38.7461 40.8384 38.7087 40.9133 38.6713C41.1752 38.5216 41.2874 38.1849 41.1752 37.923L40.2773 36.1272C40.1276 35.8653 39.7909 35.7531 39.529 35.8653C39.2671 36.015 39.1549 36.3517 39.2671 36.6136L40.165 38.4468ZM39.3794 34.3689L38.5189 32.6853C38.3692 32.4234 38.0325 32.3112 37.7706 32.4234C37.5088 32.5731 37.3965 32.9098 37.5088 33.1717L38.3692 34.8552C38.4815 35.0423 38.6685 35.1545 38.8556 35.1545C38.9304 35.1545 39.0427 35.1171 39.1175 35.0797C39.3794 34.9675 39.4916 34.6307 39.3794 34.3689ZM29.9141 42.5247L33.6179 43.0485C33.6553 43.0485 33.6553 43.0485 33.6927 43.0485C33.9546 43.0485 34.2165 42.8615 34.2539 42.5622C34.2913 42.2629 34.0668 41.9636 33.7675 41.9261L30.0637 41.4024C29.7644 41.365 29.4651 41.5894 29.4277 41.8887C29.3903 42.2254 29.6148 42.4873 29.9141 42.5247ZM37.4713 42.4499C37.172 42.4125 36.8727 42.637 36.8353 42.9363C36.7979 43.2356 37.0224 43.5349 37.3217 43.5723L41.0255 44.0961C41.0629 44.0961 41.0629 44.0961 41.1003 44.0961C41.3622 44.0961 41.6241 43.909 41.6615 43.6097C41.6989 43.3104 41.4745 43.0111 41.1752 42.9737L37.4713 42.4499ZM49.8174 42.001C49.78 41.7017 49.4807 41.4772 49.1814 41.5146L47.0489 41.8513L48.508 40.2426C48.7324 40.0181 48.695 39.644 48.4706 39.4569C48.2461 39.2325 47.872 39.2699 47.6849 39.4943L45.1783 42.2629C45.1035 42.3377 45.066 42.3751 45.066 42.4499C45.066 42.4499 45.066 42.4499 45.066 42.4873C45.0286 42.5622 45.0286 42.5996 45.0286 42.6744C45.0286 42.6744 45.0286 42.6744 45.0286 42.7118V42.7492C45.0286 42.7866 45.066 42.824 45.066 42.824C45.066 42.8615 45.066 42.8989 45.1035 42.8989C45.1409 42.9363 45.1409 42.9737 45.1783 43.0111C45.1783 43.0111 45.1783 43.0485 45.2157 43.0485C45.2531 43.0859 45.2905 43.1233 45.3653 43.1233C45.3653 43.1233 45.3653 43.1233 45.4028 43.1233C45.4402 43.1982 45.515 43.1982 45.5524 43.1982C45.5898 43.1982 45.5898 43.1982 45.6272 43.1982L49.331 42.637C49.6678 42.5996 49.8548 42.3003 49.8174 42.001ZM52.96 42.1132C52.9974 42.1132 52.9975 42.1132 53.0349 42.1132L56.7387 41.552C57.038 41.5146 57.2625 41.2153 57.225 40.916C57.1876 40.6167 56.8883 40.3922 56.589 40.4296L52.8852 40.9908C52.5859 41.0282 52.3614 41.3275 52.3989 41.6268C52.4737 41.8887 52.6982 42.1132 52.96 42.1132ZM65.3809 62.69C65.5306 62.69 65.7176 62.6152 65.8299 62.5029C66.0169 62.2784 65.9795 61.9043 65.7551 61.7173L63.0239 59.4351C62.7995 59.248 62.4254 59.2855 62.2383 59.5099C62.0512 59.7344 62.0886 60.1085 62.3131 60.2956L65.0442 62.5777C65.119 62.6526 65.2313 62.69 65.3809 62.69ZM56.4768 54.6837C56.2897 54.9082 56.3271 55.2823 56.5516 55.4694L59.4324 57.8638C59.5446 57.9386 59.6568 58.0134 59.8065 58.0134C59.9561 58.0134 60.1432 57.9386 60.2554 57.8264C60.4425 57.6019 60.4051 57.2278 60.1806 57.0407L57.2999 54.6463C57.038 54.4219 56.6639 54.4593 56.4768 54.6837ZM51.5384 49.8201C51.3139 49.6331 50.9398 49.6705 50.7527 49.895C50.5656 50.1194 50.6031 50.4936 50.8275 50.6806L53.7083 53.075C53.8205 53.1498 53.9328 53.2247 54.0824 53.2247C54.2321 53.2247 54.4191 53.1498 54.5314 53.0376C54.7184 52.8131 54.681 52.439 54.4565 52.2519L51.5384 49.8201ZM45.7769 44.994C45.5524 44.8069 45.1783 44.8443 44.9912 45.0688C44.8042 45.2933 44.8416 45.6674 45.066 45.8544L47.9468 48.2488C48.059 48.3236 48.1713 48.3985 48.3209 48.3985C48.4706 48.3985 48.6576 48.3236 48.7699 48.2114C48.9569 47.9869 48.9195 47.6128 48.695 47.4258L45.7769 44.994ZM39.8657 48.8848C39.6787 49.1467 39.7535 49.4834 40.0154 49.6705C40.1276 49.7453 40.2024 49.7453 40.3147 49.7453C40.5017 49.7453 40.6888 49.6705 40.801 49.4834L42.8213 46.3408C43.0084 46.0789 42.9335 45.7422 42.6716 45.5551C42.4098 45.3681 42.0731 45.4429 41.886 45.7048L39.8657 48.8848ZM36.7605 55.7313L38.7808 52.6261C38.9678 52.3642 38.893 52.0275 38.6311 51.8404C38.3692 51.6533 38.0325 51.7282 37.8455 51.9901L35.8252 55.0953C35.6381 55.3572 35.713 55.6939 35.9748 55.8809C36.0871 55.9558 36.1619 55.9558 36.2741 55.9558C36.4612 55.9558 36.6483 55.8809 36.7605 55.7313ZM23.4791 54.983C23.2172 55.1327 23.105 55.4694 23.2921 55.7687C23.4043 55.9558 23.5914 56.0306 23.7784 56.0306C23.8907 56.0306 23.9655 55.9932 24.0777 55.9558L41.6989 45.5926C41.7363 45.5926 41.7363 45.5551 41.7363 45.5551C41.7363 45.5551 41.7738 45.5551 41.7738 45.5177L41.8112 45.4803L41.8486 45.4429L41.886 45.4055L41.9234 45.3681V45.3307V45.2932V45.2558V45.2184V45.181C41.9234 45.1436 41.9234 45.1436 41.9234 45.1062V45.0688C41.9234 45.0314 41.9234 45.0314 41.9234 44.994C41.9234 44.994 41.9234 44.9565 41.886 44.9565C41.886 44.9565 41.886 44.9191 41.8486 44.9191L41.8112 44.8817L41.7738 44.8443L41.7363 44.8069L41.6989 44.7695C41.6989 44.7695 41.6615 44.7695 41.6615 44.7321C41.6241 44.7321 41.6241 44.6947 41.5867 44.6947C41.5867 44.6947 41.5867 44.6947 41.5493 44.6947C41.5119 44.6947 41.5119 44.6572 41.4745 44.6572C41.4745 44.6572 41.4745 44.6572 41.437 44.6572C41.3996 44.6572 41.3996 44.6572 41.3622 44.6572C41.3622 44.6572 41.3622 44.6572 41.3248 44.6572C41.2874 44.6572 41.2874 44.6572 41.25 44.6572H41.2126C41.1752 44.6572 41.1752 44.6572 41.1377 44.6947L22.0575 51.9526C21.7582 52.0649 21.6085 52.4016 21.7208 52.6635C21.7956 52.888 22.0201 53.0376 22.2445 53.0376C22.3194 53.0376 22.3942 53.0376 22.4316 53.0002L35.264 48.0992L23.4791 54.983ZM42.1105 42.1132C42.1479 42.1506 42.1853 42.1506 42.2227 42.1506C42.2227 42.1506 42.2601 42.1506 42.2601 42.188C42.2975 42.188 42.3724 42.2254 42.4098 42.2254H42.4472C42.4846 42.2254 42.522 42.2254 42.522 42.2254C42.522 42.2254 42.522 42.2254 42.5594 42.2254C42.5968 42.2254 42.6342 42.188 42.6716 42.188C42.7091 42.188 42.7465 42.1506 42.7839 42.1132C42.7839 42.1132 42.7839 42.1132 42.8213 42.0758C42.8587 42.0384 42.8587 42.0384 42.8961 42.001V41.9636L42.9335 41.9261C42.9335 41.9261 42.9335 41.8887 42.9709 41.8887V41.8513V41.8139V41.7765V41.7391V41.7017V41.6643V41.6268C42.9709 41.5894 42.9709 41.5894 42.9335 41.5894V41.552L42.0731 39.7188C41.9234 39.4569 41.5867 39.3447 41.3248 39.4569C41.1377 39.5318 41.0629 39.7188 41.0255 39.8685L25.013 27.8965C24.7512 27.7095 24.4144 27.7469 24.2274 28.0088C24.0403 28.2706 24.0777 28.6074 24.3396 28.7944L42.1105 42.1132C42.1105 42.1132 42.0731 42.1132 42.1105 42.1132ZM47.7223 43.909C47.6849 43.909 47.6849 43.909 47.6475 43.909C47.6101 43.909 47.6101 43.909 47.5727 43.909H47.5353C47.4978 43.909 47.4978 43.909 47.4604 43.9464C47.4604 43.9464 47.4604 43.9464 47.423 43.9464C47.3856 43.9464 47.3856 43.9838 47.3482 43.9838C47.3482 43.9838 47.3482 43.9838 47.3108 43.9838C47.2734 43.9838 47.2734 44.0212 47.236 44.0212C47.236 44.0212 47.236 44.0586 47.1985 44.0586L47.1611 44.0961C47.1611 44.0961 47.1611 44.1335 47.1237 44.1335L47.0863 44.1709V44.2083C47.0863 44.2457 47.0863 44.2457 47.0489 44.2831V44.3205V44.3579C47.0489 44.3954 47.0489 44.3954 47.0489 44.4328V44.4702V44.5076V44.545C47.0489 44.545 47.0489 44.5824 47.0863 44.5824C47.0863 44.5824 47.0863 44.6198 47.1237 44.6198L47.1611 44.6572L47.1985 44.6947L47.236 44.7321L47.2734 44.7695C47.2734 44.7695 47.3108 44.7695 47.3108 44.8069L47.3482 44.8443H47.3856C47.423 44.8443 47.423 44.8443 47.4604 44.8817L66.5033 49.3712C66.5407 49.3712 66.5781 49.3712 66.6155 49.3712C66.8774 49.3712 67.1019 49.1841 67.1767 48.9222C67.2515 48.6229 67.0645 48.3236 66.7652 48.2488L54.4565 45.3681L67.289 46.266H67.3264C67.6257 46.266 67.8501 46.0415 67.8876 45.7422C67.925 45.4429 67.6631 45.181 67.3638 45.1436L47.7223 43.909ZM39.6413 64.4858C39.6787 64.4858 39.7161 64.4858 39.7535 64.4858C40.0154 64.4858 40.2398 64.2987 40.3147 64.0368L43.1954 50.7554L43.7566 63.962C43.7566 64.2613 44.0185 64.4858 44.3178 64.4858C44.3178 64.4858 44.3178 64.4858 44.3552 64.4858C44.6545 64.4858 44.9164 64.2239 44.879 63.8872L44.1307 46.3034V46.266C44.1307 46.2286 44.1307 46.2286 44.1307 46.1911V46.1537V46.1163C44.1307 46.0789 44.0933 46.0789 44.0933 46.0415C44.0933 46.0415 44.0933 46.0041 44.0559 46.0041L44.0185 45.9667C44.0185 45.9667 44.0185 45.9293 43.9811 45.9293L43.9437 45.8918C43.9437 45.8918 43.9063 45.8918 43.9063 45.8544C43.9063 45.8544 43.8688 45.817 43.8314 45.817H43.794C43.7566 45.817 43.7566 45.817 43.7192 45.7796H43.6818C43.6444 45.7796 43.6444 45.7796 43.607 45.7796H43.5695H43.5321H43.4947C43.4573 45.7796 43.4573 45.7796 43.4199 45.817H43.3825C43.3451 45.817 43.3451 45.8544 43.3077 45.8544C43.3077 45.8544 43.2702 45.8544 43.2702 45.8918L43.2328 45.9293L43.1954 45.9667L43.158 46.0041L43.1206 46.0415L43.0832 46.0789C43.0832 46.0789 43.0832 46.1163 43.0458 46.1163C43.0458 46.1163 43.0458 46.1537 43.0458 46.1911V46.2286L39.2671 63.8123C39.1549 64.1116 39.342 64.4109 39.6413 64.4858ZM45.8891 47.4632L45.8517 47.4258L45.8143 47.3883L45.7769 47.3509L45.7395 47.3135H45.702C45.6646 47.3135 45.6646 47.2761 45.6272 47.2761H45.5898C45.5524 47.2761 45.5524 47.2761 45.515 47.2761H45.4776C45.4402 47.2761 45.4402 47.2761 45.4028 47.2761H45.3653C45.3279 47.2761 45.3279 47.2761 45.2905 47.2761H45.2531C45.2531 47.2761 45.2531 47.2761 45.2157 47.2761H45.1783C45.1409 47.2761 45.1409 47.2761 45.1409 47.3135C45.1409 47.3135 45.1409 47.3135 45.1035 47.3135C45.1035 47.3135 45.1035 47.3135 45.066 47.3135L45.0286 47.3509L44.9912 47.3883L44.9538 47.4258L44.9164 47.4632C44.9164 47.4632 44.9164 47.5006 44.879 47.5006C44.879 47.5006 44.879 47.538 44.8416 47.538V47.5754V47.6128V47.6502V47.6876V47.725C44.8416 47.7625 44.8416 47.7625 44.8416 47.7999C44.8416 47.7999 44.8416 47.7999 44.8416 47.8373L47.6849 59.6222C47.7597 59.8841 47.9842 60.0337 48.2461 60.0337C48.2835 60.0337 48.3209 60.0337 48.3957 60.0337C48.695 59.9589 48.8821 59.6596 48.8073 59.3603L46.8618 51.2044L51.2765 58.6494C51.3887 58.8365 51.5758 58.9113 51.7628 58.9113C51.8751 58.9113 51.9499 58.8739 52.0621 58.8365C52.324 58.6869 52.3989 58.3501 52.2492 58.0508L45.8891 47.4632C45.8891 47.4632 45.9265 47.4632 45.8891 47.4632Z" fill="#144D29"/>
</g>
<defs>
<clipPath id="clip0">
<rect width="48" height="43.6228" fill="white" transform="translate(20 22)"/>
</clipPath>
</defs>
</svg>
