<svg width="88" height="88" viewBox="0 0 88 88" fill="none" xmlns="http://www.w3.org/2000/svg">
<circle cx="44" cy="44" r="44" fill="white"/>
<path d="M64.8142 44.5214H56.2677V41.8354C56.2677 40.7926 55.4162 39.971 54.407 39.971H47.7211C46.6804 39.971 45.8604 40.7926 45.8604 41.8354V44.5214H43.4952V33.6827C43.4952 31.9131 42.076 30.4911 40.3099 30.4911H36.8724V21.8644C36.8724 20.8532 36.0524 20 35.0117 20H28.4519C27.4428 20 26.5913 20.8216 26.5913 21.8644V30.4911H23.1852C21.4192 30.4911 20 31.9447 20 33.6827V61.2377C20 62.9756 21.3561 64.366 23.0906 64.4292L23.2483 67.1152C23.2799 67.6208 23.6898 68 24.1944 68H26.4336C26.9382 68 27.3481 67.6208 27.3797 67.1152L27.5374 64.4292H34.1286V64.8084C34.1286 66.578 35.5478 68 37.3139 68H64.8142C66.5803 68 67.9995 66.578 67.9995 64.8084V47.7446C68.031 45.975 66.5803 44.5214 64.8142 44.5214ZM47.7527 41.867H54.407V44.4266H47.7527V41.867ZM28.4835 21.896H34.9801V30.4911H28.4835V21.896ZM25.519 66.1356H25.0775L24.9829 64.4608H25.6451L25.519 66.1356ZM40.0576 66.1356H37.3139C36.5885 66.1356 36.0209 65.5352 36.0209 64.84V47.7446C36.0209 47.0178 36.6201 46.449 37.3139 46.449H40.0576V66.1356ZM41.5714 44.5214H37.6292V36.6215C37.6292 36.0843 37.2193 35.6735 36.6831 35.6735C36.147 35.6735 35.737 36.0843 35.737 36.6215V44.9638C34.7594 45.501 34.1286 46.5438 34.1286 47.7446V62.5965H23.1852C22.4599 62.5965 21.8922 61.9961 21.8922 61.3009V33.6827C21.8922 32.9559 22.4914 32.3871 23.1852 32.3871H27.5374H35.9262H40.2784C41.0037 32.3871 41.5714 32.9875 41.5714 33.6827V44.5214ZM60.0521 66.1356H41.9498V46.4174H60.0521V66.1356ZM66.1388 64.84C66.1388 65.5668 65.5396 66.1356 64.8458 66.1356H61.9444V46.4174H64.8458C65.5711 46.4174 66.1388 47.0178 66.1388 47.713V64.84Z" fill="#144D29"/>
<path d="M26.8751 35.6733C26.339 35.6733 25.929 36.0841 25.929 36.6213V58.3619C25.929 58.8991 26.339 59.3099 26.8751 59.3099C27.4112 59.3099 27.8212 58.8991 27.8212 58.3619V36.6213C27.8212 36.0841 27.4112 35.6733 26.8751 35.6733Z" fill="#144D29"/>
<path d="M31.7318 35.6733C31.1957 35.6733 30.7857 36.0841 30.7857 36.6213V58.3619C30.7857 58.8991 31.1957 59.3099 31.7318 59.3099C32.268 59.3099 32.6779 58.8991 32.6779 58.3619V36.6213C32.6779 36.0841 32.268 35.6733 31.7318 35.6733Z" fill="#144D29"/>
</svg>
