<svg width="186" height="48" fill="none" xmlns="http://www.w3.org/2000/svg"><rect width="186" height="48" rx="24" fill="#E4F5EB"/><path d="M25.16 26.416l4.597-5.556V19.6h-7.068v1.584H27.2l-4.608 5.556V28h7.344v-1.584H25.16zM37.46 28h2.04l-3.757-8.4h-1.92L30.08 28h1.992l.745-1.8h3.9l.743 1.8zm-4.02-3.276l1.332-3.216 1.331 3.216H33.44zM47.81 28l-1.884-2.7c1.092-.468 1.728-1.392 1.728-2.652 0-1.884-1.404-3.048-3.648-3.048h-3.636V28h1.944v-2.34h1.788l1.62 2.34h2.088zm-2.124-5.352c0 .912-.6 1.464-1.788 1.464h-1.584v-2.928h1.584c1.188 0 1.788.54 1.788 1.464zm5.44 3.792v-1.944h3.9v-1.512h-3.9V21.16h4.416V19.6h-6.348V28H55.7v-1.56h-4.572zm8.147-.024l4.596-5.556V19.6h-7.068v1.584h4.512l-4.608 5.556V28h7.344v-1.584h-4.776zm7.955.024v-1.944h3.9v-1.512h-3.9V21.16h4.416V19.6h-6.348V28H71.8v-1.56h-4.572zM80.788 28l-1.884-2.7c1.092-.468 1.728-1.392 1.728-2.652 0-1.884-1.404-3.048-3.648-3.048h-3.636V28h1.944v-2.34h1.788L78.7 28h2.088zm-2.124-5.352c0 .912-.6 1.464-1.788 1.464h-1.584v-2.928h1.584c1.188 0 1.788.54 1.788 1.464zM93.008 19.6l-1.956 5.952-1.92-5.952h-1.8l-1.98 5.904-1.896-5.904H81.44L84.2 28h2.076l1.908-5.688L90.032 28h2.088l2.748-8.4h-1.86zm6.853 8.544c2.388 0 3.804-1.368 3.804-3.84V19.6h-1.92v4.632c0 1.596-.684 2.256-1.872 2.256-1.176 0-1.872-.66-1.872-2.256V19.6h-1.944v4.704c0 2.472 1.416 3.84 3.804 3.84zm7.273 0c1.98 0 3.024-1.02 3.024-3.096V19.6h-4.884v1.56h2.952v3.996c0 .924-.408 1.392-1.188 1.392-.6 0-1.104-.312-1.56-.924l-1.08 1.296c.612.792 1.608 1.224 2.736 1.224zM117.216 28h1.944v-6.816h2.688V19.6h-7.32v1.584h2.688V28zm7.61-1.56v-1.944h3.9v-1.512h-3.9V21.16h4.416V19.6h-6.348V28h6.504v-1.56h-4.572zM138.385 28l-1.884-2.7c1.092-.468 1.728-1.392 1.728-2.652 0-1.884-1.404-3.048-3.648-3.048h-3.636V28h1.944v-2.34h1.788l1.62 2.34h2.088zm-2.124-5.352c0 .912-.6 1.464-1.788 1.464h-1.584v-2.928h1.584c1.188 0 1.788.54 1.788 1.464zM149.237 28l-.024-8.4h-1.596l-3.096 5.22-3.144-5.22h-1.608V28h1.824v-4.932l2.46 4.044h.876l2.472-4.152.012 5.04h1.824zm1.993 0h1.944v-8.4h-1.944V28zm9.722-8.4v5.1l-4.176-5.1h-1.608V28h1.92v-5.1l4.188 5.1h1.596v-8.4h-1.92z" fill="#144D29"/></svg>