<svg width="188" height="48" fill="none" xmlns="http://www.w3.org/2000/svg"><rect width="188" height="48" rx="24" fill="#144D29"/><path d="M64.456 23.068h-2.088v-2.04H60.82v2.04h-2.076v1.464h2.076v2.04h1.548v-2.04h2.088v-1.464zm8.934 1.584h-1.368V23.08h-1.836v1.572H67.93l3.672-5.052h-2.04l-3.96 5.328v1.308h4.524V28h1.896v-1.764h1.368v-1.584zm6.447-1.068c.624-.384.984-.972.984-1.728 0-1.476-1.32-2.4-3.252-2.4-1.908 0-3.228.924-3.228 2.4 0 .756.348 1.344.972 1.728-.804.408-1.272 1.08-1.272 1.98 0 1.584 1.404 2.58 3.528 2.58 2.136 0 3.552-.996 3.552-2.58 0-.9-.468-1.572-1.284-1.98zm-2.268-2.7c.792 0 1.32.396 1.32 1.056 0 .636-.516 1.032-1.32 1.032-.792 0-1.296-.396-1.296-1.032 0-.66.516-1.056 1.296-1.056zm0 5.832c-.96 0-1.56-.468-1.56-1.212s.6-1.2 1.56-1.2c.972 0 1.584.456 1.584 1.2s-.612 1.212-1.584 1.212zm10.72-3.96h-.684l.132-1.596h3.504V19.6h-5.124l-.432 4.728h2.148c1.524 0 1.956.432 1.956 1.092 0 .684-.6 1.092-1.572 1.092-.876 0-1.752-.276-2.388-.756l-.768 1.488c.816.576 2.04.9 3.204.9 2.4 0 3.492-1.296 3.492-2.784 0-1.488-.984-2.604-3.468-2.604zm8.123.264l1.895-2.16V19.6h-5.88v1.56h3.576l-1.728 1.956V24.4h.888c1.105 0 1.573.396 1.573 1.032 0 .684-.6 1.08-1.573 1.08-.876 0-1.763-.276-2.4-.756l-.756 1.488c.816.576 2.028.9 3.204.9 2.389 0 3.48-1.296 3.48-2.712 0-1.236-.767-2.172-2.28-2.412zm10.869 1.632h-1.368V23.08h-1.836v1.572h-2.256l3.672-5.052h-2.04l-3.96 5.328v1.308h4.524V28h1.896v-1.764h1.368v-1.584zm11.672 0h-1.368V23.08h-1.836v1.572h-2.256l3.672-5.052h-2.04l-3.96 5.328v1.308h4.524V28h1.896v-1.764h1.368v-1.584zm-.078-5.052v2.952h1.728v-1.368h2.784L120.375 28h2.112l3.12-7.14V19.6h-6.732zm13.146 3.984c.624-.384.984-.972.984-1.728 0-1.476-1.32-2.4-3.252-2.4-1.908 0-3.228.924-3.228 2.4 0 .756.348 1.344.972 1.728-.804.408-1.272 1.08-1.272 1.98 0 1.584 1.404 2.58 3.528 2.58 2.136 0 3.552-.996 3.552-2.58 0-.9-.468-1.572-1.284-1.98zm-2.268-2.7c.792 0 1.32.396 1.32 1.056 0 .636-.516 1.032-1.32 1.032-.792 0-1.296-.396-1.296-1.032 0-.66.516-1.056 1.296-1.056zm0 5.832c-.96 0-1.56-.468-1.56-1.212s.6-1.2 1.56-1.2c.972 0 1.584.456 1.584 1.2s-.612 1.212-1.584 1.212zm11.44 1.428c2.076 0 3.6-1.572 3.6-4.344 0-2.772-1.524-4.344-3.6-4.344-2.064 0-3.6 1.572-3.6 4.344 0 2.772 1.536 4.344 3.6 4.344zm0-1.644c-.96 0-1.632-.792-1.632-2.7 0-1.908.672-2.7 1.632-2.7.972 0 1.644.792 1.644 2.7 0 1.908-.672 2.7-1.644 2.7zm8.145 1.644c2.076 0 3.6-1.572 3.6-4.344 0-2.772-1.524-4.344-3.6-4.344-2.064 0-3.6 1.572-3.6 4.344 0 2.772 1.536 4.344 3.6 4.344zm0-1.644c-.96 0-1.632-.792-1.632-2.7 0-1.908.672-2.7 1.632-2.7.972 0 1.644.792 1.644 2.7 0 1.908-.672 2.7-1.644 2.7zm7.424-3.744h-.684l.132-1.596h3.504V19.6h-5.124l-.432 4.728h2.148c1.524 0 1.956.432 1.956 1.092 0 .684-.6 1.092-1.572 1.092-.876 0-1.752-.276-2.388-.756l-.768 1.488c.816.576 2.04.9 3.204.9 2.4 0 3.492-1.296 3.492-2.784 0-1.488-.984-2.604-3.468-2.604zM40 29.402v4.322c0 .31-.096.607-.268.834a.94.94 0 01-.662.386c-.437.036-.794.056-1.07.056-8.837 0-16-8.755-16-19.556 0-.337.015-.773.046-1.307.018-.309.13-.598.316-.809a.91.91 0 01.682-.328h3.536c.124 0 .244.056.336.158.092.101.15.241.162.392a19.876 19.876 0 001.272 5.565c.095.244.033.536-.147.693l-2.158 1.884c1.32 3.758 3.77 6.753 6.844 8.365l1.54-2.632a.472.472 0 01.26-.218.386.386 0 01.313.036 12.107 12.107 0 004 1.472c.139.025.322.052.55.079a.475.475 0 01.32.198.693.693 0 01.129.41H40z" fill="#fff"/></svg>