<svg width="50" height="24" viewBox="0 0 50 24" fill="none" xmlns="http://www.w3.org/2000/svg">
<path d="M37.5 6C36.1253 6 35.0013 7.1056 35.0013 8.45776C35.0013 9.80993 36.1253 10.9155 37.5 10.9155C38.8747 10.9155 39.9987 9.80993 39.9987 8.45776C39.9987 7.1056 38.8747 6 37.5 6ZM37.5 9.70653C36.8046 9.70653 36.2304 9.14976 36.2304 8.45776C36.2304 7.77373 36.7965 7.209 37.5 7.209C38.1954 7.209 38.7696 7.76577 38.7696 8.45776C38.7696 9.1418 38.1954 9.70653 37.5 9.70653Z" fill="#83C5BE"/>
<path d="M41.6483 12.2361C41.6888 11.8702 41.6726 11.6475 41.4947 11.4487C41.4542 11.4009 41.3976 11.3453 41.0904 11.1782L40.12 10.6612C39.8208 10.5021 39.4488 10.6055 39.2871 10.8998C39.1254 11.1941 39.2305 11.56 39.5297 11.7191L39.7804 11.8543L40.4111 12.1963L39.9178 17.0482H39.5378C39.5054 17.0482 39.4812 17.0482 39.4569 17.0562C39.0203 17.096 38.6806 17.4618 38.6806 17.8993V22.9103C38.5351 23.0217 38.438 23.1966 38.438 23.3955C38.438 23.7295 38.713 24 39.0526 24C39.5297 24 39.9098 23.6182 39.9098 23.1569V18.2652H40.1443C40.5001 18.2652 40.5971 18.2334 40.6537 18.2095C40.9367 18.1061 41.0742 17.8516 41.1227 17.3982L41.6483 12.2361Z" fill="#83C5BE"/>
<path d="M33.9096 11.1782C33.6024 11.3453 33.5457 11.4009 33.5053 11.4487C33.3274 11.6396 33.3112 11.8623 33.3517 12.2361L33.8773 17.3982C33.9258 17.8516 34.0714 18.0982 34.3463 18.2095C34.4029 18.2334 34.4999 18.2652 34.8557 18.2652H35.0902V23.1569C35.0902 23.6261 35.4784 24 35.9474 24C36.287 24 36.562 23.7295 36.562 23.3955C36.562 23.1966 36.4649 23.0217 36.3194 22.9103V17.8993C36.3194 17.4618 35.9797 17.096 35.5431 17.0562C35.5188 17.0562 35.4865 17.0482 35.4622 17.0482H35.0822L34.5889 12.1963L35.2196 11.8543L35.4703 11.7191C35.7695 11.56 35.8746 11.1941 35.7129 10.8998C35.5512 10.6055 35.1792 10.5021 34.88 10.6612L33.9096 11.1782Z" fill="#83C5BE"/>
<path d="M45.8333 0C44.4586 0 43.3346 1.1056 43.3346 2.45776C43.3346 3.80993 44.4586 4.91553 45.8333 4.91553C47.208 4.91553 48.332 3.80993 48.332 2.45776C48.332 1.1056 47.208 0 45.8333 0ZM45.8333 3.70653C45.1379 3.70653 44.5638 3.14976 44.5638 2.45776C44.5638 1.77373 45.1298 1.209 45.8333 1.209C46.5288 1.209 47.1029 1.76577 47.1029 2.45776C47.1029 3.1418 46.5288 3.70653 45.8333 3.70653Z" fill="#83C5BE"/>
<path d="M49.9817 6.23611C50.0221 5.87023 50.0059 5.64752 49.828 5.44867C49.7876 5.40094 49.731 5.34527 49.4237 5.17823L48.4533 4.66123C48.1541 4.50215 47.7822 4.60555 47.6204 4.89985C47.4587 5.19414 47.5638 5.56002 47.863 5.7191L48.1137 5.85432L48.7444 6.19634L48.2512 11.0482H47.8711C47.8388 11.0482 47.8145 11.0482 47.7903 11.0562C47.3536 11.096 47.014 11.4618 47.014 11.8993V16.9103C46.8684 17.0217 46.7714 17.1966 46.7714 17.3955C46.7714 17.7295 47.0463 18 47.3859 18C47.863 18 48.2431 17.6182 48.2431 17.1569V12.2652H48.4776C48.8334 12.2652 48.9304 12.2334 48.987 12.2095C49.2701 12.1061 49.4075 11.8516 49.456 11.3982L49.9817 6.23611Z" fill="#83C5BE"/>
<path d="M42.243 5.17823C41.9357 5.34527 41.8791 5.40094 41.8387 5.44867C41.6608 5.63956 41.6446 5.86227 41.685 6.23611L42.2106 11.3982C42.2591 11.8516 42.4047 12.0982 42.6796 12.2095C42.7362 12.2334 42.8333 12.2652 43.1891 12.2652H43.4236V17.1569C43.4236 17.6261 43.8117 18 44.2807 18C44.6204 18 44.8953 17.7295 44.8953 17.3955C44.8953 17.1966 44.7983 17.0217 44.6527 16.9103V11.8993C44.6527 11.4618 44.3131 11.096 43.8764 11.0562C43.8522 11.0562 43.8198 11.0482 43.7956 11.0482H43.4155L42.9222 6.19634L43.553 5.85432L43.8036 5.7191C44.1028 5.56002 44.208 5.19414 44.0462 4.89985C43.8845 4.60555 43.5125 4.50215 43.2133 4.66123L42.243 5.17823Z" fill="#83C5BE"/>
<path d="M20.8333 6C19.4586 6 18.3346 7.1056 18.3346 8.45776C18.3346 9.80993 19.4586 10.9155 20.8333 10.9155C22.208 10.9155 23.332 9.80993 23.332 8.45776C23.332 7.1056 22.208 6 20.8333 6ZM20.8333 9.70653C20.1379 9.70653 19.5638 9.14976 19.5638 8.45776C19.5638 7.77373 20.1298 7.209 20.8333 7.209C21.5288 7.209 22.1029 7.76577 22.1029 8.45776C22.1029 9.1418 21.5288 9.70653 20.8333 9.70653Z" fill="#83C5BE"/>
<path d="M24.9817 12.2361C25.0221 11.8702 25.0059 11.6475 24.828 11.4487C24.7876 11.4009 24.731 11.3453 24.4237 11.1782L23.4533 10.6612C23.1541 10.5021 22.7822 10.6055 22.6204 10.8998C22.4587 11.1941 22.5638 11.56 22.863 11.7191L23.1137 11.8543L23.7444 12.1963L23.2512 17.0482H22.8711C22.8388 17.0482 22.8145 17.0482 22.7902 17.0562C22.3536 17.096 22.014 17.4618 22.014 17.8993V22.9103C21.8684 23.0217 21.7714 23.1966 21.7714 23.3955C21.7714 23.7295 22.0463 24 22.3859 24C22.863 24 23.2431 23.6182 23.2431 23.1569V18.2652H23.4776C23.8334 18.2652 23.9304 18.2334 23.987 18.2095C24.2701 18.1061 24.4075 17.8516 24.456 17.3982L24.9817 12.2361Z" fill="#83C5BE"/>
<path d="M17.243 11.1782C16.9357 11.3453 16.8791 11.4009 16.8386 11.4487C16.6607 11.6396 16.6446 11.8623 16.685 12.2361L17.2106 17.3982C17.2591 17.8516 17.4047 18.0982 17.6796 18.2095C17.7362 18.2334 17.8333 18.2652 18.1891 18.2652H18.4236V23.1569C18.4236 23.6261 18.8117 24 19.2807 24C19.6204 24 19.8953 23.7295 19.8953 23.3955C19.8953 23.1966 19.7983 23.0217 19.6527 22.9103V17.8993C19.6527 17.4618 19.3131 17.096 18.8764 17.0562C18.8522 17.0562 18.8198 17.0482 18.7955 17.0482H18.4155L17.9222 12.1963L18.553 11.8543L18.8036 11.7191C19.1028 11.56 19.208 11.1941 19.0462 10.8998C18.8845 10.6055 18.5125 10.5021 18.2133 10.6612L17.243 11.1782Z" fill="#83C5BE"/>
<path d="M29.1667 0C27.792 0 26.668 1.1056 26.668 2.45776C26.668 3.80993 27.792 4.91553 29.1667 4.91553C30.5413 4.91553 31.6653 3.80993 31.6653 2.45776C31.6653 1.1056 30.5413 0 29.1667 0ZM29.1667 3.70653C28.4712 3.70653 27.8971 3.14976 27.8971 2.45776C27.8971 1.77373 28.4631 1.209 29.1667 1.209C29.8621 1.209 30.4362 1.76577 30.4362 2.45776C30.4362 3.1418 29.8621 3.70653 29.1667 3.70653Z" fill="#83C5BE"/>
<path d="M33.315 6.23611C33.3554 5.87023 33.3392 5.64752 33.1613 5.44867C33.1209 5.40094 33.0643 5.34527 32.757 5.17823L31.7867 4.66123C31.4875 4.50215 31.1155 4.60555 30.9538 4.89985C30.792 5.19414 30.8972 5.56002 31.1964 5.7191L31.447 5.85432L32.0778 6.19634L31.5845 11.0482H31.2044C31.1721 11.0482 31.1478 11.0482 31.1236 11.0562C30.6869 11.096 30.3473 11.4618 30.3473 11.8993V16.9103C30.2017 17.0217 30.1047 17.1966 30.1047 17.3955C30.1047 17.7295 30.3796 18 30.7193 18C31.1964 18 31.5764 17.6182 31.5764 17.1569V12.2652H31.8109C32.1667 12.2652 32.2638 12.2334 32.3204 12.2095C32.6034 12.1061 32.7409 11.8516 32.7894 11.3982L33.315 6.23611Z" fill="#83C5BE"/>
<path d="M25.5763 5.17823C25.269 5.34527 25.2124 5.40094 25.172 5.44867C24.9941 5.63956 24.9779 5.86227 25.0183 6.23611L25.544 11.3982C25.5925 11.8516 25.738 12.0982 26.013 12.2095C26.0696 12.2334 26.1666 12.2652 26.5224 12.2652H26.7569V17.1569C26.7569 17.6261 27.1451 18 27.6141 18C27.9537 18 28.2286 17.7295 28.2286 17.3955C28.2286 17.1966 28.1316 17.0217 27.986 16.9103V11.8993C27.986 11.4618 27.6464 11.096 27.2097 11.0562C27.1855 11.0562 27.1531 11.0482 27.1289 11.0482H26.7488L26.2556 6.19634L26.8863 5.85432L27.137 5.7191C27.4362 5.56002 27.5413 5.19414 27.3796 4.89985C27.2178 4.60555 26.8459 4.50215 26.5467 4.66123L25.5763 5.17823Z" fill="#83C5BE"/>
<path d="M4.16666 6C2.79197 6 1.66797 7.1056 1.66797 8.45776C1.66797 9.80993 2.79197 10.9155 4.16666 10.9155C5.54134 10.9155 6.66535 9.80993 6.66535 8.45776C6.66535 7.1056 5.54134 6 4.16666 6ZM4.16666 9.70653C3.47123 9.70653 2.8971 9.14976 2.8971 8.45776C2.8971 7.77373 3.46314 7.209 4.16666 7.209C4.86209 7.209 5.43622 7.76577 5.43622 8.45776C5.43622 9.1418 4.86209 9.70653 4.16666 9.70653Z" fill="#83C5BE"/>
<path d="M8.31499 12.2361C8.35542 11.8702 8.33925 11.6475 8.16135 11.4487C8.12091 11.4009 8.06431 11.3453 7.75703 11.1782L6.78666 10.6612C6.48747 10.5021 6.11549 10.6055 5.95377 10.8998C5.79204 11.1941 5.89716 11.56 6.19636 11.7191L6.44703 11.8543L7.07777 12.1963L6.5845 17.0482H6.20444C6.1721 17.0482 6.14784 17.0482 6.12358 17.0562C5.68692 17.096 5.34729 17.4618 5.34729 17.8993V22.9103C5.20173 23.0217 5.1047 23.1966 5.1047 23.3955C5.1047 23.7295 5.37963 24 5.71926 24C6.19636 24 6.57642 23.6182 6.57642 23.1569V18.2652H6.81092C7.16672 18.2652 7.26376 18.2334 7.32036 18.2095C7.60339 18.1061 7.74085 17.8516 7.78937 17.3982L8.31499 12.2361Z" fill="#83C5BE"/>
<path d="M0.576303 11.1782C0.269021 11.3453 0.212417 11.4009 0.171985 11.4487C-0.00591531 11.6396 -0.022088 11.8623 0.0183438 12.2361L0.543958 17.3982C0.592476 17.8516 0.738031 18.0982 1.01297 18.2095C1.06957 18.2334 1.16661 18.2652 1.52241 18.2652H1.75691V23.1569C1.75691 23.6261 2.14506 24 2.61407 24C2.9537 24 3.22863 23.7295 3.22863 23.3955C3.22863 23.1966 3.1316 23.0217 2.98604 22.9103V17.8993C2.98604 17.4618 2.64641 17.096 2.20975 17.0562C2.18549 17.0562 2.15314 17.0482 2.12889 17.0482H1.74883L1.25556 12.1963L1.88629 11.8543L2.13697 11.7191C2.43617 11.56 2.54129 11.1941 2.37956 10.8998C2.21784 10.6055 1.84586 10.5021 1.54667 10.6612L0.576303 11.1782Z" fill="#83C5BE"/>
<path d="M12.5 0C11.1253 0 10.0013 1.1056 10.0013 2.45776C10.0013 3.80993 11.1253 4.91553 12.5 4.91553C13.8747 4.91553 14.9987 3.80993 14.9987 2.45776C14.9987 1.1056 13.8747 0 12.5 0ZM12.5 3.70653C11.8046 3.70653 11.2304 3.14976 11.2304 2.45776C11.2304 1.77373 11.7965 1.209 12.5 1.209C13.1954 1.209 13.7696 1.76577 13.7696 2.45776C13.7696 3.1418 13.1954 3.70653 12.5 3.70653Z" fill="#83C5BE"/>
<path d="M16.6483 6.23611C16.6888 5.87023 16.6726 5.64752 16.4947 5.44867C16.4542 5.40094 16.3976 5.34527 16.0904 5.17823L15.12 4.66123C14.8208 4.50215 14.4488 4.60555 14.2871 4.89985C14.1254 5.19414 14.2305 5.56002 14.5297 5.7191L14.7804 5.85432L15.4111 6.19634L14.9178 11.0482H14.5378C14.5054 11.0482 14.4812 11.0482 14.4569 11.0562C14.0203 11.096 13.6806 11.4618 13.6806 11.8993V16.9103C13.5351 17.0217 13.438 17.1966 13.438 17.3955C13.438 17.7295 13.713 18 14.0526 18C14.5297 18 14.9098 17.6182 14.9098 17.1569V12.2652H15.1443C15.5001 12.2652 15.5971 12.2334 15.6537 12.2095C15.9367 12.1061 16.0742 11.8516 16.1227 11.3982L16.6483 6.23611Z" fill="#83C5BE"/>
<path d="M8.90964 5.17823C8.60236 5.34527 8.54575 5.40094 8.50532 5.44867C8.32742 5.63956 8.31125 5.86227 8.35168 6.23611L8.87729 11.3982C8.92581 11.8516 9.07137 12.0982 9.3463 12.2095C9.40291 12.2334 9.49994 12.2652 9.85574 12.2652H10.0902V17.1569C10.0902 17.6261 10.4784 18 10.9474 18C11.287 18 11.562 17.7295 11.562 17.3955C11.562 17.1966 11.4649 17.0217 11.3194 16.9103V11.8993C11.3194 11.4618 10.9797 11.096 10.5431 11.0562C10.5188 11.0562 10.4865 11.0482 10.4622 11.0482H10.0822L9.58889 6.19634L10.2196 5.85432L10.4703 5.7191C10.7695 5.56002 10.8746 5.19414 10.7129 4.89985C10.5512 4.60555 10.1792 4.50215 9.88 4.66123L8.90964 5.17823Z" fill="#83C5BE"/>
</svg>
