<svg width="20" height="20" viewBox="0 0 20 20" fill="none" xmlns="http://www.w3.org/2000/svg">
<path fill-rule="evenodd" clip-rule="evenodd" d="M5.68034 4.92618C5.48508 4.73091 5.1685 4.73091 4.97324 4.92618C4.77798 5.12144 4.77798 5.43802 4.97324 5.63328L9.19224 9.85229L4.92611 14.1184C4.73085 14.3137 4.73085 14.6303 4.92611 14.8255C5.12137 15.0208 5.43796 15.0208 5.63322 14.8255L9.89935 10.5594L14.1656 14.8257C14.3609 15.0209 14.6775 15.0209 14.8727 14.8257C15.068 14.6304 15.068 14.3138 14.8727 14.1186L10.6065 9.85229L14.8256 5.63314C15.0209 5.43788 15.0209 5.12129 14.8256 4.92603C14.6303 4.73077 14.3138 4.73077 14.1185 4.92603L9.89935 9.14518L5.68034 4.92618Z" fill="#144D29"/>
</svg>
