<svg width="32" height="32" viewBox="0 0 32 32" fill="none" xmlns="http://www.w3.org/2000/svg">
<path d="M5.33337 8.00008C5.33337 7.64646 5.47385 7.30732 5.7239 7.05727C5.97395 6.80722 6.31309 6.66675 6.66671 6.66675H25.3334C25.687 6.66675 26.0261 6.80722 26.2762 7.05727C26.5262 7.30732 26.6667 7.64646 26.6667 8.00008C26.6667 8.3537 26.5262 8.69284 26.2762 8.94289C26.0261 9.19294 25.687 9.33341 25.3334 9.33341H6.66671C6.31309 9.33341 5.97395 9.19294 5.7239 8.94289C5.47385 8.69284 5.33337 8.3537 5.33337 8.00008Z" fill="#144D29"/>
<path d="M5.33337 24.0001C5.33337 23.6465 5.47385 23.3073 5.7239 23.0573C5.97395 22.8072 6.31309 22.6667 6.66671 22.6667H25.3334C25.687 22.6667 26.0261 22.8072 26.2762 23.0573C26.5262 23.3073 26.6667 23.6465 26.6667 24.0001C26.6667 24.3537 26.5262 24.6928 26.2762 24.9429C26.0261 25.1929 25.687 25.3334 25.3334 25.3334H6.66671C6.31309 25.3334 5.97395 25.1929 5.7239 24.9429C5.47385 24.6928 5.33337 24.3537 5.33337 24.0001Z" fill="#144D29"/>
<path d="M6.66671 14.6667C6.31309 14.6667 5.97395 14.8072 5.7239 15.0573C5.47385 15.3073 5.33337 15.6465 5.33337 16.0001C5.33337 16.3537 5.47385 16.6928 5.7239 16.9429C5.97395 17.1929 6.31309 17.3334 6.66671 17.3334H17.3334C17.687 17.3334 18.0261 17.1929 18.2762 16.9429C18.5262 16.6928 18.6667 16.3537 18.6667 16.0001C18.6667 15.6465 18.5262 15.3073 18.2762 15.0573C18.0261 14.8072 17.687 14.6667 17.3334 14.6667H6.66671Z" fill="#144D29"/>
</svg>
