<svg width="32" height="90" viewBox="0 0 32 90" fill="none" xmlns="http://www.w3.org/2000/svg">
<g clip-path="url(#clip0)">
<path fill-rule="evenodd" clip-rule="evenodd" d="M16 66.3637C16.2652 66.3637 16.5196 66.4595 16.7071 66.63C16.8946 66.8005 17 67.0317 17 67.2728V70.9092C17 71.1503 16.8946 71.3815 16.7071 71.552C16.5196 71.7225 16.2652 71.8182 16 71.8182C15.7348 71.8182 15.4804 71.7225 15.2929 71.552C15.1054 71.3815 15 71.1503 15 70.9092V67.2728C15 67.0317 15.1054 66.8005 15.2929 66.63C15.4804 66.4595 15.7348 66.3637 16 66.3637ZM24 80.9091V70.0001C24 68.0712 23.1571 66.2214 21.6569 64.8575C20.1566 63.4936 18.1217 62.7274 16 62.7274C13.8783 62.7274 11.8434 63.4936 10.3431 64.8575C8.84285 66.2214 8 68.0712 8 70.0001V80.9091C8 82.838 8.84285 84.6878 10.3431 86.0517C11.8434 87.4156 13.8783 88.1818 16 88.1818C18.1217 88.1818 20.1566 87.4156 21.6569 86.0517C23.1571 84.6878 24 82.838 24 80.9091ZM16 60.9092C13.3478 60.9092 10.8043 61.867 8.92893 63.5718C7.05357 65.2767 6 67.589 6 70.0001V80.9091C6 83.3202 7.05357 85.6325 8.92893 87.3374C10.8043 89.0422 13.3478 90 16 90C18.6522 90 21.1957 89.0422 23.0711 87.3374C24.9464 85.6325 26 83.3202 26 80.9091V70.0001C26 67.589 24.9464 65.2767 23.0711 63.5718C21.1957 61.867 18.6522 60.9092 16 60.9092V60.9092Z" fill="black"/>
</g>
<line x1="16" y1="5.71862e-08" x2="16" y2="50.9093" stroke="black" stroke-width="2"/>
<defs>
<clipPath id="clip0">
<rect width="32" height="29.0908" fill="white" transform="translate(0 60.9092)"/>
</clipPath>
</defs>
</svg>
