<svg width="18" height="22" viewBox="0 0 18 22" fill="none" xmlns="http://www.w3.org/2000/svg">
<path d="M18 16.4022V20.724C18.0001 21.0334 17.9042 21.3314 17.7316 21.5578C17.559 21.7842 17.3225 21.9221 17.07 21.9438C16.633 21.9804 16.276 22 16 22C7.16299 22 0 13.2452 0 2.44444C0 2.10711 0.015 1.67078 0.0459999 1.13667C0.0637223 0.827987 0.176581 0.539013 0.361803 0.328055C0.547025 0.117097 0.790822 -0.000139863 1.044 3.13597e-07H4.57999C4.70403 -0.000153187 4.82369 0.0560499 4.91572 0.157692C5.00775 0.259333 5.06559 0.399157 5.07799 0.55C5.10099 0.831111 5.12199 1.05478 5.14199 1.22467C5.34073 2.9198 5.748 4.56846 6.34999 6.11478C6.44499 6.35922 6.38299 6.65133 6.20299 6.80778L4.04499 8.69245C5.36445 12.4501 7.81454 15.4447 10.889 17.0573L12.429 14.4247C12.4919 14.3171 12.5838 14.24 12.6885 14.2067C12.7932 14.1734 12.9041 14.1861 13.002 14.2426C14.267 14.9769 15.6156 15.4735 17.002 15.7153C17.141 15.7398 17.324 15.7667 17.552 15.7936C17.6752 15.809 17.7894 15.8798 17.8723 15.9923C17.9553 16.1047 18.0011 16.2508 18.001 16.4022H18Z" fill="black"/>
</svg>
