<svg width="57" height="56" viewBox="0 0 57 56" fill="none" xmlns="http://www.w3.org/2000/svg">
<path d="M0.00399717 27.1563C0.00399717 11.5459 12.226 0 28.004 0C43.782 0 56.004 11.5459 56.004 27.1563C56.004 42.7579 43.782 54.3126 28.004 54.3126C25.1777 54.3126 22.453 53.9382 19.9102 53.2365C19.4134 53.1014 18.8849 53.1434 18.4157 53.3555L12.8367 55.8068C12.5001 55.9563 12.1319 56.0207 11.7645 55.9942C11.3971 55.9677 11.0418 55.8512 10.7302 55.6549C10.4185 55.4586 10.1599 55.1886 9.97735 54.8688C9.79476 54.5489 9.69376 54.1891 9.68325 53.8209L9.51875 48.8274C9.50819 48.5272 9.43737 48.2322 9.3105 47.9599C9.18364 47.6875 9.00331 47.4435 8.78025 47.2423C5.97302 44.7109 3.738 41.6102 2.22432 38.1468C0.710638 34.6835 -0.0469003 30.9373 0.00224717 27.158L0.00399717 27.1563ZM19.4185 22.0438L11.2057 35.1119C10.385 36.3419 11.953 37.7732 13.1202 36.8616L21.9612 30.1639C22.2515 29.9376 22.609 29.8147 22.9771 29.8147C23.3452 29.8147 23.7027 29.9376 23.993 30.1639L30.5187 35.0665C30.9839 35.4115 31.5151 35.6571 32.0793 35.7879C32.6436 35.9187 33.2287 35.9319 33.7983 35.8267C34.3678 35.7215 34.9096 35.5001 35.3898 35.1763C35.87 34.8526 36.2784 34.4334 36.5895 33.9449L44.8022 20.8768C45.623 19.6468 44.055 18.2436 42.8877 19.1272L34.0467 25.8248C33.7614 26.0507 33.408 26.1737 33.044 26.1737C32.68 26.1737 32.3266 26.0507 32.0412 25.8248L25.5067 20.9223C25.0423 20.5712 24.5098 20.3207 23.9432 20.1865C23.3766 20.0523 22.7883 20.0375 22.2157 20.143C21.643 20.2485 21.0986 20.472 20.6171 20.7992C20.1355 21.1264 19.7273 21.5503 19.4185 22.0438Z" fill="url(#paint0_linear)"/>
<defs>
<linearGradient id="paint0_linear" x1="39.004" y1="6.93341e-07" x2="11.504" y2="56" gradientUnits="userSpaceOnUse">
<stop stop-color="#ED776A"/>
<stop offset="0.307697" stop-color="#B94DC3"/>
<stop offset="0.795256" stop-color="#408BF7"/>
</linearGradient>
</defs>
</svg>
