<svg width="32" height="90" fill="none" xmlns="http://www.w3.org/2000/svg"><g clip-path="url(#clip0)"><path fill-rule="evenodd" clip-rule="evenodd" d="M16 66.364c.265 0 .52.096.707.266a.87.87 0 01.293.643v3.636a.87.87 0 01-.293.643c-.187.17-.442.266-.707.266-.265 0-.52-.096-.707-.266a.87.87 0 01-.293-.643v-3.636a.87.87 0 01.293-.643c.187-.17.442-.266.707-.266zm8 14.545V70c0-1.929-.843-3.779-2.343-5.142-1.5-1.364-3.535-2.13-5.657-2.13s-4.157.766-5.657 2.13C8.843 66.22 8 68.07 8 70v10.91c0 1.928.843 3.778 2.343 5.142 1.5 1.364 3.535 2.13 5.657 2.13s4.157-.766 5.657-2.13c1.5-1.364 2.343-3.214 2.343-5.143zm-8-20c-2.652 0-5.196.958-7.071 2.663C7.054 65.277 6 67.589 6 70v10.91c0 2.41 1.054 4.722 2.929 6.427C10.804 89.042 13.348 90 16 90s5.196-.958 7.071-2.663C24.946 85.632 26 83.32 26 80.91V70c0-2.411-1.054-4.723-2.929-6.428-1.875-1.705-4.419-2.663-7.071-2.663z" fill="#000"/></g><path stroke="#000" stroke-width="2" d="M16 0v50.909"/><defs><clipPath id="clip0"><path fill="#fff" transform="translate(0 60.91)" d="M0 0h32v29.091H0z"/></clipPath></defs></svg>